<?xml version="1.0" encoding="UTF-8"?>
<!--Generator: Apple Native CoreSVG 336-->
<!DOCTYPE svg
PUBLIC "-//W3C//DTD SVG 1.1//EN"
       "http://www.w3.org/Graphics/SVG/1.1/DTD/svg11.dtd">
<svg version="1.1" xmlns="http://www.w3.org/2000/svg" xmlns:xlink="http://www.w3.org/1999/xlink" viewBox="0 0 25.4314 25.0897">
 <g>
  <rect height="25.0897" opacity="0" width="25.4314" x="0" y="0"/>
  <path d="M12.5302 25.0701C19.4518 25.0701 25.0701 19.4615 25.0701 12.5399C25.0701 5.61836 19.4518 0 12.5302 0C5.60859 0 0 5.61836 0 12.5399C0 19.4615 5.60859 25.0701 12.5302 25.0701ZM12.5302 23.6927C6.36553 23.6927 1.37744 18.7046 1.37744 12.5399C1.37744 6.37227 6.36553 1.38418 12.5302 1.38418C18.6979 1.38418 23.6859 6.37227 23.6859 12.5399C23.6859 18.7046 18.6979 23.6927 12.5302 23.6927Z" fill="black" fill-opacity="0.85"/>
  <path d="M12.5174 8.19463C10.7084 8.19463 8.11279 7.88584 6.87324 7.70332C6.76582 7.68379 6.64863 7.65449 6.52842 7.65449C6.20615 7.65449 5.87783 7.92119 5.87783 8.3832C5.87783 8.72803 6.08291 9.02705 6.41797 9.10518C6.82442 9.21631 9.74229 9.56719 10.1066 9.63555C10.471 9.70088 10.6889 10.0097 10.7084 10.4552C10.7145 11.1223 10.7084 13.2431 10.5394 14.2159C10.3801 15.1753 9.26748 19.8045 9.21865 19.9998C9.08496 20.4972 9.38467 20.9427 9.88203 20.9427C10.2336 20.9427 10.4905 20.7413 10.6175 20.2665C10.8542 19.3388 11.6422 16.1286 11.9119 15.3511C12.0742 14.8042 12.2019 14.5931 12.5174 14.5931C12.8292 14.5931 12.9629 14.7981 13.1447 15.3511C13.3754 16.1188 14.1829 19.326 14.4136 20.2665C14.5345 20.7413 14.7975 20.9427 15.149 20.9427C15.6531 20.9427 15.9394 20.4972 15.8124 19.9998C15.7703 19.8045 14.6382 15.1753 14.4917 14.2159C14.3422 13.2431 14.3422 11.1223 14.3422 10.4552C14.3422 10.0097 14.5601 9.71367 14.9244 9.63555C15.2888 9.56113 18.2066 9.23887 18.6131 9.10518C18.9481 9.0082 19.1532 8.72803 19.1532 8.3832C19.1532 7.92119 18.8054 7.65449 18.5026 7.65449C18.3824 7.65449 18.2652 7.68379 18.1578 7.70332C16.9183 7.88584 14.3422 8.19463 12.5174 8.19463ZM12.5174 7.35547C13.4347 7.35547 14.1762 6.60352 14.1762 5.69297C14.1762 4.76895 13.4347 4.02744 12.5174 4.02744C11.5964 4.02744 10.8549 4.76895 10.8549 5.69297C10.8549 6.60352 11.5964 7.35547 12.5174 7.35547Z" fill="black" fill-opacity="0.85"/>
 </g>
</svg>
