<?xml version="1.0" encoding="UTF-8"?>
<svg width="24px" height="24px" viewBox="0 0 24 24" version="1.1" xmlns="http://www.w3.org/2000/svg" xmlns:xlink="http://www.w3.org/1999/xlink">
    <!-- Generator: Sketch 50.2 (55047) - http://www.bohemiancoding.com/sketch -->
    <title>Xcode_AccessWiFi</title>
    <desc>Created with Sketch.</desc>
    <defs></defs>
    <g id="Xcode_AccessWiFi" stroke="none" stroke-width="1" fill="none" fill-rule="evenodd">
        <path d="M9,17 C13.41828,17 17,13.41828 17,9 C17,4.581722 13.41828,1 9,1 C4.581722,1 1,4.581722 1,9 C1,13.41828 4.581722,17 9,17 Z" id="Stroke-1" stroke="#000000" stroke-width="1.047619"></path>
        <path d="M14.6517876,14.6517856 L22.443454,22.443452" id="Stroke-3" stroke="#000000" stroke-linecap="round"></path>
        <path d="M3.727077,7.324117 C5.261372,6.3783035 7.0678,5.83296 9.002206,5.83296 C10.935892,5.83296 12.74232,6.3783035 14.276617,7.324117" id="Stroke-5" stroke="#000000" stroke-linecap="round"></path>
        <path d="M5.178402,9.434021 C6.299645,8.774001 7.606385,8.39546 9.001558,8.39546 C10.397451,8.39546 11.70383,8.77472 12.825074,9.43474" id="Stroke-7" stroke="#000000" stroke-linecap="round"></path>
        <path d="M6.619662,11.5052865 C7.3325269,11.1191962 8.150003,10.89883 9.018526,10.89883 C9.873748,10.89883 10.679002,11.1120065 11.383958,11.4883905" id="Stroke-9" stroke="#000000" stroke-linecap="round"></path>
    </g>
</svg>