<?xml version="1.0" encoding="UTF-8"?>
<!--Generator: Apple Native CoreSVG 336-->
<!DOCTYPE svg
PUBLIC "-//W3C//DTD SVG 1.1//EN"
       "http://www.w3.org/Graphics/SVG/1.1/DTD/svg11.dtd">
<svg version="1.1" xmlns="http://www.w3.org/2000/svg" xmlns:xlink="http://www.w3.org/1999/xlink" viewBox="0 0 34.1846 27.1916">
 <g>
  <rect height="27.1916" opacity="0" width="34.1846" x="0" y="0"/>
  <path d="M27.1465 5.16778L27.1465 6.51191L25.8236 6.51191L25.8236 5.1836C25.8236 2.77315 24.4098 1.35284 21.9831 1.35284L5.16338 1.35284C2.69531 1.35284 1.32285 2.77315 1.32285 5.1836L1.32285 15.5246C1.32285 17.9351 2.69531 19.3554 5.16338 19.3554L6.6626 19.3554C7.11534 19.3554 7.29151 19.5346 7.29151 19.991L7.29151 23.7083L11.5058 19.8205C11.8351 19.49 12.0761 19.3824 12.4672 19.3602C12.5061 19.8457 12.5981 20.2851 12.7404 20.6782L12.6214 20.6782L8.15049 24.574C7.68829 24.9763 7.38985 25.202 6.97383 25.202C6.40049 25.202 6.05557 24.7927 6.05557 24.1405L6.05557 20.6782L5.14453 20.6782C1.89023 20.6782 0 18.7641 0 15.5404L0 5.16778C0 1.94414 1.89023 0.0232422 5.14453 0.0232422L22.002 0.0232422C25.2495 0.0232422 27.1465 1.96299 27.1465 5.16778Z" fill="black" fill-opacity="0.85"/>
  <path d="M16.9023 23.1661L22.6908 23.1661L26.678 26.5886C27.1312 26.9811 27.4229 27.1916 27.8072 27.1916C28.355 27.1916 28.6908 26.7914 28.6908 26.1807L28.6908 23.1661L29.3627 23.1661C32.2652 23.1661 33.8233 21.597 33.8233 18.7184L33.8233 10.9725C33.8233 8.09385 32.2652 6.51191 29.3627 6.51191L16.9023 6.51191C13.9967 6.51191 12.4387 8.09385 12.4387 10.9725L12.4387 18.7439C12.4387 21.6158 13.9967 23.1661 16.9023 23.1661ZM16.9814 21.8433C14.7822 21.8433 13.7713 20.8063 13.7713 18.6521L13.7774 11.0516C13.7774 8.91006 14.7822 7.83477 16.9814 7.83477L29.2775 7.83477C31.4857 7.83477 32.4876 8.91006 32.4876 11.0516L32.4876 18.6362C32.4876 20.7808 31.473 21.8433 29.2775 21.8433L28.0815 21.8433C27.7217 21.8433 27.4354 22.0531 27.4354 22.5103L27.4354 25.6458L23.6053 22.2394C23.2631 21.9362 23.0148 21.8433 22.6188 21.8433Z" fill="black" fill-opacity="0.85"/>
 </g>
</svg>
