<?xml version="1.0" encoding="UTF-8"?>
<svg width="24px" height="24px" viewBox="0 0 24 24" version="1.1" xmlns="http://www.w3.org/2000/svg" xmlns:xlink="http://www.w3.org/1999/xlink">
    <!-- Generator: Sketch 50.2 (55047) - http://www.bohemiancoding.com/sketch -->
    <title>Xcode_AutoFillCredentialProvider</title>
    <desc>Created with Sketch.</desc>
    <defs></defs>
    <g id="Xcode_AutoFillCredentialProvider" stroke="none" stroke-width="1" fill="none" fill-rule="evenodd">
        <path d="M22.5,17.7354 C22.5,20.3564 20.356,22.5004 17.735,22.5004 L6.263,22.5004 C3.643,22.5004 1.499,20.3564 1.499,17.7354 L1.499,6.2634 C1.499,3.6434 3.643,1.4994 6.263,1.4994 L17.735,1.4994 C20.356,1.4994 22.5,3.6434 22.5,6.2634 L22.5,17.7354 Z" id="Stroke-1" stroke="#000000"></path>
        <path d="M18.66188,17.34232 L18.65313,17.33169 C18.58,16.83357 18.37375,16.58294 18.36125,16.57107 C18.12938,16.33044 13.63125,11.715442 13.63125,11.715442 C13.614375,11.686067 13.95,11.351068 14.00875,11.286067 C14.076875,11.207942 14.174375,11.097317 14.161875,10.971693 C14.121875,10.548567 13.52375,10.714818 13.2275,10.806693 C12.83375,10.929192 12.779375,10.602317 12.70375,10.467942 C13.414375,8.860442 13.114375,6.912943 11.7975,5.596067 C10.085,3.8848175 7.3075,3.8848175 5.596875,5.596067 C3.884375,7.309192 3.884375,10.084817 5.596875,11.796693 C6.7075,12.908567 8.266875,13.292943 9.693125,12.961692 C9.69125,13.066068 9.71375,13.150443 9.766875,13.204192 L11.11125,14.58107 L11.9575,13.715442 L13.080625,14.084192 L13.33125,15.55669 L14.73063,15.74357 L15.13313,17.15419 L16.545,17.43357 L17.35187,18.43232 L18.51062,18.68732 C18.51062,18.68732 18.545,18.64482 18.55563,18.61669 L18.55,18.61294 C18.55563,18.59607 18.56438,18.58107 18.5675,18.56232 C18.61063,18.38982 18.6375,18.22982 18.65687,18.08232 L18.66313,18.07857 C18.69937,17.78544 18.6925,17.54169 18.66188,17.34232 Z" id="Stroke-3" stroke="#000000" stroke-linejoin="round"></path>
        <path d="M7.6659492,6.9591477 C7.860933,7.1542046 7.860933,7.4709637 7.6659492,7.6666874 C7.4706321,7.861411 7.1539918,7.861411 6.9586748,7.6666874 C6.76335774,7.4709637 6.76335774,7.1542046 6.9586748,6.9591477 C7.1539918,6.76409084 7.4706321,6.76375741 7.6659492,6.9591477 Z" id="Stroke-5" stroke="#000000" stroke-linejoin="round"></path>
    </g>
</svg>