<?xml version="1.0" encoding="UTF-8"?>
<svg width="27px" height="21px" viewBox="0 0 27 21" version="1.1" xmlns="http://www.w3.org/2000/svg" xmlns:xlink="http://www.w3.org/1999/xlink">
    <!-- Generator: Sketch 49.2 (51160) - http://www.bohemiancoding.com/sketch -->
    <title>ClassKit_Capability</title>
    <desc>Created with Sketch.</desc>
    <defs>
        <path d="M1.25609,0.96912 L3.35996,3.47642 C3.60982,3.77419 3.57098,4.218138 3.27321,4.467998 C2.97544,4.717858 2.5315,4.679018 2.28163,4.381246 L0.177763,1.87395 C-0.072098,1.57618 -0.033258,1.13223 0.264515,0.88237 C0.562287,0.63251 1.00623,0.67135 1.25609,0.96912 Z" id="path-1"></path>
        <path d="M7.21305,1.49023 L1.45866,6.671496 C1.16979,6.931596 0.72476,6.908273 0.46466,6.619402 C0.20456,6.330532 0.22789,5.8855 0.51676,5.6254 L6.27114,0.44413 C6.56001,0.18403 7.00504,0.20736 7.26514,0.49623 C7.52524,0.7851 7.50192,1.23013 7.21305,1.49023 Z" id="path-3"></path>
        <path d="M2.919922,0.17556 L20.16699,0.17556 C21.27156,0.17556 22.16699,1.07099 22.16699,2.17556 L22.16699,14.59375 C22.16699,15.698319 21.27156,16.59375 20.16699,16.59375 L2.919922,16.59375 C1.815352,16.59375 0.919922,15.698319 0.919922,14.59375 L0.919922,2.17556 C0.919922,1.07099 1.815352,0.17556 2.919922,0.17556 Z" id="path-5"></path>
        <path d="M1.0878908,0.78613 C1.36403269,0.78613 1.5878906,1.00998996 1.5878906,1.28612991 L1.5878906,16.2861301 C1.5878906,16.5622724 1.36403269,16.78613 1.0878908,16.78613 C0.81174821,16.78613 0.5878906,16.5622724 0.5878906,16.2861301 L0.5878906,1.28612991 C0.5878906,1.00998996 0.81174821,0.78613 1.0878908,0.78613 Z" id="path-7"></path>
        <path d="M25.169316,1.413761 C25.169316,1.689903 24.945456,1.913761 24.6693161,1.913761 L0.66931592,1.913761 C0.393173964,1.913761 0.169316,1.689903 0.169316,1.413761 C0.169316,1.137619 0.393173964,0.913761 0.66931592,0.913761 L24.6693161,0.913761 C24.945456,0.913761 25.169316,1.137619 25.169316,1.413761 Z" id="path-9"></path>
        <path d="M2.558784,1.38465 C2.558784,1.6608 2.334927,1.88465 2.058784,1.88465 L0.587891,1.88465 C0.311748,1.88465 0.087891,1.6608 0.087891,1.38465 C0.087891,1.10851 0.311748,0.88465 0.587891,0.88465 L2.058784,0.88465 C2.334927,0.88465 2.558784,1.10851 2.558784,1.38465 Z" id="path-11"></path>
        <path d="M3.16932,1.38465 C3.16932,1.6608 2.94546,1.88465 2.66932,1.88465 L1.19842,1.88465 C0.92228,1.88465 0.69842,1.6608 0.69842,1.38465 C0.69842,1.10851 0.92228,0.88465 1.19842,0.88465 L2.66932,0.88465 C2.94546,0.88465 3.16932,1.10851 3.16932,1.38465 Z" id="path-13"></path>
        <path d="M0.78519,0.78613 C1.06133,0.78613 1.28519,1.00998996 1.28519,1.28612991 L1.28519,16.2861301 C1.28519,16.5622724 1.06133,16.78613 0.78519,16.78613 C0.50905,16.78613 0.28519,16.5622724 0.28519,16.2861301 L0.28519,1.28612991 C0.28519,1.00998996 0.50905,0.78613 0.78519,0.78613 Z" id="path-15"></path>
    </defs>
    <g id="Page-1" stroke="none" stroke-width="1" fill="none" fill-rule="evenodd">
        <g id="ClassKit_Capability">
            <g id="Group-3" transform="translate(9.000000, 7.000000)">
                <mask id="mask-2" fill="white">
                    <use xlink:href="#path-1"></use>
                </mask>
                <g id="Clip-2"></g>
                <polygon id="Fill-1" fill="#000000" mask="url(#mask-2)" points="1.41996 -6.6142 10.85654 4.63187 2.11776 11.964571 -7.31881 0.7185"></polygon>
            </g>
            <g id="Group-6" transform="translate(11.000000, 5.000000)">
                <mask id="mask-4" fill="white">
                    <use xlink:href="#path-3"></use>
                </mask>
                <g id="Clip-5"></g>
                <polygon id="Fill-4" fill="#000000" mask="url(#mask-4)" points="14.79747 1.38934 0.56555 14.203826 -7.067667 5.72628 7.16426 -7.0882"></polygon>
            </g>
            <g id="Group-9" transform="translate(2.000000, 0.000000)">
                <mask id="mask-6" fill="white">
                    <use xlink:href="#path-5"></use>
                </mask>
                <g id="Clip-8"></g>
                <path d="M2.919922,0.17556 L20.166992,0.17556 C21.271562,0.17556 22.166992,1.0709905 22.166992,2.17556 L22.166992,14.59375 C22.166992,15.69832 21.271562,16.59375 20.166992,16.59375 L2.919922,16.59375 C1.8153525,16.59375 0.919922,15.69832 0.919922,14.59375 L0.919922,2.17556 C0.919922,1.0709905 1.8153525,0.17556 2.919922,0.17556 Z" id="Stroke-7" stroke="#000000" stroke-width="2" mask="url(#mask-6)"></path>
            </g>
            <g id="Group-12" transform="translate(0.000000, 4.000000)">
                <mask id="mask-8" fill="white">
                    <use xlink:href="#path-7"></use>
                </mask>
                <g id="Clip-11"></g>
                <polygon id="Fill-10" fill="#000000" mask="url(#mask-8)" points="-4.412109 21.786133 6.587891 21.786133 6.587891 -4.213867 -4.412109 -4.213867"></polygon>
            </g>
            <g id="Group-15" transform="translate(1.000000, 17.000000)">
                <mask id="mask-10" fill="white">
                    <use xlink:href="#path-9"></use>
                </mask>
                <g id="Clip-14"></g>
                <polygon id="Fill-13" fill="#000000" mask="url(#mask-10)" points="30.16932 -4.086239 30.16932 6.913761 -4.830684 6.913761 -4.830684 -4.086239"></polygon>
            </g>
            <g id="Group-18" transform="translate(1.000000, 7.000000)">
                <mask id="mask-12" fill="white">
                    <use xlink:href="#path-11"></use>
                </mask>
                <g id="Clip-17"></g>
                <polygon id="Fill-16" fill="#000000" mask="url(#mask-12)" points="7.558784 -4.11535 7.558784 6.884655 -4.912109 6.884655 -4.912109 -4.11535"></polygon>
            </g>
            <g id="Group-21" transform="translate(23.000000, 7.000000)">
                <mask id="mask-14" fill="white">
                    <use xlink:href="#path-13"></use>
                </mask>
                <g id="Clip-20"></g>
                <polygon id="Fill-19" fill="#000000" mask="url(#mask-14)" points="8.16932 -4.11535 8.16932 6.884655 -4.30158 6.884655 -4.30158 -4.11535"></polygon>
            </g>
            <g id="Group-24" transform="translate(25.000000, 4.000000)">
                <mask id="mask-16" fill="white">
                    <use xlink:href="#path-15"></use>
                </mask>
                <g id="Clip-23"></g>
                <polygon id="Fill-22" fill="#000000" mask="url(#mask-16)" points="-4.71481 21.786133 6.28519 21.786133 6.28519 -4.213867 -4.71481 -4.213867"></polygon>
            </g>
        </g>
    </g>
</svg>