<?xml version="1.0" encoding="UTF-8"?>
<!--Generator: Apple Native CoreSVG 336-->
<!DOCTYPE svg
PUBLIC "-//W3C//DTD SVG 1.1//EN"
       "http://www.w3.org/Graphics/SVG/1.1/DTD/svg11.dtd">
<svg version="1.1" xmlns="http://www.w3.org/2000/svg" xmlns:xlink="http://www.w3.org/1999/xlink" viewBox="0 0 27.5078 26.7305">
 <g>
  <rect height="26.7305" opacity="0" width="27.5078" x="0" y="0"/>
  <path d="M6.97383 26.7305C7.38985 26.7305 7.68829 26.5048 8.15049 26.0958L12.6214 22.2067L22.002 22.2067C25.2495 22.2067 27.1465 20.267 27.1465 17.0689L27.1465 6.69629C27.1465 3.48848 25.2495 1.55176 22.002 1.55176L5.14453 1.55176C1.89023 1.55176 0 3.47266 0 6.69629L0 17.0689C0 20.2926 1.89023 22.2067 5.14453 22.2067L6.05557 22.2067L6.05557 25.669C6.05557 26.3145 6.40049 26.7305 6.97383 26.7305ZM7.29151 25.2368L7.29151 21.5195C7.29151 21.0601 7.11534 20.8839 6.6626 20.8839L5.16338 20.8839C2.69531 20.8839 1.32285 19.4636 1.32285 17.0434L1.32285 6.71211C1.32285 4.29492 2.69531 2.87159 5.16338 2.87159L21.9831 2.87159C24.4098 2.87159 25.8236 4.29492 25.8236 6.71211L25.8236 17.0434C25.8236 19.4636 24.4098 20.8839 21.9831 20.8839L12.652 20.8839C12.1457 20.8839 11.884 20.9694 11.5058 21.3393Z" fill="black" fill-opacity="0.85"/>
  <path d="M13.5714 14.1361C13.9867 14.1361 14.235 13.869 14.2417 13.3988L14.3774 6.62022C14.3812 6.15674 14.0416 5.82158 13.5646 5.82158C13.084 5.82158 12.7616 6.15 12.7684 6.61348L12.8906 13.3988C12.8943 13.8623 13.1523 14.1361 13.5714 14.1361ZM13.5714 17.9473C14.1635 17.9473 14.6481 17.4677 14.6481 16.8944C14.6481 16.3114 14.1672 15.8416 13.5714 15.8416C12.9823 15.8416 12.4946 16.3182 12.4946 16.8944C12.4946 17.4609 12.9891 17.9473 13.5714 17.9473Z" fill="black" fill-opacity="0.85"/>
 </g>
</svg>
