<?xml version="1.0" encoding="UTF-8"?>
<!--Generator: Apple Native CoreSVG 336-->
<!DOCTYPE svg
PUBLIC "-//W3C//DTD SVG 1.1//EN"
       "http://www.w3.org/Graphics/SVG/1.1/DTD/svg11.dtd">
<svg version="1.1" xmlns="http://www.w3.org/2000/svg" xmlns:xlink="http://www.w3.org/1999/xlink" viewBox="0 0 26.2815 26.2697">
 <g>
  <rect height="26.2697" opacity="0" width="26.2815" x="0" y="0"/>
  <path d="M18.7103 24.8605C20.6081 24.8605 22.0844 24.3123 23.3418 22.9801C23.4085 22.9066 23.4587 22.8527 23.5254 22.7793C24.2773 21.9892 24.6417 21.2066 24.6417 20.4563C24.6417 19.7043 24.2298 18.9687 23.3285 18.3534L20.2708 16.2669C19.4194 15.6903 18.6112 15.6233 17.5662 16.1218L15.5656 17.0818C15.1289 17.2825 14.7659 17.2953 14.3171 17.0232C13.7386 16.6814 12.542 15.7576 11.345 14.5418C10.1383 13.3064 9.23846 12.1638 8.88416 11.5226C8.69022 11.161 8.70369 10.8987 8.92156 10.5471L10.1012 8.6951C10.5931 7.92361 10.643 7.03348 10.1237 6.28445L7.67723 2.70652C7.05516 1.80525 6.324 1.4031 5.58475 1.39939C4.84725 1.39265 4.05183 1.76375 3.2618 2.50965C3.18836 2.57263 3.12166 2.6326 3.05496 2.69929C1.74158 3.93416 1.17381 5.41414 1.17381 7.28933C1.17381 10.8121 3.50974 15.0256 7.27205 18.769C11.0088 22.496 15.1913 24.8605 18.7103 24.8605ZM18.7171 23.5923C15.5139 23.6229 11.5392 21.2148 8.22166 17.8972C4.87479 14.5571 2.41141 10.4955 2.44881 7.2826C2.46229 5.86795 2.9408 4.61092 3.97391 3.63914C4.03387 3.58289 4.08338 3.54012 4.13963 3.49061C4.64197 3.01219 5.15848 2.77684 5.58846 2.77684C6.0033 2.77684 6.3407 2.9701 6.62859 3.39471L8.97264 6.87088C9.21541 7.22713 9.22146 7.59178 8.91707 8.08406L7.64217 10.1146C7.22283 10.7785 7.27674 11.3746 7.69002 12.0179C8.23162 12.8571 9.24158 14.1631 10.4672 15.4136C11.6928 16.6512 13.0386 17.7189 13.8421 18.2278C14.4786 18.6495 15.1531 18.7327 15.9817 18.3383L18.1567 17.3045C18.7446 17.0331 19.2002 17.0917 19.6911 17.421L22.6464 19.4125C23.0582 19.6876 23.2642 20.0378 23.2642 20.4526C23.2642 20.8954 23.0289 21.3991 22.5377 21.9075C22.4882 21.9705 22.4514 22.0072 22.4019 22.0672C21.4204 23.1131 20.1573 23.5788 18.7171 23.5923Z" fill="black" fill-opacity="0.85"/>
  <path d="M14.2551 12.0288C14.8979 12.6717 15.951 12.6717 16.5999 12.0227C17.2458 11.3799 17.2458 10.3396 16.5999 9.70047C15.951 9.0448 14.8979 9.0448 14.2551 9.6907C13.6031 10.3396 13.6031 11.3799 14.2551 12.0288ZM15.4953 5.5616C15.2389 5.81795 15.2389 6.23162 15.4953 6.49471L19.7831 10.7886C20.0462 11.0516 20.4659 11.0516 20.7162 10.7886C20.9793 10.5322 20.9793 10.1185 20.7162 9.85545L16.4254 5.5616C16.1721 5.29851 15.7456 5.29851 15.4953 5.5616ZM19.6214 6.67293C20.274 7.29861 21.3105 7.30535 21.9692 6.65642C22.5986 6.01053 22.5986 4.97029 21.9692 4.3409C21.3105 3.6822 20.2673 3.6822 19.6214 4.32136C18.9724 4.97029 18.9724 6.00379 19.6214 6.67293ZM20.8683 0.192261C20.6053 0.448609 20.6053 0.869021 20.8683 1.12537L25.1524 5.42898C25.4088 5.6823 25.8389 5.6823 26.0892 5.42898C26.3456 5.1659 26.3456 4.75222 26.0892 4.49587L21.8014 0.192261C21.5384-0.0640871 21.1119-0.0640871 20.8683 0.192261Z" fill="black" fill-opacity="0.85"/>
 </g>
</svg>
