<?xml version="1.0" encoding="UTF-8"?>
<svg width="82px" height="77px" viewBox="0 0 82 77" version="1.1" xmlns="http://www.w3.org/2000/svg" xmlns:xlink="http://www.w3.org/1999/xlink">
    <title>Thin-S</title>
    <g id="Page-1" stroke="none" stroke-width="1" fill="none" fill-rule="evenodd">
        <g id="matter" transform="translate(-815.000000, -622.000000)" fill="#000000" fill-rule="nonzero">
            <g id="Symbols" transform="translate(494.566200, 616.361300)">
                <g id="Thin-S" transform="translate(321.332300, 6.095700)">
                    <path d="M22.368,22.2813 C24.7968,23.9446333 27.4290667,25.2619667 30.2648,26.2333 C33.1004667,27.2045667 36.0004667,27.7521667 38.9648,27.8761 L38.9648,0.9277 L40.5478,0 L42.082,0.9277 L42.082,27.8761 C45.1292667,27.7269667 48.0563333,27.1730667 50.8632,26.2144 C53.67,25.2556667 56.2914667,23.9446333 58.7276,22.2813 L61.6746,23.9951 C58.6998,26.2842333 55.4385667,28.0302333 51.8909,29.2331 C48.3432333,30.4359 44.5622,31.0373 40.5478,31.0373 C36.5334,31.0373 32.7523667,30.4359 29.2047,29.2331 C25.6571,28.0302333 22.3958667,26.2842333 19.421,23.9951 L22.368,22.2813 Z M28.3849,74.75583 C28.6022333,71.83139 28.4184667,68.90774 27.8336,65.98488 C27.2487333,63.0620267 26.2590333,60.2827667 24.8645,57.6471 L1.58298,71.11577 L0,70.18804 L0,68.40817 L23.3682,54.8907 C21.7227333,52.3715667 19.7746,50.1281 17.5238,48.1603 C15.273,46.1924333 12.8334333,44.5816 10.2051,43.3278 L10.2051,39.9004 C13.7028333,41.3253333 16.8567,43.2711 19.6667,45.7377 C22.4767,48.2043667 24.8771667,51.1734333 26.8681,54.6449 C28.8915667,58.1091 30.264,61.68223 30.9854,65.36429 C31.7068,69.04635 31.8259667,72.7481 31.3429,76.46954 L28.3849,74.75583 Z M70.8417,43.3278 C68.1882333,44.5816 65.7360667,46.2005667 63.4852,48.1847 C61.2344,50.1687667 59.3277333,52.4203667 57.7652,54.9395 L81.0468,68.40817 L81.0468,70.18804 L79.5127,71.11577 L56.1823,57.6471 C54.7877667,60.2827667 53.7980667,63.0620267 53.2132,65.98488 C52.6283333,68.90774 52.4445667,71.83139 52.6619,74.75583 L49.7527,76.46954 C49.2697,72.7481 49.3889,69.04635 50.1103,65.36429 C50.8317,61.68223 52.1878333,58.1091 54.1787,54.6449 C56.2022333,51.1734333 58.6189667,48.2043667 61.4289,45.7377 C64.2389,43.2711 67.3765,41.3253333 70.8417,39.9004 L70.8417,43.3278 Z" id="Shape"></path>
                </g>
            </g>
        </g>
    </g>
</svg>