<?xml version="1.0" encoding="UTF-8"?>
<svg width="82px" height="66px" viewBox="0 0 82 66" version="1.1" xmlns="http://www.w3.org/2000/svg" xmlns:xlink="http://www.w3.org/1999/xlink">
    <title>Light-S</title>
    <g id="ExportsFromSFSymbolsPasteBoard" stroke="none" stroke-width="1" fill="none" fill-rule="evenodd">
        <g id="memorychip" transform="translate(-1146.000000, -628.000000)" fill="#000000" fill-rule="nonzero">
            <g id="Symbols" transform="translate(529.244000, 624.857400)">
                <g id="Light-S" transform="translate(617.201620, 3.189500)">
                    <path d="M11.63378,58.43015 L69.74558,58.43015 C77.48978,58.43015 81.37938,54.5439 81.37938,46.9311 L81.37938,18.5952 C81.37938,10.9824 77.48978,7.0962 69.74558,7.0962 L11.63378,7.0962 C3.92338,7.0962 1.77635684e-15,10.9521 1.77635684e-15,18.5952 L1.77635684e-15,46.9311 C1.77635684e-15,54.5742 3.92338,58.43015 11.63378,58.43015 Z M11.73148,53.0034 C7.65578,53.0034 5.42678,50.8418 5.42678,46.6313 L5.42678,18.895 C5.42678,14.6846 7.65578,12.5229 11.73148,12.5229 L69.64798,12.5229 C73.66308,12.5229 75.95268,14.6846 75.95268,18.895 L75.95268,46.6313 C75.95268,50.8418 73.66308,53.0034 69.64798,53.0034 L11.73148,53.0034 Z M13.30958,9.3716 L18.73638,9.3716 L18.73638,2.6982 C18.73638,1.0981 17.63818,0 16.02298,0 C14.42288,0 13.30958,1.0981 13.30958,2.6982 L13.30958,9.3716 Z M25.65138,9.3716 L31.07818,9.3716 L31.07818,2.6982 C31.07818,1.0981 29.96488,0 28.36478,0 C26.76468,0 25.65138,1.0981 25.65138,2.6982 L25.65138,9.3716 Z M37.99318,9.3716 L43.41998,9.3716 L43.41998,2.6982 C43.41998,1.0981 42.30668,0 40.70658,0 C39.07278,0 37.99318,1.0981 37.99318,2.6982 L37.99318,9.3716 Z M50.30128,9.3716 L55.76178,9.3716 L55.76178,2.6982 C55.76178,1.0981 54.64848,0 53.01468,0 C51.41458,0 50.30128,1.0981 50.30128,2.6982 L50.30128,9.3716 Z M62.64308,9.3716 L68.06988,9.3716 L68.06988,2.6982 C68.06988,1.0981 66.95658,0 65.35648,0 C63.75638,0 62.64308,1.0981 62.64308,2.6982 L62.64308,9.3716 Z M13.30958,56.3213 L13.30958,62.8281 C13.30958,64.4282 14.42288,65.52635 16.02298,65.52635 C17.63818,65.52635 18.73638,64.4282 18.73638,62.8281 L18.73638,56.3213 L13.30958,56.3213 Z M25.65138,56.3213 L25.65138,62.8281 C25.65138,64.4282 26.76468,65.52635 28.36478,65.52635 C29.96488,65.52635 31.07818,64.4282 31.07818,62.8281 L31.07818,56.3213 L25.65138,56.3213 Z M37.99318,56.3213 L37.99318,62.8281 C37.99318,64.4282 39.07278,65.52635 40.70658,65.52635 C42.30668,65.52635 43.41998,64.4282 43.41998,62.8281 L43.41998,56.3213 L37.99318,56.3213 Z M50.30128,56.3213 L50.30128,62.8281 C50.30128,64.4282 51.41458,65.52635 53.01468,65.52635 C54.64848,65.52635 55.76178,64.4282 55.76178,62.8281 L55.76178,56.3213 L50.30128,56.3213 Z M62.64308,56.3213 L62.64308,62.8281 C62.64308,64.4282 63.75638,65.52635 65.35648,65.52635 C66.95658,65.52635 68.06988,64.4282 68.06988,62.8281 L68.06988,56.3213 L62.64308,56.3213 Z" id="Shape"></path>
                </g>
            </g>
        </g>
    </g>
</svg>