<?xml version="1.0" encoding="UTF-8"?>
<svg width="24px" height="24px" viewBox="0 0 24 24" version="1.1" xmlns="http://www.w3.org/2000/svg" xmlns:xlink="http://www.w3.org/1999/xlink">
    <!-- Generator: Sketch 62 (91390) - https://sketch.com -->
    <title>CustomNetworkProtocol_NewIcon</title>
    <desc>Created with Sketch.</desc>
    <g id="Page-1" stroke="none" stroke-width="1" fill="none" fill-rule="evenodd">
        <g id="CustomNetworkProtocol_NewIcon" fill="#000000" fill-rule="nonzero">
            <path d="M12,0 L12.3050087,0.0038000581 C18.6923867,0.163126455 23.8394569,5.31268344 23.9963165,11.6997158 L24,12 L23.9962007,12.3050087 C23.8369047,18.6923867 18.6883136,23.8394569 12.3003302,23.9963165 L12,24 L11.695038,23.9962007 C5.20882219,23.8344157 0,18.526202 0,12 C0,5.37286957 5.37286957,0 12,0 Z M12,1 L11.711592,1.0037074 C10.8067874,1.02699466 9.92916146,1.15953858 9.09141757,1.38863568 C9.26408322,1.5454763 9.30271605,1.80962963 9.18,2.02 C9.08,2.17 8.92,2.25 8.75,2.25 C8.66,2.25 8.57,2.23 8.49,2.18 C8.30239216,2.07056209 8.21866347,1.85724503 8.25792036,1.6546873 C8.42485859,1.59319184 8.59379972,1.53626375 8.76455865,1.48362707 C6.08328114,2.30752081 3.83881756,4.12850109 2.46360102,6.51384957 C2.5065301,6.55488178 2.54274118,6.60362745 2.5698,6.66 C2.6898,6.91 2.5798,7.21 2.3398,7.33 L2.29056184,7.3481663 C2.28174089,7.36905133 2.27146152,7.3896374 2.2597,7.4098 C2.17311463,7.53967805 2.04154711,7.62457394 1.89745408,7.6450137 C2.00460874,7.39428019 2.12122153,7.14890651 2.24658752,6.90893697 C1.45025547,8.431334 1,10.1630845 1,12 C1,17.5929887 5.17415455,22.2110312 10.5771607,22.9088246 L10.8286553,22.9383699 L10.8286553,22.9383699 L10.8199,22.9498 C10.9799,22.7198 11.2899,22.6698 11.5099,22.8298 C11.5734526,22.8740105 11.6232622,22.9304371 11.6586958,22.9936157 L11.3809387,22.9828734 C11.4907346,22.9889644 11.6009602,22.9934452 11.711592,22.9962926 L12,23 L12.2883597,22.9962926 C14.8275246,22.9309306 17.1529396,22.0048496 18.9834763,20.4989438 L19,20.5 C18.72,20.5 18.5,20.27 18.5,20 C18.5,19.72 18.72,19.5 19,19.5 C19.27,19.5 19.5,19.72 19.5,20 L19.4968075,20.0493974 C19.9790448,19.600069 20.4208683,19.1079274 20.8162197,18.5790259 L20.8595,18.5998 C20.5995,18.4998 20.4695,18.2198 20.5595,17.9598 C20.6605,17.6998 20.9395,17.5598 21.2005,17.6598 C21.2651698,17.684769 21.3217971,17.7209602 21.3689652,17.7652601 C22.3553931,16.1671273 22.9437426,14.2968359 22.9961695,12.293121 L23,12 L22.9962918,11.711592 C22.9912768,11.5167776 22.9811957,11.3232232 22.9661754,11.1310556 L22.9533768,10.9967066 C22.8856189,10.9706822 22.8234,10.92896 22.7698,10.87 C22.5798,10.67 22.5998,10.35 22.7998,10.17 L22.8428764,10.1370927 C22.4141844,7.62443617 21.1331954,5.40235865 19.3080974,3.77879195 L19.3085889,3.83165185 C19.3019222,3.91757778 19.2730333,4.00313333 19.2197,4.0798 C19.1197,4.2098 18.9697,4.2898 18.8097,4.2898 C18.7097,4.2898 18.6097,4.2598 18.5197,4.1898 C18.2897,4.0298 18.2397,3.7198 18.3997,3.4898 C18.4787588,3.38109412 18.596882,3.31389412 18.7227032,3.2930256 L18.5413961,3.15580588 C17.7332395,2.55706034 16.8401716,2.06644442 15.8835946,1.70534247 L16.1735432,1.8195478 L16.1735432,1.8195478 L16.1450166,1.87133635 C16.081258,1.9660963 15.9854556,2.03868889 15.8699,2.0698 C15.8189,2.0898 15.7799,2.0898 15.7299,2.0898 C15.5099,2.0898 15.3099,1.9498 15.2499,1.7298 C15.2253244,1.64685733 15.2233973,1.56391467 15.2400602,1.48648003 C14.2161272,1.16980045 13.1278574,1 12,1 Z M12.47,22.2398 C12.58,22.4898 12.46,22.7798 12.21,22.8898 C12.14,22.9198 12.08,22.9298 12.01,22.9298 C11.8471429,22.9298 11.6842857,22.8489837 11.5906997,22.7062431 L11.55,22.6298 C11.44,22.3798 11.56,22.0798 11.81,21.9698 C12.069,21.8598 12.359,21.9798 12.47,22.2398 Z M10.0399,21.5998 C10.2399,21.7898 10.2399,22.1098 10.0499,22.2998 C9.9499,22.3998 9.8199,22.4598 9.6899,22.4598 C9.5699,22.4598 9.4399,22.4098 9.3399,22.3098 C9.1399,22.1198 9.1399,21.8098 9.3299,21.6098 C9.5199,21.4098 9.8399,21.3998 10.0399,21.5998 Z M11.86,20.4198 C11.92,20.6898 11.76,20.9598 11.49,21.0198 C11.45,21.0298 11.41,21.0398 11.37,21.0398 C11.1775,21.0398 10.9926562,20.9249562 10.915957,20.7421633 L10.89,20.6598 C10.82,20.3898 10.98,20.1198 11.25,20.0498 C11.52,19.9898 11.79,20.1498 11.86,20.4198 Z M8.7699,20.1598 C8.9399,20.3798 8.8899,20.6898 8.6699,20.8598 C8.5799,20.9298 8.4699,20.9598 8.3699,20.9598 C8.2199,20.9598 8.0699,20.8898 7.9699,20.7598 C7.7999,20.5398 7.8499,20.2298 8.0699,20.0598 C8.2899,19.8898 8.5999,19.9398 8.7699,20.1598 Z M17.63,19.42 C17.91,19.45 18.1,19.7 18.069,19.97 C18.04,20.229 17.819,20.42 17.569,20.42 C17.56,20.42 17.54,20.41 17.52,20.41 C17.24,20.38 17.04,20.13 17.08,19.859 C17.109,19.58 17.359,19.39 17.63,19.42 Z M15.76,19.04 C16.02,19.109 16.18,19.39 16.1,19.66 C16.03,19.88 15.83,20.02 15.62,20.02 C15.569,20.02 15.52,20.01 15.48,20 C15.21,19.92 15.06,19.64 15.14,19.38 C15.22,19.109 15.5,18.96 15.76,19.04 Z M13.97,18.35 C14.22,18.47 14.33,18.77 14.2,19.02 C14.12,19.189 13.939,19.3 13.75,19.3 C13.68,19.3 13.609,19.28 13.54,19.25 L13.54,19.24 C13.29,19.12 13.189,18.83 13.31,18.58 C13.43,18.33 13.73,18.229 13.97,18.35 Z M7.7499,18.5398 C7.8699,18.7898 7.7799,19.0898 7.5399,19.2198 C7.4599,19.2498 7.3799,19.2698 7.3099,19.2698 C7.1199,19.2698 6.9499,19.1698 6.8599,18.9998 C6.7299,18.7598 6.8299,18.4598 7.0699,18.3298 C7.3199,18.1998 7.6199,18.2998 7.7499,18.5398 Z M11.05,15.75 L11.1923301,15.7559605 C11.9870711,15.8228212 12.6213429,16.4443991 12.6932131,17.2265593 L12.7,17.375 L12.6939414,17.5152874 C12.6298463,18.2540156 12.0642539,18.8511231 11.3343519,18.9759641 C11.2641879,19.0261242 11.1804615,19.0597487 11.09,19.0698 L11.05,19.0698 C10.9416667,19.0698 10.8402778,19.0350778 10.7574074,18.9757606 C9.98646501,18.8392411 9.4,18.1749727 9.4,17.375 C9.4,16.477 10.139,15.75 11.05,15.75 Z M19.4505,16.8698 C19.6895,16.9998 19.7805,17.2998 19.6495,17.5498 C19.5595,17.7098 19.3895,17.8098 19.2095,17.8098 C19.1295,17.8098 19.0495,17.7898 18.9695,17.7498 C18.7295,17.6198 18.6395,17.3098 18.7695,17.0698 C18.8995,16.8298 19.2095,16.7398 19.4505,16.8698 Z M7.0099,16.7808 C7.0899,17.0398 6.9499,17.3198 6.6899,17.4098 C6.6399,17.4198 6.5799,17.4298 6.5299,17.4298 C6.3499,17.4298 6.18459388,17.3269429 6.09695539,17.1653102 L6.0599,17.0798 C5.9699,16.8198 6.1199,16.5398 6.3799,16.4498 C6.6499,16.3698 6.9299,16.5198 7.0099,16.7808 Z M17.8305,15.8298 C18.0495,15.9998 18.0995,16.3098 17.9295,16.5308 C17.8305,16.6598 17.6795,16.7298 17.5305,16.7298 C17.44725,16.7298 17.3701875,16.7073 17.2988906,16.6665187 L17.2295,16.6198 C17.0095,16.4598 16.9695,16.1398 17.1295,15.9198 C17.2995,15.6998 17.6095,15.6598 17.8305,15.8298 Z M6.57168326,14.8299783 L6.5897,14.9174573 L6.59490686,15.0017753 C6.58656667,15.242763 6.40878889,15.4442444 6.1599,15.4798 L6.0999,15.4798 C5.88115,15.4798 5.693025,15.3419875 5.62261484,15.1400539 L5.5999,15.0498 C5.5599,14.7698 5.7599,14.5198 6.0299,14.4798 C6.2699,14.4531333 6.50199877,14.6002938 6.57168326,14.8299783 Z M9.63,14.67 C9.79,14.899 9.74,15.21 9.52,15.37 C9.43,15.43 9.33,15.46 9.23,15.46 C9.07,15.46 8.92,15.39 8.82,15.25 C8.66,15.03 8.71,14.72 8.93,14.55 C9.16,14.39 9.47,14.439 9.63,14.67 Z M16.3995,14.5498 C16.5895,14.7498 16.5895,15.0598 16.3895,15.2598 C16.2905,15.3498 16.1605,15.3898 16.0405,15.3898 C15.9365,15.3898 15.8325,15.3578 15.743348,15.2938 L15.6795,15.2398 C15.4905,15.0398 15.4995,14.7198 15.7005,14.5308 C15.8995,14.3398 16.2195,14.3498 16.3995,14.5498 Z M11.4998,13.269 C11.7698,13.319 11.9498,13.58 11.8998,13.85 C11.8734538,14.0080769 11.7733575,14.1357861 11.6395145,14.2045535 C11.7931834,14.3181478 11.8714706,14.5112706 11.82,14.7098 C11.77,14.9398 11.57,15.0998 11.34,15.0998 C11.3,15.0998 11.26,15.0898 11.22,15.0798 C10.95,15.0198 10.79,14.7498 10.85,14.4798 C10.8881431,14.3326767 10.9856696,14.2182143 11.1086035,14.1542098 C10.9636862,14.0454792 10.8845343,13.8597295 10.9198,13.67 C10.9698,13.399 11.2298,13.22 11.4998,13.269 Z M13.4198,13.49 C13.5298,13.49 13.6298,13.53 13.7098,13.59 C13.7898,13.53 13.8898,13.5 13.9998,13.5 C14.2698,13.5 14.4998,13.72 14.4998,14 C14.4998,14.28 14.2698,14.5 13.9998,14.5 C13.8798,14.5 13.7698,14.46 13.6898,14.39 C13.5998,14.45 13.4898,14.49 13.3698,14.49 C13.0998,14.47 12.8798,14.24 12.8998,13.97 C12.9098,13.689 13.1398,13.479 13.4198,13.49 Z M16.4898,13.79 C16.5198,14.06 16.3398,14.31 16.0598,14.35 C16.0398,14.359 16.0198,14.359 15.9898,14.359 C15.7498,14.359 15.5298,14.18 15.4998,13.93 C15.4598,13.66 15.6498,13.399 15.9198,13.359 C16.1898,13.319 16.4498,13.51 16.4898,13.79 Z M18.4298,13.3 C18.4998,13.56 18.3498,13.84 18.0898,13.92 C18.0398,13.93 17.9898,13.939 17.9498,13.939 C17.7298,13.939 17.5298,13.79 17.4698,13.58 C17.3898,13.31 17.5398,13.04 17.7998,12.96 L17.8098,12.96 C18.0698,12.88 18.3498,13.03 18.4298,13.3 Z M15.2095,13.0598 C15.3595,13.2898 15.2995,13.5998 15.0695,13.7498 C14.9905,13.8098 14.8895,13.8398 14.7905,13.8398 C14.6295,13.8398 14.4795,13.7598 14.3795,13.6098 C14.2295,13.3798 14.2905,13.0698 14.5195,12.9198 C14.7495,12.7698 15.0595,12.8298 15.2095,13.0598 Z M9.6398,12.78 C9.8998,12.87 10.0398,13.149 9.9498,13.42 C9.8798,13.62 9.6898,13.75 9.4798,13.75 C9.4198,13.75 9.3698,13.74 9.3198,13.729 C9.0598,13.64 8.9198,13.35 9.0098,13.09 C9.0898,12.83 9.3798,12.69 9.6398,12.78 Z M7.5297,8.4598 C7.7997,8.4798 8.0097,8.7198 7.9897,8.9998 C7.9721417,9.22805789 7.80043647,9.4100717 7.58284662,9.4511119 L7.58203018,9.45898491 C7.57683219,9.53810572 7.55304273,9.61340773 7.51419787,9.67945086 C8.0069851,10.0408212 8.34064892,10.601332 8.39283742,11.2399776 L8.4,11.416 L8.39447604,11.570782 C8.37215556,11.8823961 8.28296344,12.1757992 8.14095159,12.4371626 C8.1471039,12.5243304 8.13057519,12.6150517 8.0898,12.7 L8.0447,12.7684573 L8.071893,12.7583813 C8.29444444,12.6960494 8.54333333,12.8066667 8.65,13.02 C8.77,13.27 8.67,13.569 8.42,13.689 C8.35,13.729 8.28,13.74 8.2,13.74 C8.02,13.74 7.84,13.64 7.75,13.46 C7.66470588,13.2823039 7.69561106,13.0843993 7.81039668,12.9381057 C7.78917937,12.9465712 7.76712942,12.9533475 7.74457794,12.9584393 C7.39183713,13.3018535 6.92152887,13.5282336 6.39848627,13.5743006 L6.2,13.583 L6.04288814,13.5775601 C4.90120983,13.4982231 4,12.5609565 4,11.416 C4,11.1093139 4.06476825,10.8174883 4.18157452,10.5530679 C4.14107637,10.5320756 4.10371304,10.503913 4.0698,10.47 C3.8798,10.28 3.8798,9.96 4.0698,9.77 C4.26849281,9.57130719 4.58562212,9.57000854 4.77605792,9.76610406 C5.11116831,9.48434143 5.53393163,9.30052123 5.99848221,9.25896872 L6.2,9.25 L6.35711186,9.2554398 C6.37598258,9.25675112 6.39478759,9.25829683 6.41352393,9.26007398 C6.37744469,9.15120784 6.38013201,9.02743344 6.4299,8.9098 L6.4297,8.91845731 L6.47029781,8.83844198 C6.59594938,8.63597284 6.85767778,8.55202222 7.0799,8.6498 L7.09171877,8.65517522 C7.19124928,8.52663762 7.35246094,8.44714007 7.5297,8.4598 Z M20.2698,12.53 C20.3798,12.77 20.2698,13.069 20.0298,13.189 C19.9598,13.22 19.8898,13.229 19.8198,13.229 C19.6298,13.229 19.4498,13.13 19.3598,12.95 C19.2498,12.69 19.3498,12.4 19.6098,12.28 C19.8498,12.17 20.1498,12.27 20.2698,12.53 Z M12.149,12.2398 C12.399,12.3398 12.519,12.6398 12.42,12.8898 C12.34,13.0798 12.149,13.1998 11.95,13.1998 C11.89,13.1998 11.83,13.1898 11.76,13.1598 C11.51,13.0498 11.39,12.7598 11.49,12.5098 C11.6,12.2498 11.89,12.1298 12.149,12.2398 Z M21.9798,11.49 C22.1298,11.72 22.0598,12.03 21.8398,12.18 C21.7498,12.24 21.6498,12.26 21.5598,12.26 C21.3998,12.26 21.2398,12.18 21.1398,12.04 C20.9898,11.81 21.0498,11.5 21.2798,11.35 C21.5198,11.19 21.8198,11.26 21.9798,11.49 Z M14.2995,11.3798 C14.4105,11.6398 14.2905,11.9298 14.0405,12.0398 C13.9695,12.0698 13.9105,12.0798 13.8395,12.0798 C13.6495,12.0798 13.4595,11.9698 13.3795,11.7798 C13.2695,11.5198 13.3895,11.2298 13.6495,11.1198 C13.8995,11.0098 14.1895,11.1298 14.2995,11.3798 Z M13.13,10.4998 C13.359,10.6498 13.439,10.9498 13.29,11.1898 C13.2,11.3398 13.03,11.4198 12.87,11.4198 C12.78,11.4198 12.689,11.3998 12.6,11.3498 C12.37,11.1998 12.3,10.8898 12.439,10.6598 C12.59,10.4298 12.899,10.3498 13.13,10.4998 Z M13.2405,5.2198 C13.5095,5.2698 13.7005,5.5198 13.6495,5.7998 C13.6324464,5.88165714 13.5967801,5.95537121 13.5480954,6.01697451 L13.6428881,6.00543988 L13.8,6 L13.9571119,6.00543988 C15.0468957,6.08117071 15.917575,6.93861001 15.994476,8.01221797 L16,8.167 L15.994476,8.32166269 C15.917575,9.39451122 15.0468957,10.2527497 13.9571119,10.3285547 L13.8,10.334 L13.6428881,10.3285547 C12.5012098,10.2491399 11.6,9.311 11.6,8.167 C11.6,7.26316578 12.1615979,6.48875565 12.9597582,6.16363901 C12.7526485,6.07499504 12.6262384,5.85106582 12.6605,5.6198 C12.7095,5.3498 12.9695,5.1698 13.2405,5.2198 Z M8.4997,8.4998 C8.7797,8.4998 8.9997,8.7198 8.9997,8.9998 C8.9997,9.2798 8.7797,9.4998 8.4997,9.4998 C8.2197,9.4998 7.9997,9.2798 7.9997,8.9998 C7.9997,8.7198 8.2197,8.4998 8.4997,8.4998 Z M10.9897,8.7698 C11.0297,9.0498 10.8397,9.2998 10.5697,9.3398 C10.5397,9.3498 10.5097,9.3498 10.4897,9.3498 C10.2497,9.3498 10.0397,9.1698 9.9997,8.9198 C9.9597,8.6498 10.1397,8.3998 10.4197,8.3498 L10.4097,8.3498 C10.6897,8.3098 10.9397,8.4998 10.9897,8.7698 Z M5.6297,8.1698 C5.8997,8.2298 6.0697,8.4998 6.0097,8.7698 C5.9497,8.9998 5.7397,9.1598 5.5197,9.1598 C5.4797,9.1598 5.4397,9.1498 5.3997,9.1398 C5.1297,9.0798 4.9697,8.8098 5.0297,8.5398 C5.0897,8.2698 5.3597,8.1098 5.6297,8.1698 Z M3.7997,7.5898 C4.0597,7.6898 4.1797,7.9798 4.0797,8.2398 C4.01112857,8.40265714 3.86174082,8.51408571 3.6945105,8.54259883 L3.63128148,8.54814815 C3.64757778,8.72 3.57646667,8.89333333 3.4298,9 C3.3398,9.07 3.2398,9.1 3.1398,9.1 C2.9798,9.1 2.8298,9.02 2.7298,8.89 C2.5698,8.66 2.6198,8.35 2.8498,8.19 C2.93128148,8.13074074 3.02510864,8.10028807 3.11908822,8.09660976 C3.10883707,8.01964616 3.11869225,7.93731938 3.1497,7.8598 C3.2597,7.5998 3.5497,7.4798 3.7997,7.5898 Z M8.0799,6.9198 C8.3199,7.0698 8.3799,7.3698 8.2399,7.6098 C8.1399,7.7598 7.9799,7.8398 7.8099,7.8398 C7.7199,7.8398 7.6299,7.8098 7.5499,7.7598 C7.51051538,7.73518462 7.47570881,7.70626049 7.44570124,7.67408823 C7.36265299,7.82762905 7.19851351,7.93 7.01,7.93 L6.99,7.93 C6.71,7.92 6.5,7.68 6.51,7.41 C6.53,7.13 6.76,6.92 7.04,6.93 C7.17333333,6.93493827 7.2944734,6.99596555 7.38053903,7.08899639 L7.3899,7.0698 C7.5399,6.8398 7.8499,6.7698 8.0799,6.9198 Z M17.53,6.4998 C17.67,6.7398 17.6,7.0398 17.359,7.1898 C17.28,7.2298 17.189,7.2598 17.1,7.2598 C16.93,7.2598 16.769,7.1698 16.67,7.0098 C16.53,6.7798 16.609,6.4698 16.85,6.3298 C17.08,6.1898 17.39,6.2598 17.53,6.4998 Z M16.3997,6.3098 C16.5597,6.5298 16.5097,6.8498 16.2897,7.0098 C16.1997,7.0698 16.0997,7.0998 15.9997,7.0998 C15.8397,7.0998 15.6897,7.0298 15.5897,6.8898 C15.4297,6.6698 15.4797,6.3598 15.6997,6.1998 C15.9297,6.0398 16.2397,6.0898 16.3997,6.3098 Z M19.359,5.6898 C19.46,5.9498 19.34,6.2398 19.08,6.3398 C19.019,6.3598 18.96,6.3698 18.899,6.3698 C18.7,6.3698 18.51,6.2598 18.43,6.0598 C18.33,5.7998 18.46,5.5098 18.71,5.4098 C18.97,5.3098 19.26,5.4298 19.359,5.6898 Z M9.3499,5.3698 C9.5599,5.5498 9.5799,5.8698 9.3899,6.0798 C9.2899,6.1898 9.1599,6.2498 9.0199,6.2498 C8.8999,6.2498 8.7799,6.1998 8.6899,6.1198 C8.4799,5.9398 8.4599,5.6198 8.6399,5.4098 C8.8299,5.2098 9.1399,5.1898 9.3499,5.3698 Z M7.38,4.96 C7.65,5.02 7.82,5.28 7.76,5.55 C7.71,5.79 7.5,5.95 7.27,5.95 C7.24,5.95 7.2,5.95 7.17,5.94 C6.9,5.88 6.72,5.61 6.78,5.34 C6.84,5.07 7.11,4.9 7.38,4.96 Z M17.8697,4.9598 C18.0697,5.1498 18.0697,5.4698 17.8697,5.6598 C17.7697,5.7598 17.6497,5.8098 17.5197,5.8098 C17.3897,5.8098 17.2597,5.7598 17.1697,5.6598 C16.9697,5.4698 16.9697,5.1498 17.1697,4.9598 C17.3597,4.7598 17.6797,4.7598 17.8697,4.9598 Z M20.4411728,4.94919401 C20.6537309,5.20112685 20.8529956,5.46222908 21.0404851,5.73212687 L21.003155,5.75231029 C20.9766667,5.76387407 20.9488889,5.77313333 20.92,5.7798 C20.88,5.7898 20.84,5.7898 20.81,5.7898 C20.58,5.7898 20.37,5.6298 20.319,5.3998 C20.2825802,5.23313333 20.3334185,5.06646667 20.4411728,4.94919401 Z M10.8399,4.0398 C11.0199,4.2498 10.9899,4.5598 10.7699,4.7398 C10.6799,4.8198 10.5699,4.8498 10.4599,4.8498 C10.3099,4.8498 10.1699,4.7898 10.0699,4.6698 C9.8899,4.4598 9.9199,4.1498 10.1399,3.9698 C10.3499,3.7898 10.6599,3.8198 10.8399,4.0398 Z M13.8705,3.3198 C14.1295,3.4198 14.2595,3.7098 14.1605,3.9698 C14.0805,4.1598 13.8895,4.2898 13.6895,4.2898 C13.6295,4.2898 13.5695,4.2698 13.5095,4.2498 C13.2495,4.1498 13.1295,3.8598 13.2295,3.6098 C13.3195,3.3498 13.6095,3.2198 13.8705,3.3198 Z M8.04,3.08 C8.3,3.18 8.42,3.47 8.32,3.72 C8.24,3.92 8.06,4.04 7.86,4.04 C7.79,4.04 7.73,4.03 7.67,4 C7.41,3.9 7.29,3.61 7.39,3.35 C7.5,3.1 7.79,2.97 8.04,3.08 Z M12.5099,2.9298 C12.6489,3.1698 12.5799,3.4698 12.3399,3.6198 C12.2599,3.6698 12.1699,3.6898 12.0799,3.6898 C11.9099,3.6898 11.7499,3.6098 11.6499,3.4498 C11.5099,3.2198 11.5799,2.9098 11.8199,2.7698 C12.0499,2.6198 12.3589,2.6898 12.5099,2.9298 Z M14.8395,1.5698 C15.0805,1.7198 15.1495,2.0298 15.0095,2.2598 C14.9105,2.4198 14.7495,2.4998 14.5805,2.4998 C14.4919516,2.4998 14.4024352,2.48043996 14.3233795,2.42267209 C14.2800905,2.55285893 14.1835806,2.66563333 14.0499,2.7298 L14.0499,2.7198 C13.9899,2.7498 13.9199,2.7698 13.8499,2.7698 C13.6599,2.7698 13.4799,2.6498 13.3899,2.4698 C13.2799,2.2098 13.3989,1.9198 13.6489,1.8098 C13.8028039,1.74208228 13.9760359,1.75774073 14.1121356,1.84044382 C14.1221161,1.8066853 14.139073,1.77243722 14.1605,1.7398 C14.2995,1.4998 14.6095,1.4298 14.8395,1.5698 Z" id="Glyph"></path>
        </g>
    </g>
</svg>