<?xml version="1.0" encoding="UTF-8"?>
<svg width="106px" height="81px" viewBox="0 0 106 81" version="1.1" xmlns="http://www.w3.org/2000/svg" xmlns:xlink="http://www.w3.org/1999/xlink">
    <title>Messages-Collaboration-Thin-S</title>
    <g id="Page-1" stroke="none" stroke-width="1" fill="none" fill-rule="evenodd">
        <g id="Messages-Collaboration-Thin-S" transform="translate(0.688660, 0.611000)" fill-rule="nonzero">
            <path d="M15.84484,76.27021 C14.86824,76.27021 14.1296733,76.05657 13.62914,75.62929 C13.1286067,75.2020033 12.8986733,74.64654 12.93934,73.9629 C12.9800067,73.2792587 13.30554,72.5671453 13.91594,71.82656 C14.12754,71.55796 14.4165067,71.1794433 14.78284,70.69101 C15.9221067,69.2994167 16.9250733,68.0014033 17.79174,66.79697 C18.6584733,65.5925367 19.4132733,64.3840467 20.05614,63.1715 C16.0196733,61.2265 12.4938733,58.7627333 9.47874,55.7802 C6.46360667,52.7976 4.13004,49.4467667 2.47804,45.7277 C0.826013333,42.0085667 0,38.1185667 0,34.0577 C0,27.8809 1.87581333,22.1863 5.62744,16.9739 C9.37910667,11.7615 14.47354,7.6294 20.91074,4.5776 C27.34794,1.52586667 34.40364,0 42.07784,0 C49.7601733,0 56.81384,1.52586667 63.23884,4.5776 C69.66384,7.6294 74.75014,11.7615 78.49774,16.9739 C82.24534,22.1863 84.11914,27.8809 84.11914,34.0577 C84.11914,41.0237667 81.8812067,47.2330333 77.40534,52.6855 C72.92954,58.1379667 67.0214067,62.22531 59.68094,64.94753 C52.3404733,67.66975 44.6011733,68.6443533 36.46304,67.87134 C33.98904,69.4094867 31.4336733,70.8214967 28.79694,72.10737 C26.16014,73.3932453 23.6962733,74.408522 21.40534,75.1532 C19.1144067,75.8978733 17.2609067,76.27021 15.84484,76.27021 Z M17.51764,72.766262 C19.1045733,72.5301733 21.46054,71.6756093 24.58554,70.20257 C27.7104733,68.72953 30.86384,67.0490133 34.04564,65.16102 C34.4689067,64.8679933 34.9023067,64.6604333 35.34584,64.53834 C35.78944,64.4162467 36.2554067,64.3674067 36.74374,64.39182 L42.07784,64.68474 C49.0927733,64.68474 55.5461733,63.31146 61.43804,60.5649 C67.3299733,57.8183667 71.9950733,54.1013667 75.43334,49.4139 C78.8716067,44.7265 80.59074,39.6077667 80.59074,34.0577 C80.59074,28.5076333 78.8716067,23.3929667 75.43334,18.7137 C71.9950733,14.0343667 67.3299733,10.3275333 61.43804,7.5932 C55.5461733,4.85886667 49.0927733,3.4917 42.07784,3.4917 C35.0629067,3.4917 28.6095067,4.85886667 22.71764,7.5932 C16.8257733,10.3275333 12.1606733,14.0343667 8.72234,18.7137 C5.28407333,23.3929667 3.56494,28.5076333 3.56494,34.0577 C3.56494,37.7848333 4.34414,41.3248333 5.90254,44.6777 C7.46100667,48.0305 9.68877333,51.0618667 12.58584,53.7718 C15.4829733,56.4817333 18.9335067,58.7644333 22.93744,60.6199 C23.5723067,60.8966333 23.96094,61.2710333 24.10334,61.7431 C24.2458067,62.2151667 24.1501733,62.7564 23.81644,63.3668 C22.8561733,65.33618 20.9803733,67.9973233 18.18904,71.35023 L17.35894,72.35123 C17.2368733,72.48144 17.19414,72.5872353 17.23074,72.668616 C17.2674067,72.749996 17.36304,72.7825447 17.51764,72.766262 Z" id="Shape" fill="#000000"></path>
            <path d="M71.27744,79.93263 C69.2021733,79.93263 67.39544,79.52164 65.85724,78.69966 C64.3191067,77.87768 63.14314,76.7016833 62.32934,75.17167 C61.5154733,73.6416527 61.10854,71.8430693 61.10854,69.77592 L61.10854,35.4012 C61.10854,33.3340667 61.5236067,31.5375333 62.35374,30.0116 C63.1838067,28.4856667 64.3598067,27.3096667 65.88174,26.4836 C67.4036067,25.6575333 69.2021733,25.2445 71.27744,25.2445 L96.41234,25.2445 C99.48834,25.2445 101.60634,25.4744 102.76634,25.9342 C103.925673,26.394 104.62134,27.2260667 104.85334,28.4304 C105.08534,29.6347333 105.152673,31.8887667 105.05534,35.1925 C105.006007,37.4627667 104.97734,39.4889333 104.96934,41.271 L104.96934,69.77592 C104.96934,71.8430693 104.566673,73.6416527 103.76134,75.17167 C102.95534,76.7016833 101.79134,77.87768 100.26934,78.69966 C98.74734,79.52164 96.9406733,79.93263 94.84934,79.93263 L71.27744,79.93263 Z" id="Path" fill="#FFFFFF"></path>
            <path d="M71.27744,76.27021 C69.14524,76.27021 67.5277733,75.7168133 66.42504,74.61002 C65.3223067,73.50323 64.77094,71.8918633 64.77094,69.77592 L64.77094,35.4012 C64.77094,33.2934 65.3284067,31.6840667 66.44334,30.5732 C67.5582733,29.4623333 69.16964,28.9069 71.27744,28.9069 L81.10374,28.9069 L81.10374,45.3501 C81.10374,46.5464333 81.4252067,47.4742 82.06814,48.1334 C82.7110733,48.7926 83.6307067,49.1222 84.82704,49.1222 L101.30734,49.1222 L101.30734,69.77592 C101.30734,71.883722 100.762007,73.4930553 99.67134,74.60392 C98.5806733,75.71478 96.97334,76.27021 94.84934,76.27021 L71.27744,76.27021 Z M85.46184,46.3631 C84.9085067,46.3631 84.50164,46.2349333 84.24124,45.9786 C83.98084,45.7222667 83.85064,45.3174 83.85064,44.764 L83.85064,29.2121 C84.1355067,29.2609 84.43054,29.385 84.73574,29.5844 C85.04094,29.7838667 85.3604067,30.0504333 85.69414,30.3841 L99.79334,44.5562 C100.12734,44.8899333 100.400007,45.2114333 100.61134,45.5207 C100.822673,45.8299667 100.953007,46.1107667 101.00234,46.3631 L85.46184,46.3631 Z" id="Shape" fill="#000000"></path>
        </g>
    </g>
</svg>