<?xml version="1.0" encoding="UTF-8"?>
<svg xmlns="http://www.w3.org/2000/svg" xmlns:xlink="http://www.w3.org/1999/xlink" width="76px" height="74px" viewBox="0 0 76 74" version="1.1">
    <title>Shape</title>
    <g id="Page-1" stroke="none" stroke-width="1" fill="none" fill-rule="evenodd">
        <g id="portal-map" transform="translate(-9, -13)" fill="#000000" fill-rule="nonzero">
            <path d="M12.709,84.795 C13.432,84.795 14.141,84.489 14.98,84.038 L34.809,72.983 L55.408,85.299 C56.662,86.045 57.838,86.401 58.965,86.401 C60.064,86.401 61.199,86.059 62.393,85.354 L81.926,73.92 C83.524,72.975 84.238,71.93 84.238,69.899 L84.238,18.491 C84.238,16.399 83.092,15.217 81.281,15.217 C80.572,15.217 79.814,15.489 79.01,15.94 L58.908,26.965 L38.756,14.707 C37.492,13.954 36.195,13.577 34.934,13.577 C33.623,13.577 32.348,13.954 31.105,14.707 L12.078,26.071 C10.467,27.016 9.766,28.061 9.766,30.079 L9.766,81.487 C9.766,83.579 10.912,84.795 12.709,84.795 Z M33.453,69.903 L14.342,80.602 C14.147,80.7 13.951,80.762 13.77,80.762 C13.357,80.762 13.07,80.461 13.07,79.979 L13.07,30.795 C13.07,29.868 13.355,29.219 14.27,28.682 L32.227,17.895 C32.645,17.672 33.049,17.463 33.453,17.311 L33.453,69.903 Z M36.772,70.143 L36.772,17.584 C37.162,17.688 37.602,17.897 37.957,18.106 L57.232,29.895 L57.232,82.237 C56.787,82.071 56.307,81.848 55.896,81.612 L36.772,70.143 Z M60.537,82.504 L60.537,29.772 L79.662,19.376 C79.857,19.278 80.053,19.215 80.234,19.215 C80.633,19.215 80.92,19.516 80.92,19.999 L80.92,69.196 C80.92,70.124 80.648,70.772 79.734,71.309 L61.865,81.852 C61.42,82.102 60.961,82.338 60.537,82.504 L60.537,82.504 Z" id="Shape"/>
        </g>
    </g>
</svg>