<?xml version="1.0" encoding="iso-8859-1"?>
<!-- Generator: Adobe Illustrator 15.0.0, SVG Export Plug-In . SVG Version: 6.00 Build 0)  -->
<!DOCTYPE svg PUBLIC "-//W3C//DTD SVG 1.1//EN" "http://www.w3.org/Graphics/SVG/1.1/DTD/svg11.dtd">
<svg version="1.1" id="Layer_1" xmlns="http://www.w3.org/2000/svg" xmlns:xlink="http://www.w3.org/1999/xlink" x="0px" y="0px"
	 width="48px" height="48px" viewBox="0 0 48 48" style="enable-background:new 0 0 48 48;" xml:space="preserve">
<g style="display:none;">
	<defs>
		<rect id="SVGID_1_" width="48" height="48"/>
	</defs>
	<clipPath id="SVGID_2_" style="display:inline;">
		<use xlink:href="#SVGID_1_"  style="overflow:visible;"/>
	</clipPath>
	<path style="display:inline;clip-path:url(#SVGID_2_);fill:none;stroke:#000000;stroke-width:2;stroke-miterlimit:10;" d="
		M45,35.473C45,40.712,40.712,45,35.473,45H12.527c-5.24,0-9.528-4.288-9.528-9.527V12.528c0-5.241,4.288-9.529,9.528-9.529h22.946
		c5.239,0,9.527,4.288,9.527,9.529V35.473z"/>
</g>
<g id="Product">
	<path d="M24,45.898c-10.933,0-22-2.404-22-7v-6h2v6c0,2.039,7.791,5,20,5s20-2.961,20-5v-6h2v6C46,43.494,34.934,45.898,24,45.898"
		/>
	<path d="M24,39.898c-10.933,0-22-2.404-22-7s11.067-7,22-7c10.934,0,22,2.404,22,7S34.934,39.898,24,39.898 M24,27.898
		c-12.209,0-20,2.961-20,5s7.791,5,20,5s20-2.961,20-5S36.209,27.898,24,27.898"/>
</g>
<g id="wireless">
	<path style="fill:none;stroke:#000000;stroke-width:2;stroke-linecap:round;stroke-miterlimit:10;" d="M12.848,6.317
		c3.243-1.998,7.062-3.152,11.151-3.152c4.088,0,7.909,1.154,11.152,3.152"/>
	<path style="fill:none;stroke:#000000;stroke-width:2;stroke-linecap:round;stroke-miterlimit:10;" d="M15.915,11.338
		c2.371-1.395,5.134-2.195,8.083-2.195c2.95,0,5.714,0.802,8.083,2.195"/>
	<path style="fill:none;stroke:#000000;stroke-width:2;stroke-linecap:round;stroke-miterlimit:10;" d="M18.927,16.522
		c1.508-0.816,3.234-1.281,5.071-1.281c1.81,0,3.511,0.451,5.001,1.246"/>
</g>
</svg>
