<?xml version="1.0" encoding="UTF-8"?>
<svg width="81px" height="71px" viewBox="0 0 81 71" version="1.1" xmlns="http://www.w3.org/2000/svg" xmlns:xlink="http://www.w3.org/1999/xlink">
    <title>Light-S</title>
    <g id="Page-1" stroke="none" stroke-width="1" fill="none" fill-rule="evenodd">
        <g id="custom.antenna.radiowaves.left.and.right" transform="translate(-1113.000000, -625.000000)" fill="#000000" stroke="#000000" stroke-width="0.5">
            <g id="Symbols" transform="translate(501.512800, 622.567637)">
                <g id="Light-S" transform="translate(611.843140, 2.798740)">
                    <path d="M0,26.6986236 C0,36.5301236 3.60646,45.5838236 9.94236,52.3577236 C11.24266,53.7591236 13.13916,53.7591236 14.22216,52.5262236 C15.27146,51.2933236 14.95656,49.6966236 13.72366,48.3289236 C8.47066,42.6043236 5.49416,35.0462236 5.49416,26.6986236 C5.49416,18.3694236 8.47066,10.8114236 13.72366,5.08672362 C14.95656,3.70052362 15.27146,2.12242362 14.22216,0.904623619 C13.13916,-0.328276381 11.24266,-0.328276381 9.94236,1.07312362 C3.60646,7.83182362 0,16.8855236 0,26.6986236 Z M15.83106,26.6986236 C15.83106,32.2752236 17.76566,37.4309236 21.11286,41.4857236 C22.32716,42.9881236 24.34326,42.9544236 25.45996,41.6878236 C26.50926,40.4886236 26.07476,38.9593236 25.01026,37.5393236 C22.55076,34.6770236 21.32526,30.8436236 21.32526,26.6986236 C21.32526,22.5721236 22.67186,18.9085236 25.01026,15.8914236 C26.05956,14.4563236 26.50926,12.9271236 25.45996,11.7430236 C24.34326,10.4612236 22.32716,10.4275236 21.11286,11.9451236 C17.76566,15.9846236 15.83106,21.1556236 15.83106,26.6986236 Z M33.32376,26.6986236 C33.32376,29.3861236 34.87116,31.6307236 37.17626,32.6092236 L37.17626,67.4612636 C37.17626,69.1741536 38.24076,70.3733736 39.75486,70.3733736 C41.38526,70.3733736 42.36716,69.2078436 42.36716,67.4612636 L42.36716,32.6092236 C44.62016,31.6307236 46.23486,29.3523236 46.23486,26.6986236 C46.23486,23.0965236 43.40576,20.2185236 39.75486,20.2185236 C36.15286,20.2185236 33.32376,23.0965236 33.32376,26.6986236 Z M54.08356,41.6878236 C55.21536,42.9544236 57.23146,42.9881236 58.39696,41.4857236 C61.77786,37.4309236 63.72756,32.2752236 63.72756,26.6986236 C63.72756,21.1556236 61.77786,15.9846236 58.39696,11.9451236 C57.23146,10.4275236 55.21536,10.4612236 54.08356,11.7430236 C53.01566,12.9271236 53.49896,14.4563236 54.54836,15.8914236 C56.87156,18.9085236 58.23336,22.5721236 58.23336,26.6986236 C58.23336,30.8436236 57.00786,34.6770236 54.54836,37.5393236 C53.46876,38.9593236 53.01566,40.4886236 54.08356,41.6878236 Z M65.32136,52.5262236 C66.41946,53.7591236 68.30076,53.7591236 69.61626,52.3577236 C75.91846,45.5838236 79.55866,36.5301236 79.55866,26.6986236 C79.55866,16.8855236 75.91846,7.83182362 69.61626,1.07312362 C68.30076,-0.328276381 66.41946,-0.328276381 65.32136,0.904623619 C64.25346,2.12242362 64.60206,3.70052362 65.81986,5.08672362 C71.08786,10.8114236 74.06446,18.3694236 74.06446,26.6986236 C74.06446,35.0462236 71.08786,42.6043236 65.81986,48.3289236 C64.60206,49.6966236 64.25346,51.2933236 65.32136,52.5262236 Z" id="Shape"></path>
                </g>
            </g>
        </g>
    </g>
</svg>