<?xml version="1.0" encoding="UTF-8"?>
<svg width="24px" height="14px" viewBox="0 0 24 14" version="1.1" xmlns="http://www.w3.org/2000/svg" xmlns:xlink="http://www.w3.org/1999/xlink">
    <!-- Generator: Sketch 62 (91390) - https://sketch.com -->
    <title>Xcode_ GroupActivities-portal</title>
    <desc>Created with Sketch.</desc>
    <g id="Page-1" stroke="none" stroke-width="1" fill="none" fill-rule="evenodd">
        <g id="Xcode_-GroupActivities" fill="#000000" fill-rule="nonzero">
            <path d="M12.0027728,8.6593007 C12.7421893,8.6593007 13.4067399,8.7720618 13.9964246,8.9975838 C14.5861092,9.2231058 15.0889125,9.5151754 15.5048343,9.8737924 C15.920756,10.2324094 16.2387051,10.6150574 16.4586815,11.0217365 C16.678658,11.4284156 16.7886462,11.8129122 16.7886462,12.1752262 C16.7886462,12.6928178 16.4327732,12.9688666 15.7210273,13.0033727 L15.5630633,13.0070698 L8.44248232,13.0070698 C7.62173,13.0070698 7.21135384,12.7297886 7.21135384,12.1752262 C7.21135384,11.8129122 7.32134204,11.4284156 7.54131845,11.0217365 C7.76129486,10.6150574 8.07831969,10.2324094 8.49239294,9.8737924 C8.90646618,9.5151754 9.40834514,9.2231058 9.9980298,8.9975838 C10.5034738,8.8042792 11.0666376,8.6938194 11.6875211,8.6662045 L12.0027728,8.6593007 Z M12.0027728,9.6593007 C11.3732971,9.6593007 10.8256048,9.7517191 10.3552424,9.9316069 C9.87068363,10.1169241 9.46971091,10.350271 9.14706649,10.6297041 C8.82066643,10.9123899 8.58074275,11.201977 8.42088933,11.4975044 C8.3337307,11.658638 8.27572965,11.8039758 8.24327419,11.9343139 L8.231,11.997 L8.33714936,12.0050039 L8.44248232,12.0070698 L15.5396651,12.0073436 L15.7127579,12.0022424 L15.768,11.997 L15.7567258,11.9343139 C15.7350888,11.8474218 15.7020983,11.7538632 15.6566839,11.6534022 L15.5791107,11.4975044 C15.41967,11.2027402 15.1794198,10.9136018 14.851828,10.6311449 C14.5268621,10.3509521 14.1243787,10.1171566 13.639212,9.9316069 C13.1685187,9.7515926 12.6246022,9.6593007 12.0027728,9.6593007 Z M12.0027728,2.803122 C12.4353315,2.803122 12.8290708,2.91403448 13.1839907,3.13585943 C13.5389106,3.35768438 13.8217374,3.65714807 14.0324711,4.03425049 C14.2432048,4.41135291 14.3485717,4.83282032 14.3485717,5.2986527 C14.3485717,5.7718793 14.2432048,6.2016651 14.0324711,6.5880103 C13.8217374,6.9743554 13.5389106,7.2830618 13.1839907,7.5141294 C12.8797736,7.7121874 12.5470362,7.8253634 12.1857784,7.8536574 L12.0027728,7.8607309 C11.5702142,7.8607309 11.1773991,7.7461214 10.8243278,7.5169022 C10.4712564,7.2876831 10.1902781,6.9789767 9.98139293,6.5907831 C9.77250777,6.2025894 9.66621664,5.7737278 9.66251956,5.3041983 C9.66251956,4.8457601 9.76788641,4.42706551 9.97862012,4.04811455 C10.1893538,3.66916359 10.4721806,3.36692709 10.8271006,3.14140505 C11.1313176,2.94810045 11.462697,2.83764068 11.8212385,2.81002574 L12.0027728,2.803122 Z M12.0027728,3.803122 C11.7628838,3.803122 11.5571554,3.86231745 11.363407,3.98542837 C11.1502493,4.12087235 10.9829806,4.29962023 10.8525762,4.53411941 C10.7257449,4.76219327 10.6625196,5.0134308 10.6624886,5.2963246 C10.6649248,5.605726 10.7315327,5.8744745 10.8619986,6.1169333 C10.9922233,6.3589437 11.1584204,6.5415419 11.368853,6.6781578 C11.5586246,6.8013603 11.7621127,6.8607309 12.0027728,6.8607309 C12.2426948,6.8607309 12.4467338,6.8008603 12.6383888,6.6760849 C12.8530871,6.5363074 13.0223706,6.3515339 13.1545756,6.1091581 C13.2836111,5.8725929 13.3485717,5.6076222 13.3485717,5.2986527 C13.3485717,5.0003619 13.285238,4.74702723 13.1595276,4.52207184 C13.0302836,4.29079298 12.8648872,4.11566737 12.6539917,3.98385773 C12.4594142,3.86224674 12.2495213,3.803122 12.0027728,3.803122 Z" id="Combined-Shape"></path>
            <path d="M12,0.0362215 C18.3522576,0.0362215 23.484333,5.6097849 23.484333,12.4654844 C23.484333,12.7416268 23.2604754,12.9654844 22.984333,12.9654844 C22.7081907,12.9654844 22.484333,12.7416268 22.484333,12.4654844 C22.484333,6.1444839 17.7807016,1.0362215 12,1.0362215 C6.21929837,1.0362215 1.51566696,6.1444839 1.51566696,12.4654844 C1.51566696,12.7416268 1.29180934,12.9654844 1.01566696,12.9654844 C0.739524587,12.9654844 0.515666962,12.7416268 0.515666962,12.4654844 C0.515666962,5.6097849 5.64774239,0.0362215 12,0.0362215 Z M19.8297582,12.4654844 C19.8297582,12.7416268 19.6059006,12.9654844 19.3297582,12.9654844 C19.0536158,12.9654844 18.8297582,12.7416268 18.8297582,12.4654844 C18.8297582,9.6472753 17.4007674,7.2006857 15.2971686,5.9313176 C15.3317833,5.726392 15.3485717,5.5149917 15.3485717,5.2986527 C15.3485717,5.1290991 15.3380086,4.96268235 15.316864,4.79972062 C17.9861711,6.1492283 19.8297582,9.0787176 19.8297582,12.4654844 Z M8.66251956,5.3041983 C8.66418254,5.5167088 8.68151056,5.723824 8.71451639,5.9253037 C6.60511643,7.1906238 5.17024182,9.6414792 5.17024182,12.4654844 C5.17024182,12.7416268 4.9463842,12.9654844 4.67024182,12.9654844 C4.39409945,12.9654844 4.17024182,12.7416268 4.17024182,12.4654844 C4.17024182,9.0723982 6.02071524,6.1382976 8.69808377,4.79137938 C8.67390138,4.95944316 8.66251956,5.1302792 8.66251956,5.3041983 Z" id="Combined-Shape"></path>
        </g>
    </g>
</svg>