<?xml version="1.0" encoding="iso-8859-1"?>
<!-- Generator: Adobe Illustrator 24.0.0, SVG Export Plug-In . SVG Version: 6.00 Build 0)  -->
<svg version="1.1" id="Layer_1" xmlns="http://www.w3.org/2000/svg" xmlns:xlink="http://www.w3.org/1999/xlink" x="0px" y="0px"
	 viewBox="0 0 24 24" style="enable-background:new 0 0 24 24;" xml:space="preserve">
<g>
	<defs>
		<path id="SVGID_1_" d="M14.5,7C13.151,7,12,8.316,12,10s1.151,3,2.5,3s2.5-1.316,2.5-3S15.849,7,14.5,7z M14.5,6
			c1.933,0,3.5,1.791,3.5,4c0,2.138-1.468,3.884-3.314,3.994L14.5,14c-1.933,0-3.5-1.791-3.5-4c0-2.138,1.468-3.884,3.314-3.994
			L14.5,6z M14.5,16c-0.848,0-1.665,0.11-2.405,0.316l-0.185,0.055l0.005,0.036c0.009,0.103,0.016,0.206,0.021,0.31l0.007,0.312
			c0,0.771-0.128,1.526-0.373,2.241l-0.07,0.185l0.039,0.015c0.833,0.31,1.714,0.487,2.62,0.523L14.5,20
			c2.134,0,3.795-0.555,5.288-1.854l-0.098-0.1c-0.749-1.134-2.667-1.976-4.908-2.042L14.5,16z M6.023,10.866L6.008,11.12
			c-0.324-0.06-0.657-0.093-0.996-0.098c0.243-4.935,4.254-8.88,9.216-9.019L14.5,2c5.247,0,9.5,4.253,9.5,9.5
			c0,5.156-4.108,9.353-9.23,9.496L14.5,21c-1.561,0-3.034-0.376-4.333-1.043c0.494-0.868,0.775-1.868,0.775-2.928
			c0-0.451-0.051-0.891-0.147-1.315c0.955-0.409,2.097-0.664,3.332-0.707L14.5,15c2.725,0,5.058,1.032,6.024,2.495
			C22.175,15.13,23,13.132,23,11.5C23,6.806,19.194,3,14.5,3C10.019,3,6.348,6.468,6.023,10.866z M4.862,15.733
			c0.743,0,1.346,0.603,1.346,1.346s-0.603,1.346-1.346,1.346c-0.743,0-1.346-0.603-1.346-1.346S4.119,15.733,4.862,15.733z
			 M5.302,13.579H4.423c-0.122,0-0.229,0.082-0.26,0.2l-0.204,0.763c-0.086,0.031-0.17,0.065-0.252,0.104l-0.684-0.396
			c-0.106-0.061-0.239-0.044-0.325,0.043l-0.621,0.621c-0.086,0.086-0.104,0.22-0.043,0.325l0.396,0.684
			c-0.039,0.082-0.074,0.166-0.104,0.252L1.562,16.38c-0.118,0.031-0.2,0.138-0.2,0.26v0.879c0,0.122,0.082,0.229,0.2,0.26
			l0.763,0.204c0.031,0.086,0.065,0.17,0.104,0.252l-0.396,0.684c-0.061,0.106-0.044,0.239,0.043,0.325l0.621,0.621
			c0.086,0.086,0.22,0.104,0.325,0.043l0.684-0.396c0.082,0.039,0.166,0.074,0.252,0.104l0.204,0.763
			c0.031,0.118,0.138,0.2,0.26,0.2h0.879c0.122,0,0.229-0.082,0.26-0.2l0.204-0.763c0.086-0.031,0.17-0.065,0.252-0.104l0.684,0.396
			c0.106,0.061,0.239,0.044,0.325-0.043l0.621-0.621c0.086-0.086,0.104-0.22,0.043-0.325l-0.396-0.684
			c0.039-0.082,0.074-0.166,0.104-0.252l0.763-0.204c0.118-0.031,0.2-0.138,0.2-0.26V16.64c0-0.122-0.082-0.229-0.2-0.26
			l-0.763-0.204c-0.031-0.086-0.065-0.17-0.104-0.252L7.69,15.24c0.061-0.106,0.044-0.239-0.043-0.325l-0.621-0.621
			c-0.086-0.086-0.22-0.104-0.325-0.043l-0.684,0.396c-0.082-0.039-0.166-0.074-0.252-0.104l-0.204-0.763
			C5.53,13.661,5.424,13.579,5.302,13.579z M4.938,12.164c2.666,0,4.863,2.197,4.863,4.863c0,2.594-2.08,4.735-4.648,4.849
			l-0.215,0.005c-2.656,0-4.854-2.188-4.854-4.854c0-2.594,2.08-4.744,4.639-4.859L4.938,12.164z"/>
	</defs>
	<use xlink:href="#SVGID_1_"  style="overflow:visible;fill-rule:evenodd;clip-rule:evenodd;"/>
	<clipPath id="SVGID_2_">
		<use xlink:href="#SVGID_1_"  style="overflow:visible;"/>
	</clipPath>
	<rect x="-4.916" y="-3" style="clip-path:url(#SVGID_2_);" width="33.916" height="29.881"/>
</g>
</svg>
