<?xml version="1.0" encoding="UTF-8"?>
<svg width="111px" height="77px" viewBox="0 0 111 77" version="1.1" xmlns="http://www.w3.org/2000/svg" xmlns:xlink="http://www.w3.org/1999/xlink">
    <title>@2xLight-S</title>
    <g id="Page-2" stroke="none" stroke-width="1" fill="none" fill-rule="evenodd">
        <g id="Desktop-HD" transform="translate(-173.000000, -97.000000)" fill="#000000" fill-rule="nonzero">
            <g id="Light-S" transform="translate(173.000000, 97.000000)">
                <path d="M15.93547,76.93228 L57.46767,76.93228 C61.11027,76.93228 64.3911033,76.09737 67.31017,74.42755 C70.2293033,72.75773 72.55067,70.49778 74.27427,67.6477 C75.9979367,64.7976333 76.85977,61.6041 76.85977,58.0671 C76.85977,54.5423 75.98477,51.3874 74.23477,48.6024 C72.48477,45.8174667 70.10447,43.6089 67.09387,41.9767 C64.0833367,40.3445 60.68157,39.5008667 56.88857,39.4458 C54.6526367,35.2365333 51.64887,31.9115333 47.87727,29.4708 C44.1056033,27.0300667 39.8317033,25.8097 35.05557,25.8097 C30.8597033,25.8097 27.0005367,26.7944 23.47807,28.7638 C19.9556033,30.7332 17.0659367,33.4080667 14.80907,36.7884 C12.5522033,40.1687333 11.22227,43.9535333 10.81927,48.1428 C7.63931667,49.0812 5.04111667,50.8264667 3.02467,53.3786 C1.00822333,55.9306667 8.8817842e-16,58.9420667 8.8817842e-16,62.4128 C8.8817842e-16,65.2158 0.662016667,67.7087 1.98605,69.8915 C3.31009,72.0742667 5.16679667,73.7934233 7.55617,75.04897 C9.94550333,76.30451 12.7386033,76.93228 15.93547,76.93228 Z M15.81597,71.56602 C12.4107033,71.56602 9.82027,70.69258 8.04467,68.9457 C6.26906333,67.1988333 5.38126,65.0661333 5.38126,62.5476 C5.38126,60.3915333 6.06193,58.4453333 7.42327,56.709 C8.78460333,54.9727333 10.88407,53.7212667 13.72167,52.9546 C14.56927,52.7245333 15.1724367,52.3939333 15.53117,51.9628 C15.8899033,51.5316667 16.1030033,50.8899333 16.17047,50.0376 C16.45327,46.4087333 17.4752033,43.1727333 19.23627,40.3296 C20.99727,37.4864667 23.2550033,35.2500333 26.00947,33.6203 C28.7639367,31.9906333 31.7793033,31.1758 35.05557,31.1758 C38.9401033,31.1758 42.3429033,32.2064 45.26397,34.2676 C48.18497,36.3288 50.54567,39.1385667 52.34607,42.6969 C52.72107,43.4569667 53.1592367,43.9882667 53.66057,44.2908 C54.1619033,44.5933333 54.8639033,44.7446 55.76657,44.7446 C59.0241033,44.7446 61.82637,45.3521333 64.17337,46.5672 C66.52037,47.7822 68.3246367,49.4181 69.58617,51.4749 C70.84777,53.5317 71.47857,55.7841 71.47857,58.2321 C71.47857,60.6923667 70.8640367,62.9284333 69.63497,64.9403 C68.40597,66.9521667 66.7429033,68.5594167 64.64577,69.76205 C62.5486367,70.9646967 60.1784033,71.56602 57.53507,71.56602 L15.81597,71.56602 Z M71.35697,25.5895 C73.93737,25.5895 76.2635367,26.2045667 78.33547,27.4347 C80.4073367,28.6647667 82.0558367,30.3214 83.28097,32.4046 C84.5060367,34.4877333 85.11857,36.8195333 85.11857,39.4 C85.11857,42.527 84.1963033,45.3233667 82.35177,47.7891 C80.5072367,50.2548333 78.1338033,51.9462333 75.23147,52.8633 L75.30717,57.9717 C78.1538367,57.3129 80.68817,56.0852 82.91017,54.2886 C85.13217,52.4920667 86.88467,50.3063 88.16767,47.7313 C89.45067,45.1563 90.09217,42.3792 90.09217,39.4 C90.09217,35.9325333 89.2497367,32.7774 87.56487,29.9346 C85.8799367,27.0918 83.62427,24.8279667 80.79787,23.1431 C77.9714033,21.4583 74.8244367,20.6159 71.35697,20.6159 C67.8895033,20.6159 64.7400033,21.4583 61.90847,23.1431 C59.0769367,24.8279667 56.8243033,27.0918 55.15057,29.9346 C53.4768367,32.7774 52.63997,35.9325333 52.63997,39.4 C52.63997,39.5897333 52.6456367,39.7851333 52.65697,39.9862 C52.6682367,40.1872667 52.6850367,40.3826667 52.70737,40.5724 L57.78227,41.0406 C57.7373367,40.7734 57.6980033,40.5056 57.66427,40.2372 C57.6305367,39.9688 57.61367,39.6897333 57.61367,39.4 C57.61367,36.8195333 58.2206033,34.4877333 59.43447,32.4046 C60.6484033,30.3214 62.29697,28.6647667 64.38017,27.4347 C66.4633033,26.2045667 68.7889033,25.5895 71.35697,25.5895 Z M49.76167,21.7242 C50.29627,22.2688 50.95517,22.5355 51.73837,22.5243 C52.52157,22.5131 53.17417,22.2464 53.69617,21.7242 C54.21837,21.1896667 54.48507,20.5420333 54.49627,19.7813 C54.50747,19.0205 54.24077,18.3678333 53.69617,17.8233 L47.42537,11.5524 C46.89317,11.0200667 46.24357,10.7564333 45.47657,10.7614283 C44.7095033,10.7666333 44.06497,11.0302667 43.54297,11.5524 C42.9984367,12.097 42.72617,12.7527667 42.72617,13.5197 C42.72617,14.2866333 42.9984367,14.9423667 43.54297,15.4869 L49.76167,21.7242 Z M71.37197,14.3512 C72.13897,14.3512 72.7973033,14.0732667 73.34697,13.5174 C73.8966367,12.9615333 74.17147,12.3164667 74.17147,11.5822 L74.17147,2.7842 C74.17147,2.0174 73.8966367,1.36166667 73.34697,0.817 C72.7973033,0.272333333 72.13897,0 71.37197,0 C70.6051033,0 69.94687,0.272333333 69.39727,0.817 C68.8476033,1.36166667 68.57277,2.0174 68.57277,2.7842 L68.57277,11.5822 C68.57277,12.3164667 68.8476033,12.9615333 69.39727,13.5174 C69.94687,14.0732667 70.6051033,14.3512 71.37197,14.3512 Z M89.04777,21.7242 C89.56997,22.2464 90.2257367,22.5131 91.01507,22.5243 C91.80447,22.5355 92.47147,22.2688 93.01607,21.7242 L99.21957,15.4869 C99.7742367,14.9423667 100.04357,14.2866333 100.02757,13.5197 C100.010903,12.7527667 99.74157,12.097 99.21957,11.5524 C98.6749033,11.0302667 98.0272367,10.7666333 97.27657,10.7614283 C96.52617,10.7564333 95.8736033,11.0200667 95.31887,11.5524 L89.04777,17.8233 C88.5257033,18.3678333 88.26467,19.0205 88.26467,19.7813 C88.26467,20.5420333 88.5257033,21.1896667 89.04777,21.7242 Z M99.12557,42.1842 L107.93857,42.1842 C108.715903,42.1842 109.371237,41.9119333 109.90457,41.3674 C110.437903,40.8228 110.70457,40.167 110.70457,39.4 C110.70457,38.633 110.437903,37.9797333 109.90457,37.4402 C109.371237,36.9007333 108.715903,36.631 107.93857,36.631 L99.12557,36.631 C98.38157,36.631 97.7342367,36.9007333 97.18357,37.4402 C96.6322367,37.9797333 96.35657,38.633 96.35657,39.4 C96.35657,40.167 96.6322367,40.8228 97.18357,41.3674 C97.7342367,41.9119333 98.38157,42.1842 99.12557,42.1842 Z M95.31887,67.278 C95.8736033,67.8326 96.52617,68.1017667 97.27657,68.0855 C98.0272367,68.0692333 98.6749033,67.7888 99.21957,67.2442 C99.74157,66.722 100.010903,66.0774667 100.02757,65.3106 C100.04357,64.5436667 99.7742367,63.8991667 99.21957,63.3771 L92.94867,57.1246 C92.40407,56.6126 91.7539033,56.3509667 90.99817,56.3397 C90.2424367,56.3283667 89.5923033,56.59 89.04777,57.1246 C88.5257033,57.6468 88.26467,58.2995 88.26467,59.0827 C88.26467,59.8659 88.5257033,60.5185 89.04777,61.0405 L95.31887,67.278 Z" id="Shape"></path>
            </g>
        </g>
    </g>
</svg>