<?xml version="1.0" encoding="UTF-8"?>
<svg width="82px" height="90px" viewBox="0 0 82 90" version="1.1" xmlns="http://www.w3.org/2000/svg" xmlns:xlink="http://www.w3.org/1999/xlink">
    <title>Light-S</title>
    <g id="ExportsFromSFSymbolsPasteBoard" stroke="none" stroke-width="1" fill="none" fill-rule="evenodd">
        <g id="memorychip" transform="translate(-1112.000000, -2819.000000)" fill="#000000" fill-rule="nonzero">
            <g id="Symbols" transform="translate(0.000000, 625.539100)">
                <g id="person.spatialaudio.fill" transform="translate(0.000000, 1577.460900)">
                    <g id="Symbols" transform="translate(501.865470, 615.022060)">
                        <g id="Light-S" transform="translate(610.906190, 1.548975)">
                            <path d="M16.9014402,88.6623746 L63.7354402,88.6623746 C67.2750402,88.6623746 69.4337402,86.9162746 69.4337402,84.1682346 C69.4337402,75.2444046 58.2637402,62.9177646 40.3184402,62.9177646 C22.3917402,62.9177646 11.2369402,75.2444046 11.2369402,84.1682346 C11.2369402,86.9162746 13.3770402,88.6623746 16.9014402,88.6623746 Z M40.3487402,56.7014646 C47.8311402,56.7014646 54.1656402,50.0725646 54.1656402,41.4230646 C54.1656402,32.9587646 47.7520402,26.5573646 40.3487402,26.5573646 C32.9454402,26.5573646 26.5201402,33.0935646 26.5502342,41.4904646 C26.5502342,50.0725646 32.9000402,56.7014646 40.3487402,56.7014646 Z M0.362840182,52.2414646 C0.992740182,52.9538646 2.01664018,53.4372646 3.19054018,53.4372646 C6.89514018,53.4372646 9.85844018,48.6350646 9.85844018,41.4904646 C9.85844018,34.2819646 6.89514018,29.4948646 3.19054018,29.4948646 C2.01664018,29.4948646 0.992740182,30.0119646 0.362840182,30.7092646 C-0.480879818,31.6540646 0.302340182,32.7487646 1.13094018,32.5129646 C1.57724018,32.3293646 1.82474018,32.2619646 2.18514018,32.2619646 C4.71734018,32.2619646 6.61824018,36.4157646 6.61824018,41.4904646 C6.61824018,46.5651646 4.71734018,50.7038646 2.18514018,50.7038646 C1.82474018,50.7038646 1.57724018,50.6364646 1.13094018,50.4528646 C0.302340182,50.2170646 -0.480879818,51.3117646 0.362840182,52.2414646 Z M4.47514018,57.6159646 C5.08654018,59.0105646 6.76034018,60.0647646 8.58754018,60.0647646 C14.8785402,60.0647646 18.8975402,52.3742646 18.8975402,41.4904646 C18.8975402,30.5578646 14.8785402,22.9011646 8.58754018,22.9011646 C6.76034018,22.9011646 5.08654018,23.9216646 4.47514018,25.3347646 C4.16364018,26.1262646 5.00744018,26.9211646 5.73494018,26.6062646 C6.39514018,26.3737646 6.70324018,26.2272646 7.74714018,26.2272646 C12.0489402,26.2272646 15.0123402,33.2570646 15.0123402,41.4904646 C15.0123402,49.7087646 12.0489402,56.6897646 7.74714018,56.6897646 C6.70324018,56.6897646 6.39514018,56.5734646 5.73494018,56.3259646 C5.00744018,56.0446646 4.16364018,56.8244646 4.47514018,57.6159646 Z M80.3682402,52.2414646 C81.1969402,51.3117646 80.4288402,50.2170646 79.5850402,50.4528646 C79.1387402,50.6364646 78.8575402,50.7038646 78.4971402,50.7038646 C75.9986402,50.7038646 74.0977402,46.5651646 74.0977402,41.4904646 C74.0977402,36.4157646 75.9986402,32.2619646 78.4971402,32.2619646 C78.8575402,32.2619646 79.1387402,32.3293646 79.5850402,32.5129646 C80.4288402,32.7487646 81.1969402,31.6540646 80.3682402,30.7092646 C79.6895402,30.0119646 78.6993402,29.4948646 77.5255402,29.4948646 C73.8209402,29.4948646 70.8575402,34.2819646 70.8575402,41.4904646 C70.8575402,48.6350646 73.8209402,53.4372646 77.5255402,53.4372646 C78.6993402,53.4372646 79.6895402,52.9538646 80.3682402,52.2414646 Z M76.2408402,57.6159646 C76.5523402,56.8244646 75.6900402,56.0446646 74.9810402,56.3259646 C74.2872402,56.5734646 73.9791402,56.6897646 72.9351402,56.6897646 C68.6671402,56.6897646 65.7037402,49.7087646 65.7037402,41.4904646 C65.7037402,33.2570646 68.6671402,26.2272646 72.9351402,26.2272646 C73.9791402,26.2272646 74.2872402,26.3737646 74.9810402,26.6062646 C75.6900402,26.9211646 76.5523402,26.1262646 76.2408402,25.3347646 C75.6109402,23.9216646 73.9556402,22.9011646 72.1285402,22.9011646 C65.8375402,22.9011646 61.8184402,30.5578646 61.8184402,41.4904646 C61.8184402,52.3742646 65.8375402,60.0647646 72.1285402,60.0647646 C73.9556402,60.0647646 75.6109402,59.0105646 76.2408402,57.6159646 Z M51.1148402,0.351364586 C50.1851402,-0.458735414 49.0752402,0.275664586 49.3599402,1.10426459 C49.5098402,1.56566459 49.5772402,1.83176459 49.5772402,2.19216459 C49.5772402,4.69066459 45.4234402,6.64036459 40.3487402,6.64036459 C35.2740402,6.64036459 31.1202402,4.69066459 31.1202402,2.19216459 C31.1202402,1.83176459 31.1876402,1.56566459 31.3711402,1.10426459 C31.6407402,0.275664586 30.5460402,-0.458735414 29.5674402,0.351364586 C28.8702402,1.03346459 28.3868402,2.00516459 28.3868402,3.16386459 C28.3868402,6.86846459 33.1739402,9.83176459 40.3487402,9.83176459 C47.5421402,9.83176459 52.3443402,6.86846459 52.3443402,3.16386459 C52.3443402,2.00516459 51.8458402,1.03346459 51.1148402,0.351364586 Z M56.4893402,4.46366459 C55.7315402,4.13696459 54.9180402,5.01436459 55.2027402,5.70826459 C55.4503402,6.40206459 55.5967402,6.74386459 55.5967402,7.76926459 C55.5967402,12.0222646 48.5821402,14.9855646 40.3487402,14.9855646 C32.1153402,14.9855646 25.1192402,12.0222646 25.1192402,7.76926459 C25.1192402,6.74386459 25.2657402,6.40206459 25.5132402,5.70826459 C25.7794402,5.01436459 24.9844402,4.13696459 24.2266402,4.46366459 C22.8135402,5.09346459 21.7930402,6.73366459 21.7930402,8.57596459 C21.7930402,14.8854646 29.4498402,18.8708646 40.3487402,18.8708646 C51.2662402,18.8708646 58.9229402,14.8854646 58.9229402,8.57596459 C58.9229402,6.73366459 57.9175402,5.09346459 56.4893402,4.46366459 Z" id="Shape"></path>
                        </g>
                    </g>
                </g>
            </g>
        </g>
    </g>
</svg>