<?xml version="1.0" encoding="UTF-8"?>
<svg xmlns="http://www.w3.org/2000/svg" xmlns:xlink="http://www.w3.org/1999/xlink" width="83px" height="77px" viewBox="0 0 83 77" version="1.1">
    <title>Group</title>
    <g id="Page-1" stroke="none" stroke-width="1" fill="none" fill-rule="evenodd">
        <g id="portal-text.bubble" transform="translate(-9, -13.77)" fill="#000000" fill-rule="nonzero">
            <g id="Group" transform="translate(9.766, 14.543)">
                <path d="M20.363,75.528 C21.422,75.528 22.183,74.967 23.273,74.016 L36.992,62.192 L66.797,62.192 C76.136,62.192 81.767,56.436 81.767,47.221 L81.767,14.971 C81.767,5.756 76.136,-3.55271368e-15 66.797,-3.55271368e-15 L14.97,-3.55271368e-15 C5.631,-3.55271368e-15 -1.77635684e-15,5.686 -1.77635684e-15,14.971 L-1.77635684e-15,47.221 C-1.77635684e-15,56.506 5.631,62.192 14.97,62.192 L18.039,62.192 L18.039,72.858 C18.039,74.504 18.939,75.528 20.363,75.528 Z M21.15,71.844 L21.15,60.471 C21.15,59.344 20.693,58.887 19.566,58.887 L15.041,58.887 C7.636,58.887 3.304,54.424 3.304,47.151 L3.304,15.042 C3.304,7.747 7.636,3.319 15.041,3.319 L66.726,3.319 C73.99,3.319 78.463,7.747 78.463,15.042 L78.463,47.151 C78.463,54.424 73.99,58.887 66.726,58.887 L37.199,58.887 C35.875,58.887 35.181,59.123 34.111,60.116 L21.15,71.844 Z" id="Shape"/>
                <path d="M19.924,19.467 L60.009,19.467 C60.779,19.467 61.375,18.85 61.375,18.067 C61.375,17.346 60.779,16.715 60.009,16.715 L19.924,16.715 C19.154,16.715 18.572,17.346 18.572,18.067 C18.572,18.85 19.154,19.467 19.924,19.467 Z M19.924,31.918 L60.009,31.918 C60.779,31.918 61.375,31.301 61.375,30.518 C61.375,29.797 60.779,29.153 60.009,29.153 L19.924,29.153 C19.154,29.153 18.572,29.797 18.572,30.518 C18.572,31.301 19.154,31.918 19.924,31.918 Z M19.924,44.405 L46.386,44.405 C47.156,44.405 47.752,43.788 47.752,43.018 C47.752,42.27 47.156,41.639 46.386,41.639 L19.924,41.639 C19.154,41.639 18.572,42.27 18.572,43.018 C18.572,43.788 19.154,44.405 19.924,44.405 Z" id="Shape"/>
            </g>
        </g>
    </g>
</svg>