<?xml version="1.0" encoding="UTF-8"?>
<svg width="22px" height="24px" viewBox="0 0 63 82" version="1.1" xmlns="http://www.w3.org/2000/svg" xmlns:xlink="http://www.w3.org/1999/xlink">
    <title>Thin-S</title>
    <g id="ExportsFromSFSymbolsPasteBoard" stroke="none" stroke-width="1" fill="none" fill-rule="evenodd">
        <g id="simcard-export" transform="translate(-825.000000, -620.000000)" fill="#000000" fill-rule="nonzero">
            <g id="Symbols" transform="translate(509.633000, 617.435500)">
                <g id="Thin-S" transform="translate(315.710620, 2.865300)">
                    <path d="M1.77635684e-15,70.50583 C1.77635684e-15,77.4492 3.59568,81.05858 10.49808,81.05858 L51.64458,81.05858 C58.58208,81.05858 62.15628,77.43553 62.15628,70.50583 L62.15628,26.8457 C62.15628,24.164 61.47268,22.33 59.90238,20.7597 L41.50008,2.4629 C40.02148,0.8652 37.85938,0 35.36528,0 L10.49808,0 C3.66598,0 1.77635684e-15,3.623 1.77635684e-15,10.5527 L1.77635684e-15,70.50583 Z M3.30468,70.40817 L3.30468,10.6504 C3.30468,6.0098 5.80668,3.3047 10.67778,3.3047 L35.35358,3.3047 C37.02928,3.3047 38.48048,3.8555 39.46678,4.8906 L57.29098,22.7207 C58.34178,23.7851 58.87308,25.1113 58.87308,26.9883 L58.87308,70.40817 C58.87308,75.22457 56.33598,77.75386 51.47848,77.75386 L10.66408,77.75386 C5.80668,77.75386 3.30468,75.22457 3.30468,70.40817 Z M12.83788,63.3222 C12.83788,67.24216 14.98048,69.38474 18.92188,69.38474 L24.34378,69.38474 L24.34378,49.5234 C24.34378,49.168 24.13478,48.9726 23.77928,48.9726 L12.83788,48.9726 L12.83788,63.3222 Z M12.83788,46.2754 L24.92968,46.2754 C26.30278,46.2754 27.04108,47.0273 27.04108,48.4082 L27.04108,69.38474 L34.85158,69.38474 L34.85158,35.6679 L18.92188,35.6679 C14.98048,35.6679 12.83788,37.8242 12.83788,41.7578 L12.83788,46.2754 Z M37.54888,69.38474 L43.22068,69.38474 C47.16208,69.38474 49.31838,67.24216 49.31838,63.3222 L49.31838,41.7578 C49.31838,37.8242 47.16208,35.6679 43.22068,35.6679 L37.54888,35.6679 L37.54888,69.38474 Z" id="Shape"></path>
                </g>
            </g>
        </g>
    </g>
</svg>