<?xml version="1.0" encoding="UTF-8"?>
<svg width="64px" height="64px" viewBox="0 0 64 64" version="1.1" xmlns="http://www.w3.org/2000/svg" xmlns:xlink="http://www.w3.org/1999/xlink">
    <!-- Generator: Sketch 54.1 (76490) - https://sketchapp.com -->
    <title>Camera-flatten</title>
    <desc>Created with Sketch.</desc>
    <g id="Camera-flatten" stroke="none" stroke-width="1" fill="none" fill-rule="evenodd">
        <g id="Group" transform="translate(2.500000, 17.000000)" fill="#000000" fill-rule="nonzero">
            <path d="M9.64423077,0 L43.6826923,0 C46.1892154,0 48.2211538,2.03193844 48.2211538,4.53846154 L48.2211538,28.3653846 C48.2211538,30.8719077 46.1892154,32.9038462 43.6826923,32.9038462 L9.64423077,32.9038462 C7.13770767,32.9038462 5.10576923,30.8719077 5.10576923,28.3653846 L5.10576923,4.53846154 C5.10576923,2.03193844 7.13770767,0 9.64423077,0 Z M9.64423077,2.26923077 C8.39096922,2.26923077 7.375,3.28519999 7.375,4.53846154 L7.375,28.3653846 C7.375,29.6186462 8.39096922,30.6346154 9.64423077,30.6346154 L43.6826923,30.6346154 C44.9359539,30.6346154 45.9519231,29.6186462 45.9519231,28.3653846 L45.9519231,4.53846154 C45.9519231,3.28519999 44.9359539,2.26923077 43.6826923,2.26923077 L9.64423077,2.26923077 Z" id="Rectangle"></path>
            <path d="M56.2448397,1.59884814 C56.9027842,1.17381897 57.7807079,1.36263419 58.2057371,2.02057873 C58.3538866,2.24991395 58.4326923,2.51713663 58.4326923,2.79016213 L58.4326923,22.1713763 C58.4326923,22.9546648 57.7977115,23.5896456 57.0144231,23.5896456 C56.7413976,23.5896456 56.4741749,23.5108398 56.2448397,23.3626903 L46.6006089,17.1325613 C46.1961857,16.8713057 45.9519231,16.4227165 45.9519231,15.9412473 L45.9519231,9.02029118 C45.9519231,8.53882198 46.1961857,8.09023274 46.6006089,7.82897719 L56.2448397,1.59884814 Z M48.2211538,15.4778877 L56.1634615,20.6085823 L56.1634615,4.3529562 L48.2211538,9.48365071 L48.2211538,15.4778877 Z" id="Path"></path>
            <path d="M6.80769231,4.53846154 L6.80769231,15.8846154 L3.40384615,15.8846154 C1.52395383,15.8846154 0,14.3606616 0,12.4807692 L0,7.94230769 C0,6.06241537 1.52395383,4.53846154 3.40384615,4.53846154 L6.80769231,4.53846154 Z M4.53846154,6.80769231 L3.40384615,6.80769231 C2.77721538,6.80769231 2.26923077,7.31567692 2.26923077,7.94230769 L2.26923077,12.4807692 C2.26923077,13.1074 2.77721538,13.6153846 3.40384615,13.6153846 L4.53846154,13.6153846 L4.53846154,6.80769231 Z" id="Combined-Shape"></path>
        </g>
    </g>
</svg>