<?xml version="1.0" encoding="UTF-8"?>
<!--Generator: Apple Native CoreSVG 175.5-->
<!DOCTYPE svg
PUBLIC "-//W3C//DTD SVG 1.1//EN"
       "http://www.w3.org/Graphics/SVG/1.1/DTD/svg11.dtd">
<svg version="1.1" xmlns="http://www.w3.org/2000/svg" xmlns:xlink="http://www.w3.org/1999/xlink" width="23.7009" height="20.4866">
 <g>
  <rect height="20.4866" opacity="0" width="23.7009" x="0" y="0"/>
  <path d="M9.58813 19.4177Q7.00053 19.4177 4.79195 18.1208Q2.58339 16.8239 1.29169 14.6215Q0 12.4192 0 9.82956Q0 7.2399 1.29169 5.03236Q2.58339 2.82482 4.79093 1.52792Q6.99847 0.231037 9.58605 0.231037Q12.1757 0.231037 14.3791 1.52792Q16.5824 2.82482 17.8804 5.03236Q19.1783 7.2399 19.1783 9.82956Q19.1783 12.4192 17.8804 14.6215Q16.5824 16.8239 14.3801 18.1208Q12.1778 19.4177 9.58813 19.4177ZM9.58813 18.6257Q11.985 18.6257 14.0059 17.4418Q16.0268 16.2579 17.2055 14.2369Q18.3843 12.216 18.3843 9.82956Q18.3843 7.4327 17.2045 5.41176Q16.0248 3.39084 14.0038 2.20694Q11.9829 1.02304 9.58605 1.02304Q7.18921 1.02304 5.17033 2.20694Q3.15147 3.39084 1.96861 5.41176Q0.785728 7.4327 0.785728 9.82956Q0.785728 12.216 1.96963 14.2369Q3.15355 16.2579 5.17241 17.4418Q7.19127 18.6257 9.58813 18.6257ZM9.58391 15.4786Q9.45319 15.4786 9.37227 15.4028Q9.29135 15.3271 9.29135 15.1964L9.29135 14.3987Q8.24249 14.3282 7.52289 13.7799Q6.80329 13.2315 6.62265 12.38Q6.59359 12.2181 6.59359 12.1392Q6.59359 11.9773 6.68071 11.8809Q6.76783 11.7844 6.90681 11.7844Q7.19525 11.7844 7.25739 12.1019Q7.33209 12.7917 7.88373 13.2363Q8.43537 13.6809 9.29135 13.7577L9.29135 10.3322L9.14793 10.2989Q7.96423 10.0207 7.37757 9.49116Q6.79091 8.96164 6.79091 8.14976Q6.79091 7.54966 7.11905 7.06788Q7.44721 6.58612 8.01625 6.28708Q8.58529 5.98806 9.29135 5.94242L9.29135 5.25708Q9.29135 5.11596 9.37227 5.03606Q9.45319 4.95618 9.58391 4.95618Q9.71465 4.95618 9.80077 5.04126Q9.88689 5.12634 9.88689 5.25708L9.88689 5.94242Q10.8547 6.00258 11.5442 6.51452Q12.2337 7.02644 12.3915 7.77196Q12.4185 7.92356 12.4185 8.01072Q12.4185 8.16216 12.3272 8.25966Q12.2359 8.35718 12.0949 8.35718Q11.9496 8.35718 11.8708 8.27728Q11.792 8.1974 11.7547 8.04174Q11.6447 7.44554 11.1367 7.04458Q10.6286 6.6436 9.88689 6.5855L9.88689 9.80118L10.1716 9.85524Q11.3927 10.1295 11.9856 10.6756Q12.5784 11.2217 12.5784 12.0854Q12.5784 12.7271 12.2389 13.2338Q11.8993 13.7405 11.2888 14.0478Q10.6782 14.3552 9.88689 14.4112L9.88689 15.1964Q9.88689 15.3271 9.79973 15.4028Q9.71257 15.4786 9.58391 15.4786ZM9.88689 13.7577Q10.8093 13.7017 11.362 13.2488Q11.9147 12.7959 11.9147 12.1103Q11.9147 11.4974 11.4835 11.1214Q11.0524 10.7454 10.0987 10.519L9.88689 10.4691L9.88689 13.7577ZM9.29135 6.5855Q8.50189 6.65812 7.98659 7.08402Q7.47129 7.5099 7.47129 8.12698Q7.47129 8.70454 7.90555 9.05666Q8.33981 9.40878 9.23737 9.63728L9.29135 9.6518L9.29135 6.5855Z" fill="#000000"/>
  <path d="M18.0841 20.4866Q16.5662 20.4866 15.2747 19.7277Q13.9832 18.9688 13.2253 17.672Q12.4673 16.3753 12.4673 14.8574Q12.4673 13.3416 13.2263 12.0501Q13.9852 10.7585 15.2768 9.9996Q16.5683 9.24068 18.0841 9.24068Q19.5999 9.24068 20.8915 9.9996Q22.1831 10.7585 22.9419 12.0501Q23.7009 13.3416 23.7009 14.8574Q23.7009 16.3732 22.9409 17.67Q22.1809 18.9667 20.8895 19.7267Q19.5979 20.4866 18.0841 20.4866Z" fill="#ffffff"/>
  <path d="M18.0841 19.5901Q16.809 19.5901 15.724 18.9526Q14.6389 18.3151 14.0014 17.2248Q13.3639 16.1346 13.3639 14.8574Q13.3639 13.5824 14.0014 12.4973Q14.6389 11.4122 15.724 10.7695Q16.809 10.1268 18.0841 10.1268Q19.3593 10.1268 20.4495 10.7643Q21.5397 11.4018 22.1773 12.4921Q22.8147 13.5824 22.8147 14.8574Q22.8147 16.1304 22.1711 17.2217Q21.5273 18.313 20.4411 18.9516Q19.3551 19.5901 18.0841 19.5901Z" fill="#000000"/>
  <path d="M18.1048 15.5489Q18.2959 15.5489 18.4255 15.4192Q18.5553 15.2894 18.5553 15.1089L18.5553 11.8188Q18.5553 11.6507 18.4245 11.5272Q18.2937 11.4037 18.1048 11.4037Q17.9346 11.4037 17.8091 11.5272Q17.6835 11.6507 17.6835 11.8188L17.6835 14.6896L15.6769 14.6896Q15.4984 14.6896 15.3729 14.81Q15.2473 14.9304 15.2473 15.1089Q15.2473 15.2998 15.3718 15.4244Q15.4964 15.5489 15.6769 15.5489L18.1048 15.5489Z" fill="#ffffff"/>
 </g>
</svg>
