<?xml version="1.0" encoding="UTF-8"?>
<svg width="77px" height="76px" viewBox="0 0 77 76" version="1.1" xmlns="http://www.w3.org/2000/svg" xmlns:xlink="http://www.w3.org/1999/xlink">
    <title>Thin-S</title>
    <g id="Page-1" stroke="none" stroke-width="1" fill="none" fill-rule="evenodd">
        <g id="network" transform="translate(-818.000000, -623.000000)" fill="#000000" fill-rule="nonzero">
            <g id="Symbols" transform="translate(498.889800, 618.802700)">
                <g id="Thin-S" transform="translate(319.809140, 4.226600)">
                    <path d="M4.43946,22.2109 C15.10356,31.0781 28.88476,36.1836 43.62306,36.0293 C54.17776,35.9238 64.13866,33.0234 72.69726,27.8789 L71.62696,25.2031 C63.39256,30.2305 53.78316,33.0684 43.58786,33.209 C29.23826,33.4551 15.85156,28.2656 5.65046,19.4414 L4.43946,22.2109 Z M1.50782,42.4863 C21.28906,59.0625 48.98046,62.166 71.67576,51.1621 L71.88866,47.834 C49.35546,59.5684 21.32616,56.4512 1.82032,39.0586 L1.50782,42.4863 Z M19.42386,68.60743 L22.83406,69.78516 C21.43756,66.21287 20.55666,62.5312 20.15626,58.7245 C16.46686,37.0312 24.69146,15.7441 40.39066,1.8926 L37.14256,1.0176 C21.66796,15.4804 13.85746,36.9726 17.40626,59.0058 C17.70116,62.2617 18.41606,65.50389 19.42386,68.60743 Z M44.75976,72.92383 L47.50586,71.92187 C40.82816,61.9199 37.01366,50.0137 37.01366,37.3516 C37.01366,24.9082 40.66406,13.2207 47.14456,3.334 L44.52736,2.2441 C37.92776,12.498 34.19336,24.5742 34.19336,37.3516 C34.19336,50.3379 37.98636,62.5898 44.75976,72.92383 Z M67.69926,58.3203 L69.31646,56.0664 C56.92576,49.0879 48.65046,36.084 48.00396,21.0586 C47.75786,15.2363 48.72076,9.498 50.75196,4.2773 L48.05666,3.4375 C45.94926,8.957 44.93746,14.9453 45.18356,21.164 C45.83006,37.0078 54.62106,50.8437 67.69926,58.3203 Z M20.59376,35.8438 C23.37896,35.8438 25.71876,33.5176 25.71876,30.6836 C25.71876,27.8633 23.37896,25.5586 20.59376,25.5586 C17.72466,25.5586 15.39846,27.8633 15.39846,30.6836 C15.39846,33.5176 17.72466,35.8438 20.59376,35.8438 Z M49.76366,39.4121 C52.40826,39.4121 54.59376,37.2617 54.59376,34.5684 C54.59376,31.959 52.40826,29.7734 49.76366,29.7734 C47.10546,29.7734 44.91996,31.959 44.91996,34.5684 C44.91996,37.2617 47.10546,39.4121 49.76366,39.4121 Z M39.16216,61.334 C42.01756,61.334 44.23826,59.1133 44.23826,56.2441 C44.23826,53.3887 42.01756,51.168 39.16216,51.168 C36.29296,51.168 34.05856,53.3887 34.05856,56.2441 C34.05856,59.1133 36.29296,61.334 39.16216,61.334 Z M37.71676,75.4336 C58.40626,75.4336 75.44726,58.4063 75.44726,37.7168 C75.44726,17.0273 58.39256,0 37.70316,0 C16.99216,0 -8.8817842e-16,17.0273 -8.8817842e-16,37.7168 C-8.8817842e-16,58.4063 17.00586,75.4336 37.71676,75.4336 Z M37.71676,72.457019 C18.61136,72.457019 2.99025,56.8223 2.99025,37.7168 C2.99025,18.6113 18.59766,2.9766 37.70316,2.9766 C56.78716,2.9766 72.45706,18.6113 72.45706,37.7168 C72.45706,56.8223 56.80076,72.457019 37.71676,72.457019 Z" id="Shape"></path>
                </g>
            </g>
        </g>
    </g>
</svg>