<?xml version="1.0" encoding="UTF-8"?>
<svg width="71px" height="71px" viewBox="0 0 71 71" version="1.1" xmlns="http://www.w3.org/2000/svg" xmlns:xlink="http://www.w3.org/1999/xlink">
    <title>Thin-S</title>
    <g id="Journaling" stroke="none" stroke-width="1" fill="none" fill-rule="evenodd">
        <g id="pencil.and.sparkles" transform="translate(-826.000000, -625.000000)" fill="#000000" fill-rule="nonzero">
            <g id="Symbols" transform="translate(510.033150, 618.216800)">
                <g id="Thin-S" transform="translate(316.111927, 6.998000)">
                    <path d="M10.8931233,30.75 C11.3306233,30.75 11.6489233,30.459 11.7251233,30.0567 C12.5650233,24.0352 12.4361233,23.1211 19.5025233,22.2793 C19.9888233,22.2032 20.2095233,21.8496 20.2095233,21.4473 C20.2095233,21.0313 19.9888233,20.6914 19.5025233,20.6153 C12.4361233,19.7324 12.5650233,18.8184 11.7251233,12.8653 C11.6489233,12.4356 11.3443233,12.1309 10.8931233,12.1309 C10.4282233,12.1309 10.1509233,12.4219 10.0962233,12.8653 C9.20752327,18.8184 9.37162327,19.7324 2.31892327,20.6153 C1.81892327,20.6914 1.57672327,21.0313 1.57672327,21.4473 C1.57672327,21.877 1.81892327,22.2032 2.31102327,22.2793 C9.37162327,23.1211 9.20752327,24.0352 10.0962233,30.0157 C10.1509233,30.4454 10.4146233,30.75 10.8931233,30.75 Z M23.7993233,13.5489 C24.0415233,13.5489 24.2212233,13.3692 24.2837233,13.1055 C24.8814233,9.0703 24.8911233,8.2325 30.1060233,7.2832 C30.3970233,7.2207 30.5630233,7.0625 30.5630233,6.7989 C30.5630233,6.5215 30.3970233,6.3282 30.1060233,6.2657 C24.8775233,5.3164 24.8540233,4.4512 24.2837233,0.4571 C24.2212233,0.1797 24.0552233,0 23.7993233,0 C23.5083233,0 23.3560233,0.1797 23.3150233,0.4571 C22.6763233,4.4512 22.6724233,5.3164 17.4575233,6.2657 C17.2017233,6.3282 17.0142233,6.5215 17.0142233,6.7989 C17.0142233,7.0762 17.2017233,7.2207 17.4712233,7.2832 C22.6724233,8.1914 22.6763233,9.0703 23.3150233,13.0782 C23.3560233,13.3692 23.5083233,13.5489 23.7993233,13.5489 Z M53.8696233,70.183646 C54.4048233,70.183646 54.7095233,69.857473 54.7857233,69.40044 C56.6157233,57.9981 58.8091233,56.0157 69.9439233,54.2208 C70.4575233,54.1446 70.7622233,53.7911 70.7622233,53.3614 C70.7622233,52.8477 70.4575233,52.5079 69.9439233,52.4454 C58.7954233,50.7071 56.7935233,48.6387 54.7857233,37.2461 C54.6958233,36.795 54.4048233,36.42 53.8696233,36.42 C53.2720233,36.42 52.9458233,36.795 52.9048233,37.2598 C51.0122233,48.6387 48.8599233,50.7071 37.7466233,52.4454 C37.2329233,52.5215 36.8931233,52.8477 36.8931233,53.3614 C36.8931233,53.7911 37.2329233,54.1446 37.7466233,54.2208 C48.8599233,56.0157 50.9107233,57.8594 52.9048233,69.41411 C52.9595233,69.871145 53.2993233,70.183646 53.8696233,70.183646 Z M8.64702327,61.9981 L53.5454233,17.127 L48.8579233,12.4044 L3.92432327,57.2051 L0.0786432658,64.67191 C-0.241666734,65.29692 0.480983266,65.97661 1.08450327,65.70512 L8.64702327,61.9981 Z M56.2876233,14.4688 L59.3130233,11.4708 C60.9419233,9.8985 60.9829233,8.3204 59.5493233,6.8868 L59.0063233,6.3926 C57.6782233,5.0157 56.0298233,5.1758 54.5415233,6.6993 L51.5161233,9.6622 L56.2876233,14.4688 Z" id="Shape"></path>
                </g>
            </g>
        </g>
    </g>
</svg>