<?xml version="1.0" encoding="UTF-8"?>
<svg width="22px" height="24px" viewBox="0 0 22 24" version="1.1" xmlns="http://www.w3.org/2000/svg" xmlns:xlink="http://www.w3.org/1999/xlink">
    <!-- Generator: Sketch 62 (91390) - https://sketch.com -->
    <title>FileProviderTestingMode_NEWICON</title>
    <desc>Created with Sketch.</desc>
    <g id="Page-1" stroke="none" stroke-width="1" fill="none" fill-rule="evenodd">
        <g id="FileProviderTestingMode_NEWICON" fill="#000000" fill-rule="nonzero">
            <path d="M12.0253754,0.990775625 C12.3183441,0.990775625 12.5706228,1.01193448 12.7822113,1.05425219 C12.9937998,1.0965699 13.1891123,1.16818448 13.3681488,1.26909594 C13.5471853,1.3700074 13.7311045,1.51811938 13.9199066,1.71343188 L13.9199066,1.71343188 L20.3278835,8.14351 C20.523196,8.3388225 20.6729356,8.52599754 20.7771023,8.705034 C20.8812689,8.88407046 20.9512559,9.08263804 20.9870632,9.300737 C21.0228705,9.51883596 21.0407741,9.78739058 21.0407741,10.106401 L21.0407741,10.106401 L21.0407741,19.2486038 C21.0407741,20.1665726 20.8096543,20.8583043 20.3474147,21.3237991 C19.8851752,21.7892939 19.195071,22.0220413 18.2771023,22.0220413 L18.2771023,22.0220413 L8.28238548,22.0217756 L6.78367847,23.5209951 C6.15684143,24.1478321 5.46815329,24.1847049 4.83403966,23.6271355 L4.71581132,23.515624 L1.35888413,20.1640679 C0.698240856,19.4980536 0.692869772,18.7622151 1.35888413,18.0962008 L1.35888413,18.0962008 L4.7211824,14.7339025 C4.82738207,14.6277028 4.93535708,14.5385738 5.04454127,14.466472 L5.04468038,3.77397875 C5.04468038,2.85601 5.27905538,2.16265062 5.74780538,1.69390062 C6.21655538,1.22515062 6.90340433,0.990775625 7.80835225,0.990775625 L7.80835225,0.990775625 L12.0253754,0.990775625 Z M8.52390952,17.7470803 C8.30906618,17.4301864 7.94920359,17.4087021 7.66990725,17.6826273 L7.66990725,17.6826273 L5.00047874,20.3681691 L4.06053913,19.3852608 C3.84032471,19.1543042 3.56102836,19.143562 3.29784527,19.3422921 C3.00780676,19.5571355 2.97558026,19.8955137 3.24413444,20.1748101 L3.24413444,20.1748101 L4.57079206,21.5659207 C4.69969807,21.7001978 4.82323299,21.7485375 4.97362333,21.7485375 C5.15086908,21.7485375 5.3066305,21.651858 5.39793892,21.5659207 L5.39793892,21.5659207 L8.47556977,18.4882899 C8.70115528,18.2573333 8.70652636,17.9941502 8.52390952,17.7470803 Z M12.0644379,2.00640062 L7.85718038,2.00640062 C7.26473246,2.00640062 6.81714131,2.16265062 6.51440694,2.47515062 C6.21167256,2.78765062 6.06030538,3.23035896 6.06030538,3.80327562 L6.06030538,3.80327562 L6.05989866,14.2803072 C6.3075813,14.3497868 6.5527116,14.5029356 6.78904955,14.7392736 L6.78904955,14.7392736 L10.1406057,18.0908297 C10.80662,18.756844 10.8119911,19.4926825 10.1459767,20.1586968 L10.1459767,20.1586968 L9.29738548,21.0057756 L18.2282741,21.0064163 C18.7606815,21.0064163 19.1747762,20.8868176 19.4705581,20.64762 L19.5759304,20.5523148 C19.8754095,20.2495804 20.0251491,19.8052444 20.0251491,19.2193069 L20.0251491,19.2193069 L20.0251491,9.998979 L13.597641,9.998979 C13.0898285,9.998979 12.7073415,9.87528083 12.4501801,9.627885 C12.1930186,9.38048917 12.0644379,8.98986417 12.0644379,8.45601 L12.0644379,8.45601 L12.0644379,2.00640062 Z M13.0312347,2.22124437 L13.0312347,8.358354 C13.0312347,8.59923942 13.0816905,8.77176533 13.1826019,8.875932 C13.2835134,8.98009867 13.4544118,9.032182 13.6952972,9.032182 L13.6952972,9.032182 L19.8103054,9.032182 L13.0312347,2.22124437 Z" id="Combined-Shape"></path>
        </g>
    </g>
</svg>