<?xml version="1.0" encoding="UTF-8"?>
<!--Generator: Apple Native CoreSVG 175.5-->
<!DOCTYPE svg
PUBLIC "-//W3C//DTD SVG 1.1//EN"
       "http://www.w3.org/Graphics/SVG/1.1/DTD/svg11.dtd">
<svg version="1.1" xmlns="http://www.w3.org/2000/svg" xmlns:xlink="http://www.w3.org/1999/xlink" width="22.0868" height="30.4305">
 <g>
  <rect height="30.4305" opacity="0" width="22.0868" x="0" y="0"/>
  <path d="M0 3.74378L0 26.6813C0 29.1321 1.27345 30.4251 3.71331 30.4251L18.3735 30.4251C20.8274 30.4251 22.0868 29.1321 22.0868 26.6813L22.0868 3.74378C22.0868 1.27892 20.8415 0 18.3735 0L3.71331 0C1.25938 0 0 1.27892 0 3.74378ZM1.32194 3.76878C1.32194 2.13833 2.13833 1.32194 3.76019 1.32194L18.3407 1.32194C19.9485 1.32194 20.7789 2.13833 20.7789 3.76878L20.7789 26.6563C20.7789 28.2445 19.9203 29.1031 18.3407 29.1031L3.76019 29.1031C2.16646 29.1031 1.32194 28.2445 1.32194 26.6563ZM11.0532 26.2672C14.561 26.2672 17.3766 23.4571 17.3766 19.9242C17.3766 16.3969 14.561 13.6063 11.0532 13.6008C7.53988 13.5813 4.7102 16.3969 4.7102 19.9242C4.7102 23.4571 7.53988 26.2672 11.0532 26.2672ZM11.0532 22.9922C9.36567 22.9922 7.97975 21.6344 7.97975 19.9242C7.97975 18.1836 9.32661 16.8508 11.0532 16.8508C12.7602 16.8508 14.107 18.1836 14.107 19.9242C14.107 21.6344 12.7602 22.9922 11.0532 22.9922ZM11.0532 10.7954C12.8743 10.7954 14.3829 9.31724 14.3719 7.47661C14.3665 5.65864 12.8883 4.20551 11.0532 4.18598C9.21253 4.16645 7.71487 5.64457 7.71487 7.47661C7.71487 9.3313 9.19847 10.7954 11.0532 10.7954ZM11.0532 9.73049C9.79771 9.73049 8.79381 8.72113 8.79381 7.47661C8.79381 6.21022 9.78364 5.24539 11.0532 5.24539C12.2696 5.24539 13.307 6.24928 13.307 7.47661C13.307 8.72113 12.2891 9.73049 11.0532 9.73049Z" fill="#000000"/>
 </g>
</svg>
