<svg xmlns="http://www.w3.org/2000/svg" viewBox="0 0 142.294 100" style="overflow:visible"><rect x="0" y="-15" width="142.294" height="120" fill-opacity="0"/><g><path d="M33.832 84.861L84.852 84.861C96.737 84.861 103.845 77.908 103.845 66.033L103.845 23.445C103.845 11.571 96.737 4.618 84.852 4.618L33.832 4.618C22.465 4.618 14.798 11.571 14.798 23.445L14.798 66.033C14.798 77.908 21.896 84.861 33.832 84.861ZM35.18 77.494C27.2 77.494 22.641 73.369 22.641 64.893L22.641 24.586C22.641 16.109 27.2 11.985 35.18 11.985L83.504 11.985C91.433 11.985 95.991 16.109 95.991 24.586L95.991 64.893C95.991 73.369 91.433 77.494 83.504 77.494ZM102.745 31.084L102.745 40.346L125.976 21.179C126.404 20.803 126.749 20.614 127.177 20.614C127.72 20.614 127.981 21.053 127.981 21.752L127.981 67.726C127.981 68.426 127.72 68.864 127.177 68.864C126.749 68.864 126.404 68.624 125.976 68.3L102.745 49.133L102.745 58.395L122.296 74.961C124.248 76.59 126.416 77.669 128.44 77.669C132.724 77.669 135.566 74.548 135.566 69.993L135.566 19.486C135.566 14.931 132.724 11.809 128.44 11.809C126.416 11.809 124.248 12.889 122.296 14.518Z" fill="#000000" fill-opacity="1" /><path d="M18.715 105.418C35.851 105.418 50.174 91.105 50.174 73.906C50.174 56.656 35.965 42.447 18.715 42.447C1.475 42.447-12.745 56.667-12.745 73.906C-12.745 91.26 1.423 105.418 18.715 105.418Z" fill="#ffffff" fill-opacity="1" /><path d="M18.715 98.74C32.139 98.74 43.496 87.496 43.496 73.906C43.496 60.306 32.305 49.114 18.715 49.114C5.125 49.114-6.078 60.317-6.078 73.906C-6.078 87.548 5.125 98.74 18.715 98.74Z" fill="#000000" fill-opacity="1" /><path d="M15.765 87.317C14.946 87.317 13.971 86.964 13.328 86.259L5.033 77.216C4.504 76.573 4.265 75.671 4.265 74.966C4.265 73.234 5.592 71.917 7.273 71.917C8.331 71.917 9.119 72.405 9.648 72.934L15.641 79.456L27.541 62.925C28.111 62.126 28.982 61.608 30.123 61.608C31.741 61.608 33.172 62.873 33.172 64.594C33.172 65.145 32.933 65.829 32.529 66.462L18.337 86.145C17.808 86.85 16.802 87.317 15.765 87.317Z" fill="#ffffff" fill-opacity="1" /></g></svg>
