<?xml version="1.0" encoding="UTF-8"?>
<svg width="24px" height="24px" viewBox="0 0 24 24" version="1.1" xmlns="http://www.w3.org/2000/svg" xmlns:xlink="http://www.w3.org/1999/xlink">
    <!-- Generator: Sketch 54.1 (76490) - https://sketchapp.com -->
    <title>Xcode_FontInstallation</title>
    <desc>Created with Sketch.</desc>
    <g id="Xcode_FontInstallation" stroke="none" stroke-width="1" fill="none" fill-rule="evenodd">
        <path d="M10.373558,4.93535 L10.373558,10.72001 L11.54304,10.72001 C12.5058585,10.72001 13.1161452,10.5809704 13.3538542,10.3623354 C13.5807359,10.1536526 13.72473,9.62228919 13.72473,8.76573 L13.72473,8.26573 L15.38201,8.26573 L15.38201,14.905852 L13.72473,14.905852 L13.72473,14.405852 C13.72473,13.7779319 13.6562753,13.2951532 13.5282324,12.963504 C13.4180477,12.6780913 13.2736978,12.5061626 13.0942798,12.4198034 C12.8800693,12.3167046 12.3477797,12.25099 11.54304,12.25099 L10.373558,12.25099 L10.373558,15.727386 C10.373558,16.955583 10.407819,17.7609165 10.4708094,18.1107629 C10.5176653,18.371002 10.6212653,18.5397612 10.787367,18.6498605 C10.9672517,18.7690965 11.4374354,18.849805 12.16088,18.849805 L13.26558,18.849805 L13.26558,20.3925779 L3.983887,20.3925801 L3.983887,18.849805 L5.035999,18.849805 C5.71605455,18.849805 6.1692554,18.7755359 6.36613253,18.6594831 C6.53777851,18.5583033 6.64426598,18.4060376 6.6977641,18.1709922 C6.76953968,17.8556473 6.810178,17.0243596 6.810178,15.727386 L6.810178,7.88078 C6.810178,6.64520039 6.76965088,5.84490483 6.69750998,5.52454432 C6.64451194,5.28919623 6.55455097,5.15797841 6.42542503,5.0895783 C6.2552007,4.99940769 5.7259142,4.93535 4.904544,4.93535 L4.089051,4.93535 L4.089051,3.39258 L18.8214901,3.39258 L19.002347,8.38078 L17.4313994,8.38078 L17.3709148,7.95035841 C17.2593145,7.15618601 17.0153475,6.51324783 16.6435433,6.01437728 C16.2772476,5.52288915 15.9148374,5.23284205 15.5643857,5.12601192 C15.1591165,5.00247146 14.4154949,4.93535 13.35713,4.93535 L10.373558,4.93535 Z" id="Path" stroke="#000000"></path>
    </g>
</svg>