<?xml version="1.0" encoding="UTF-8"?>
<!--Generator: Apple Native CoreSVG 175.5-->
<!DOCTYPE svg
PUBLIC "-//W3C//DTD SVG 1.1//EN"
       "http://www.w3.org/Graphics/SVG/1.1/DTD/svg11.dtd">
<svg version="1.1" xmlns="http://www.w3.org/2000/svg" xmlns:xlink="http://www.w3.org/1999/xlink" width="19.066" height="18.2848">
 <g>
  <rect height="18.2848" opacity="0" width="19.066" x="0" y="0"/>
  <path d="M1.359 5.28009L3.88281 5.28009C4.7504 5.28009 5.24181 4.85898 5.24181 3.91718L5.24181 1.40821C5.24181 0.473442 4.7504 0.0453091 3.88281 0.0453091L1.359 0.0453091C0.484381 0.0453091 0 0.473442 0 1.40821L0 3.91718C0 4.85898 0.484381 5.28009 1.359 5.28009ZM1.41799 4.61014C0.890651 4.61014 0.679715 4.38944 0.679715 3.86366L0.679715 1.46877C0.679715 0.938694 0.890651 0.725024 1.41799 0.725024L3.82382 0.725024C4.34842 0.725024 4.56483 0.938694 4.56483 1.46877L4.56483 3.86366C4.56483 4.38944 4.34842 4.61014 3.82382 4.61014ZM8.26837 5.28009L10.7949 5.28009C11.6695 5.28009 12.1512 4.85898 12.1512 3.91718L12.1512 1.40821C12.1512 0.473442 11.6695 0.0453091 10.7949 0.0453091L8.26837 0.0453091C7.40078 0.0453091 6.91211 0.473442 6.91211 1.40821L6.91211 3.91718C6.91211 4.85898 7.40078 5.28009 8.26837 5.28009ZM8.33439 4.61014C7.80705 4.61014 7.58909 4.38944 7.58909 3.86366L7.58909 1.46877C7.58909 0.938694 7.80705 0.725024 8.33439 0.725024L10.7359 0.725024C11.2605 0.725024 11.4742 0.938694 11.4742 1.46877L11.4742 3.86366C11.4742 4.38944 11.2605 4.61014 10.7359 4.61014ZM15.1902 5.28009L17.707 5.28009C18.5816 5.28009 19.066 4.85898 19.066 3.91718L19.066 1.40821C19.066 0.473442 18.5816 0.0453091 17.707 0.0453091L15.1902 0.0453091C14.3156 0.0453091 13.8312 0.473442 13.8312 1.40821L13.8312 3.91718C13.8312 4.85898 14.3156 5.28009 15.1902 5.28009ZM15.2492 4.61014C14.7219 4.61014 14.5012 4.38944 14.5012 3.86366L14.5012 1.46877C14.5012 0.938694 14.7219 0.725024 15.2492 0.725024L17.648 0.725024C18.1726 0.725024 18.3933 0.938694 18.3933 1.46877L18.3933 3.86366C18.3933 4.38944 18.1726 4.61014 17.648 4.61014ZM1.359 11.786L3.88281 11.786C4.7504 11.786 5.24181 11.3606 5.24181 10.4187L5.24181 7.91408C5.24181 6.97227 4.7504 6.54414 3.88281 6.54414L1.359 6.54414C0.484381 6.54414 0 6.97227 0 7.91408L0 10.4187C0 11.3606 0.484381 11.786 1.359 11.786ZM1.41799 11.109C0.890651 11.109 0.679715 10.8883 0.679715 10.3625L0.679715 7.96486C0.679715 7.43479 0.890651 7.22112 1.41799 7.22112L3.82382 7.22112C4.34842 7.22112 4.56483 7.43479 4.56483 7.96486L4.56483 10.3625C4.56483 10.8883 4.34842 11.109 3.82382 11.109ZM15.1902 11.786L17.707 11.786C18.5816 11.786 19.066 11.3606 19.066 10.4187L19.066 7.91408C19.066 6.97227 18.5816 6.54414 17.707 6.54414L15.1902 6.54414C14.3156 6.54414 13.8312 6.97227 13.8312 7.91408L13.8312 10.4187C13.8312 11.3606 14.3156 11.786 15.1902 11.786ZM15.2492 11.109C14.7219 11.109 14.5012 10.8883 14.5012 10.3625L14.5012 7.96486C14.5012 7.43479 14.7219 7.22112 15.2492 7.22112L17.648 7.22112C18.1726 7.22112 18.3933 7.43479 18.3933 7.96486L18.3933 10.3625C18.3933 10.8883 18.1726 11.109 17.648 11.109ZM1.359 18.2848L3.88281 18.2848C4.7504 18.2848 5.24181 17.8567 5.24181 16.9148L5.24181 14.4129C5.24181 13.4711 4.7504 13.043 3.88281 13.043L1.359 13.043C0.484381 13.043 0 13.4711 0 14.4129L0 16.9148C0 17.8567 0.484381 18.2848 1.359 18.2848ZM1.41799 17.6051C0.890651 17.6051 0.679715 17.3844 0.679715 16.8613L0.679715 14.4664C0.679715 13.9336 0.890651 13.72 1.41799 13.72L3.82382 13.72C4.34842 13.72 4.56483 13.9336 4.56483 14.4664L4.56483 16.8613C4.56483 17.3844 4.34842 17.6051 3.82382 17.6051ZM8.26837 18.2848L10.7949 18.2848C11.6695 18.2848 12.1512 17.8567 12.1512 16.9148L12.1512 14.4129C12.1512 13.4711 11.6695 13.043 10.7949 13.043L8.26837 13.043C7.40078 13.043 6.91211 13.4711 6.91211 14.4129L6.91211 16.9148C6.91211 17.8567 7.40078 18.2848 8.26837 18.2848ZM8.33439 17.6051C7.80705 17.6051 7.58909 17.3844 7.58909 16.8613L7.58909 14.4664C7.58909 13.9336 7.80705 13.72 8.33439 13.72L10.7359 13.72C11.2605 13.72 11.4742 13.9336 11.4742 14.4664L11.4742 16.8613C11.4742 17.3844 11.2605 17.6051 10.7359 17.6051ZM15.1902 18.2848L17.707 18.2848C18.5816 18.2848 19.066 17.8567 19.066 16.9148L19.066 14.4129C19.066 13.4711 18.5816 13.043 17.707 13.043L15.1902 13.043C14.3156 13.043 13.8312 13.4711 13.8312 14.4129L13.8312 16.9148C13.8312 17.8567 14.3156 18.2848 15.1902 18.2848ZM15.2492 17.6051C14.7219 17.6051 14.5012 17.3844 14.5012 16.8613L14.5012 14.4664C14.5012 13.9336 14.7219 13.72 15.2492 13.72L17.648 13.72C18.1726 13.72 18.3933 13.9336 18.3933 14.4664L18.3933 16.8613C18.3933 17.3844 18.1726 17.6051 17.648 17.6051Z" fill="#000000"/>
  <path d="M8.26837 11.7871L10.7922 11.7871C11.6668 11.7871 12.1512 11.359 12.1512 10.4242L12.1512 7.91525C12.1512 6.97345 11.6668 6.54961 10.7922 6.54961L8.26837 6.54961C7.40078 6.54961 6.90937 6.97345 6.90937 7.91525L6.90937 10.4242C6.90937 11.359 7.40078 11.7871 8.26837 11.7871Z" fill="#000000"/>
 </g>
</svg>
