<?xml version="1.0" encoding="iso-8859-1"?>
<!-- Generator: Adobe Illustrator 15.0.0, SVG Export Plug-In . SVG Version: 6.00 Build 0)  -->
<!DOCTYPE svg PUBLIC "-//W3C//DTD SVG 1.1//EN" "http://www.w3.org/Graphics/SVG/1.1/DTD/svg11.dtd">
<svg version="1.1" id="Layer_1" xmlns="http://www.w3.org/2000/svg" xmlns:xlink="http://www.w3.org/1999/xlink" x="0px" y="0px"
	 width="48px" height="48px" viewBox="0 0 48 48" style="enable-background:new 0 0 48 48;" xml:space="preserve">
<g>
	<defs>
		<rect id="SVGID_1_" width="48" height="48"/>
	</defs>
	<clipPath id="SVGID_2_">
		<use xlink:href="#SVGID_1_"  style="overflow:visible;"/>
	</clipPath>
	<g style="clip-path:url(#SVGID_2_);">
		<defs>
			<rect id="SVGID_3_" width="48" height="48"/>
		</defs>
		<clipPath id="SVGID_4_">
			<use xlink:href="#SVGID_3_"  style="overflow:visible;"/>
		</clipPath>
		
			<circle style="clip-path:url(#SVGID_4_);fill:none;stroke:#000000;stroke-width:2;stroke-miterlimit:10;" cx="24" cy="24" r="23"/>
	</g>
</g>
<g>
	<defs>
		<rect id="SVGID_5_" width="48" height="48"/>
	</defs>
	<clipPath id="SVGID_6_">
		<use xlink:href="#SVGID_5_"  style="overflow:visible;"/>
	</clipPath>
	<g style="clip-path:url(#SVGID_6_);">
		<defs>
			<rect id="SVGID_7_" width="48" height="48"/>
		</defs>
		<clipPath id="SVGID_8_">
			<use xlink:href="#SVGID_7_"  style="overflow:visible;"/>
		</clipPath>
		<path style="clip-path:url(#SVGID_8_);fill:none;stroke:#000000;stroke-width:1.961;stroke-miterlimit:10;" d="M7.346,39.861
			C11.535,35.635,17.447,33,24,33c6.549,0,12.459,2.632,16.647,6.855"/>
		<path style="clip-path:url(#SVGID_8_);fill:none;stroke:#000000;stroke-width:1.961;stroke-miterlimit:10;" d="M40.655,8.139
			C36.464,12.365,30.553,15,24,15S11.534,12.365,7.345,8.138"/>
	</g>
</g>
<g>
	<defs>
		<rect id="SVGID_9_" width="48" height="48"/>
	</defs>
	<clipPath id="SVGID_10_">
		<use xlink:href="#SVGID_9_"  style="overflow:visible;"/>
	</clipPath>
	<g style="clip-path:url(#SVGID_10_);">
		<defs>
			<rect id="SVGID_11_" width="48" height="48"/>
		</defs>
		<clipPath id="SVGID_12_">
			<use xlink:href="#SVGID_11_"  style="overflow:visible;"/>
		</clipPath>
		<path style="clip-path:url(#SVGID_12_);fill:none;stroke:#000000;stroke-width:2;stroke-miterlimit:10;" d="M35.897,24
			c0,12.703-5.331,23-11.898,23c-6.562,0-11.896-10.297-11.896-23c0-12.7,5.334-23,11.896-23C30.566,1,35.897,11.3,35.897,24z"/>
		
			<line style="clip-path:url(#SVGID_12_);fill:none;stroke:#000000;stroke-width:2;stroke-miterlimit:10;" x1="47" y1="24" x2="1" y2="24"/>
		
			<line style="clip-path:url(#SVGID_12_);fill:none;stroke:#000000;stroke-width:2;stroke-miterlimit:10;" x1="23.999" y1="47" x2="23.999" y2="1"/>
	</g>
</g>
</svg>
