<?xml version="1.0" encoding="utf-8"?>
<!-- Generator: Adobe Illustrator 18.1.1, SVG Export Plug-In . SVG Version: 6.00 Build 0)  -->
<svg version="1.1" id="Layer_1" xmlns="http://www.w3.org/2000/svg" xmlns:xlink="http://www.w3.org/1999/xlink" x="0px" y="0px"
	 viewBox="0 0 24 24" enable-background="new 0 0 24 24" xml:space="preserve">
<g>
	<defs>
		<rect id="SVGID_1_" width="24" height="24"/>
	</defs>
	<clipPath id="SVGID_2_">
		<use xlink:href="#SVGID_1_"  overflow="visible"/>
	</clipPath>
	<g clip-path="url(#SVGID_2_)">
		<defs>
			<rect id="SVGID_3_" width="24" height="24"/>
		</defs>
		<clipPath id="SVGID_4_">
			<use xlink:href="#SVGID_3_"  overflow="visible"/>
		</clipPath>
		<path clip-path="url(#SVGID_4_)" d="M3,15L1.2,5.9c-0.1-0.4,0-0.8,0.2-1.1s0.6-0.6,1-0.6l15.7-3.1c0.1,0,0.2,0,0.3,0
			c0.7,0,1.3,0.5,1.5,1.2L21,8l0.5,0.6c0.2,0,0.5-0.1,0.5-0.5l-1.2-6c-0.2-1.2-1.3-2-2.5-2c-0.2,0-0.3,0-0.5,0L2.2,3.2
			C0.9,3.5,0,4.8,0.2,6.1l1.9,9.8C2.3,16.5,2.6,17,3,17.3L3.5,17l0-2L3,15z"/>
	</g>
</g>
<g>
	<defs>
		<rect id="SVGID_5_" width="24" height="24"/>
	</defs>
	<clipPath id="SVGID_6_">
		<use xlink:href="#SVGID_5_"  overflow="visible"/>
	</clipPath>
	
		<rect x="10" y="-4" transform="matrix(-0.1934 -0.9811 0.9811 -0.1934 6.7247 18.6224)" clip-path="url(#SVGID_6_)" width="2" height="21"/>
</g>
<g>
	<defs>
		<rect id="SVGID_7_" width="24" height="24"/>
	</defs>
	<clipPath id="SVGID_8_">
		<use xlink:href="#SVGID_7_"  overflow="visible"/>
	</clipPath>
	<g clip-path="url(#SVGID_8_)">
		<defs>
			<rect id="SVGID_9_" width="24" height="24"/>
		</defs>
		<clipPath id="SVGID_10_">
			<use xlink:href="#SVGID_9_"  overflow="visible"/>
		</clipPath>
		<path clip-path="url(#SVGID_10_)" d="M21.5,9c0.8,0,1.5,0.7,1.5,1.5v10c0,0.8-0.7,1.5-1.5,1.5h-16C4.7,22,4,21.3,4,20.5v-10
			C4,9.7,4.7,9,5.5,9H21.5 M21.5,8h-16C4.1,8,3,9.1,3,10.5v10C3,21.9,4.1,23,5.5,23h16c1.4,0,2.5-1.1,2.5-2.5v-10
			C24,9.1,22.9,8,21.5,8"/>
	</g>
</g>
<g>
	<defs>
		<rect id="SVGID_11_" width="24" height="24"/>
	</defs>
	<clipPath id="SVGID_12_">
		<use xlink:href="#SVGID_11_"  overflow="visible"/>
	</clipPath>
	<g clip-path="url(#SVGID_12_)">
		<defs>
			<rect id="SVGID_13_" width="24" height="24"/>
		</defs>
		<clipPath id="SVGID_14_">
			<use xlink:href="#SVGID_13_"  overflow="visible"/>
		</clipPath>
		<path clip-path="url(#SVGID_14_)" d="M11,11.8c0.1,0,0.2,0.1,0.2,0.2v4c0,0.1-0.1,0.2-0.2,0.2H7c-0.1,0-0.2-0.1-0.2-0.2v-4
			c0-0.1,0.1-0.2,0.2-0.2H11 M11,11H7c-0.6,0-1,0.4-1,1v4c0,0.5,0.4,1,1,1h4c0.6,0,1-0.5,1-1v-4C12,11.4,11.6,11,11,11"/>
	</g>
</g>
<g>
	<defs>
		<rect id="SVGID_15_" width="24" height="24"/>
	</defs>
	<clipPath id="SVGID_16_">
		<use xlink:href="#SVGID_15_"  overflow="visible"/>
	</clipPath>
	
		<line clip-path="url(#SVGID_16_)" fill="none" stroke="#000000" stroke-width="0.8" stroke-miterlimit="10" x1="6" y1="14" x2="8.1" y2="14"/>
	
		<line clip-path="url(#SVGID_16_)" fill="none" stroke="#000000" stroke-width="0.8" stroke-miterlimit="10" x1="9.9" y1="14" x2="12" y2="14"/>
	
		<line clip-path="url(#SVGID_16_)" fill="none" stroke="#000000" stroke-width="0.8" stroke-miterlimit="10" x1="9" y1="14.9" x2="9" y2="17"/>
	
		<line clip-path="url(#SVGID_16_)" fill="none" stroke="#000000" stroke-width="0.8" stroke-miterlimit="10" x1="9" y1="13.1" x2="9" y2="11"/>
</g>
<g>
	<defs>
		<rect id="SVGID_17_" width="24" height="24"/>
	</defs>
	<clipPath id="SVGID_18_">
		<use xlink:href="#SVGID_17_"  overflow="visible"/>
	</clipPath>
	<g clip-path="url(#SVGID_18_)">
		<defs>
			<rect id="SVGID_19_" width="24" height="24"/>
		</defs>
		<clipPath id="SVGID_20_">
			<use xlink:href="#SVGID_19_"  overflow="visible"/>
		</clipPath>
		<path clip-path="url(#SVGID_20_)" fill="none" stroke="#000000" stroke-width="0.8" stroke-miterlimit="10" d="M9.5,13
			c0.3,0,0.5,0.2,0.5,0.5v1c0,0.3-0.2,0.5-0.5,0.5h-1C8.2,15,8,14.8,8,14.5v-1C8,13.2,8.2,13,8.5,13H9.5z"/>
	</g>
</g>
<g>
	<defs>
		<rect id="SVGID_21_" width="24" height="24"/>
	</defs>
	<clipPath id="SVGID_22_">
		<use xlink:href="#SVGID_21_"  overflow="visible"/>
	</clipPath>
	<path clip-path="url(#SVGID_22_)" fill="#FFFFFF" d="M6,18.5h15H6z"/>
	<line clip-path="url(#SVGID_22_)" fill="none" stroke="#000000" stroke-miterlimit="10" x1="6" y1="18.5" x2="21" y2="18.5"/>
</g>
</svg>
