<?xml version="1.0" encoding="UTF-8"?>
<svg width="89px" height="69px" viewBox="0 0 89 69" version="1.1" xmlns="http://www.w3.org/2000/svg" xmlns:xlink="http://www.w3.org/1999/xlink">
    <title>Thin-S</title>
    <g id="Page-2" stroke="none" stroke-width="1" fill="none" fill-rule="evenodd">
        <g id="Desktop-HD" transform="translate(-670.000000, -412.000000)" fill="#000000" fill-rule="nonzero">
            <g id="Thin-S" transform="translate(670.000000, 412.000000)">
                <path d="M26.12088,68.619059 L67.49008,68.619059 C68.8587467,68.619059 69.9480133,68.2893393 70.75788,67.6299 C71.5677467,66.9704533 71.97268,66.0977133 71.97268,65.01168 C71.97268,63.0782467 71.3929133,61.0424867 70.23338,58.9044 C69.0738467,56.7663333 67.39838,54.7666333 65.20698,52.9053 C63.0156467,51.0439 60.37338,49.5276333 57.28018,48.3565 C54.1870467,47.1853 50.6979133,46.5997 46.81278,46.5997 C42.93618,46.5997 39.44908,47.1853 36.35148,48.3565 C33.2538133,49.5276333 30.60698,51.0439 28.41098,52.9053 C26.21498,54.7666333 24.5337133,56.7663333 23.36718,58.9044 C22.2007133,61.0424867 21.61748,63.0782467 21.61748,65.01168 C21.61748,66.0977133 22.0282133,66.9704533 22.84968,67.6299 C23.6711467,68.2893393 24.7615467,68.619059 26.12088,68.619059 Z M46.84768,41.1814 C49.0562133,41.1814 51.0527133,40.6017333 52.83718,39.4424 C54.6216467,38.2830667 56.04578,36.7052667 57.10958,34.709 C58.1734467,32.7127333 58.70538,30.4737 58.70538,27.9919 C58.70538,25.6510333 58.1675467,23.5114667 57.09188,21.5732 C56.0162133,19.6348667 54.5861467,18.0856667 52.80168,16.9256 C51.0172133,15.7655333 49.0325467,15.1855 46.84768,15.1855 C44.69528,15.1855 42.71638,15.7643 40.91098,16.9219 C39.10558,18.0794333 37.66748,19.6354 36.59668,21.5898 C35.52588,23.5442 35.00208,25.6873667 35.02528,28.0193 C35.02528,30.4921667 35.55488,32.7244 36.61408,34.716 C37.67328,36.7076 39.09978,38.2830667 40.89358,39.4424 C42.6873133,40.6017333 44.6720133,41.1814 46.84768,41.1814 Z M5.14468,53.4942 L12.60578,53.4942 C14.2970467,53.4942 15.57138,53.0560667 16.42878,52.1798 C17.2862467,51.3036 17.71498,50.0406 17.71498,48.3908 L17.71498,40.8477 C17.71498,39.1979 17.2862467,37.9407 16.42878,37.0761 C15.57138,36.2115 14.2970467,35.7792 12.60578,35.7792 L5.14468,35.7792 C3.45301333,35.7792 2.17264667,36.2033667 1.30358,37.0517 C0.434526667,37.9000333 0,39.1653667 0,40.8477 L0,48.3908 C0,50.0731333 0.434526667,51.3442667 1.30358,52.2042 C2.17264667,53.0642 3.45301333,53.4942 5.14468,53.4942 Z M14.08768,27.8165 L31.35138,27.8165 C31.38398,24.9751 32.03638,22.3705667 33.30858,20.0029 C34.58078,17.6351667 36.2927133,15.6931333 38.44438,14.1768 C40.5960467,12.6604 42.98578,11.7882667 45.61358,11.5604 L45.61358,5.0685 C45.61358,3.4187 45.1848467,2.1615 44.32738,1.2969 C43.4699133,0.4323 42.1953467,0 40.50368,0 L14.08768,0 C12.38748,0 11.10278,0.424166667 10.23358,1.2725 C9.36431333,2.12083333 8.92968,3.38616667 8.92968,5.0685 L8.92968,22.7346 C8.92968,24.4165333 9.36431333,25.684 10.23358,26.537 C11.10278,27.39 12.38748,27.8165 14.08768,27.8165 Z M72.32258,47.1347 L83.15058,47.1347 C84.85118,47.1347 86.13598,46.6966 87.00498,45.8204 C87.8740467,44.9441333 88.30858,43.6764667 88.30858,42.0174 L88.30858,20.8866 C88.30858,19.2042667 87.8740467,17.9308 87.00498,17.0662 C86.13598,16.2016 84.85118,15.7693 83.15058,15.7693 L72.32258,15.7693 C70.6309133,15.7693 69.3505467,16.2016 68.48148,17.0662 C67.6124133,17.9308 67.17788,19.2042667 67.17788,20.8866 L67.17788,42.0174 C67.17788,43.6997333 67.6124133,44.9732 68.48148,45.8378 C69.3505467,46.7024 70.6309133,47.1347 72.32258,47.1347 Z" id="Shape"></path>
            </g>
        </g>
    </g>
</svg>