<?xml version="1.0" encoding="iso-8859-1"?>
<!-- Generator: Adobe Illustrator 15.0.0, SVG Export Plug-In . SVG Version: 6.00 Build 0)  -->
<!DOCTYPE svg PUBLIC "-//W3C//DTD SVG 1.1//EN" "http://www.w3.org/Graphics/SVG/1.1/DTD/svg11.dtd">
<svg version="1.1" id="Layer_1" xmlns="http://www.w3.org/2000/svg" xmlns:xlink="http://www.w3.org/1999/xlink" x="0px" y="0px"
	 width="48px" height="48px" viewBox="0 0 48 48" style="enable-background:new 0 0 48 48;" xml:space="preserve">
<g>
	<defs>
		<rect id="SVGID_1_" width="48" height="48"/>
	</defs>
	<clipPath id="SVGID_2_">
		<use xlink:href="#SVGID_1_"  style="overflow:visible;"/>
	</clipPath>
	<g style="clip-path:url(#SVGID_2_);">
		<defs>
			<rect id="SVGID_3_" width="48" height="48"/>
		</defs>
		<clipPath id="SVGID_4_">
			<use xlink:href="#SVGID_3_"  style="overflow:visible;"/>
		</clipPath>
		<path style="clip-path:url(#SVGID_4_);fill:none;stroke:#000000;stroke-width:2;stroke-miterlimit:10;" d="M38.742,17.381
			c-0.234,1.216-1.164,3-2.718,4.569c-2.242,2.263-5.847,4.384-6.879,4.969L28.998,27l-0.14-0.081
			c-1.036-0.585-4.642-2.706-6.883-4.969c-1.552-1.569-2.483-3.353-2.717-4.569c-0.566-2.909,0.19-6.41,3.079-7.75
			c2.334-1.085,5.908-0.94,6.661,1.793c0.755-2.733,4.329-2.878,6.662-1.793C38.552,10.971,39.308,14.472,38.742,17.381"/>
	</g>
</g>
<g>
	<defs>
		<rect id="SVGID_5_" width="48" height="48"/>
	</defs>
	<clipPath id="SVGID_6_">
		<use xlink:href="#SVGID_5_"  style="overflow:visible;"/>
	</clipPath>
	<g style="clip-path:url(#SVGID_6_);">
		<defs>
			<rect id="SVGID_7_" width="48" height="48"/>
		</defs>
		<clipPath id="SVGID_8_">
			<use xlink:href="#SVGID_7_"  style="overflow:visible;"/>
		</clipPath>
		<path style="clip-path:url(#SVGID_8_);fill:none;stroke:#000000;stroke-width:2;stroke-miterlimit:10;" d="M45,35.472
			C45,40.712,40.712,45,35.472,45H12.527c-5.24,0-9.528-4.288-9.528-9.528V12.528c0-5.241,4.288-9.529,9.528-9.529h22.945
			c5.24,0,9.528,4.288,9.528,9.529V35.472z"/>
	</g>
</g>
</svg>
