<?xml version="1.0" encoding="UTF-8"?>
<!--Generator: Apple Native CoreSVG 175.5-->
<!DOCTYPE svg
PUBLIC "-//W3C//DTD SVG 1.1//EN"
       "http://www.w3.org/Graphics/SVG/1.1/DTD/svg11.dtd">
<svg version="1.1" xmlns="http://www.w3.org/2000/svg" xmlns:xlink="http://www.w3.org/1999/xlink" width="26.6238" height="24.8352">
 <g>
  <rect height="24.8352" opacity="0" width="26.6238" x="0" y="0"/>
  <path d="M2.6327 21.0545Q1.33716 21.0545 0.66858 20.388Q0 19.7215 0 18.4301L0 6.39682Q0 5.10538 0.66858 4.43888Q1.33716 3.77236 2.6327 3.77236L20.0206 3.77236Q21.3182 3.77236 21.9858 4.44304Q22.6534 5.11372 22.6534 6.39682L22.6534 12.2453Q22.471 12.2599 22.299 12.3314Q22.127 12.4029 21.986 12.5106Q21.9486 12.5375 21.9278 12.5583L21.9278 6.43412Q21.9278 5.48884 21.4272 4.99336Q20.9264 4.49786 19.9958 4.49786L2.65764 4.49786Q1.7061 4.49786 1.2158 4.98816Q0.7255 5.47844 0.7255 6.43412L0.7255 18.3928Q0.7255 19.3485 1.2158 19.8388Q1.7061 20.3291 2.65764 20.3291L17.873 20.3291Q17.8668 20.3539 17.8584 20.3912Q17.8522 20.4036 17.8482 20.4212Q17.844 20.4388 17.84 20.4511Q17.8338 20.4718 17.8306 20.4956Q17.8276 20.5193 17.8276 20.54Q17.8276 20.7515 17.9686 21.0545L2.6327 21.0545ZM13.5924 8.52038Q13.4473 8.52038 13.3519 8.42394Q13.2565 8.3275 13.2565 8.19478Q13.2565 8.06414 13.3519 7.96872Q13.4473 7.87332 13.5924 7.87332L19.298 7.87332Q19.4412 7.87332 19.5366 7.96872Q19.632 8.06414 19.632 8.19478Q19.632 8.3275 19.5366 8.42394Q19.4412 8.52038 19.298 8.52038L13.5924 8.52038ZM13.5924 12.7578Q13.4473 12.7578 13.3519 12.6613Q13.2565 12.5649 13.2565 12.4322Q13.2565 12.3015 13.3519 12.2061Q13.4473 12.1107 13.5924 12.1107L19.298 12.1107Q19.4412 12.1107 19.5366 12.2061Q19.632 12.3015 19.632 12.4322Q19.632 12.5649 19.5366 12.6613Q19.4412 12.7578 19.298 12.7578L13.5924 12.7578ZM13.5924 16.9952Q13.4473 16.9952 13.3519 16.8998Q13.2565 16.8044 13.2565 16.6737Q13.2565 16.541 13.3519 16.4446Q13.4473 16.3481 13.5924 16.3481L18.0036 16.3481Q17.9418 16.5304 18.1186 16.9952L13.5924 16.9952ZM6.97944 12.3241Q6.36464 12.3241 5.85788 12.0094Q5.3511 11.6948 5.05514 11.1392Q4.75918 10.5836 4.75918 9.90652Q4.75918 9.26474 5.05618 8.71642Q5.35316 8.1681 5.8641 7.84722Q6.37504 7.52632 6.97944 7.52632Q7.58382 7.52632 8.0958 7.84722Q8.60776 8.1681 8.90374 8.71642Q9.1997 9.26474 9.1997 9.90652Q9.1997 10.5857 8.90374 11.1402Q8.60776 11.6948 8.101 12.0094Q7.59422 12.3241 6.97944 12.3241ZM2.81482 16.9952Q2.6571 16.9952 2.58658 16.906Q2.51606 16.8168 2.51606 16.6507Q2.51606 16.0754 3.03944 15.2071Q3.56284 14.3389 4.57432 13.6887Q5.5858 13.0386 6.97944 13.0386Q8.37308 13.0386 9.38454 13.6887Q10.396 14.3389 10.9205 15.2071Q11.4449 16.0754 11.4449 16.6507Q11.4449 16.8168 11.3744 16.906Q11.3038 16.9952 11.1461 16.9952L2.81482 16.9952ZM19.3796 20.6476Q19.249 20.8136 19.0768 20.7929Q18.9046 20.7721 18.831 20.6051Q18.7574 20.4381 18.888 20.2493Q19.21 19.8152 19.371 19.3301Q19.532 18.8451 19.532 18.3299Q19.532 17.8147 19.371 17.3296Q19.21 16.8446 18.888 16.4104Q18.7574 16.2216 18.831 16.0546Q18.9046 15.8876 19.0768 15.8669Q19.249 15.8462 19.3796 16.0121Q19.7742 16.5438 19.9674 17.1201Q20.1606 17.6964 20.1606 18.3299Q20.1606 18.9633 19.9674 19.5396Q19.7742 20.1159 19.3796 20.6476ZM21.267 21.9167Q21.1486 22.0951 20.965 22.09Q20.7814 22.0848 20.6974 21.9303Q20.6136 21.7757 20.7318 21.5849Q21.1784 20.8474 21.4256 20.0186Q21.6728 19.1898 21.6728 18.3299Q21.6728 17.4699 21.4256 16.6411Q21.1784 15.8123 20.7318 15.0749Q20.6136 14.884 20.6974 14.7295Q20.7814 14.5749 20.965 14.5698Q21.1486 14.5646 21.267 14.743Q21.782 15.5489 22.0416 16.4471Q22.3012 17.3454 22.3012 18.3299Q22.3012 19.3144 22.0416 20.2126Q21.782 21.1109 21.267 21.9167ZM23.0544 23.273Q22.9402 23.4535 22.7566 23.4556Q22.573 23.4577 22.4838 23.3001Q22.3946 23.1424 22.5212 22.937Q23.1382 21.9358 23.4758 20.7466Q23.8132 19.5575 23.8132 18.3299Q23.8132 17.1023 23.4758 15.9131Q23.1382 14.7239 22.5212 13.7228Q22.3946 13.5174 22.4838 13.3597Q22.573 13.202 22.7566 13.2041Q22.9402 13.2062 23.0544 13.3867Q23.7522 14.5332 24.097 15.769Q24.4418 17.0047 24.4418 18.3299Q24.4418 19.655 24.097 20.8908Q23.7522 22.1266 23.0544 23.273ZM24.8978 24.6439Q24.792 24.8265 24.6012 24.8348Q24.4104 24.8431 24.3202 24.6948Q24.23 24.5465 24.3482 24.339Q25.148 22.9993 25.5716 21.4684Q25.9954 19.9376 25.9954 18.3299Q25.9954 16.7222 25.5716 15.1913Q25.148 13.6605 24.3482 12.3207Q24.23 12.1133 24.3202 11.9649Q24.4104 11.8166 24.6012 11.825Q24.792 11.8333 24.8978 12.0159Q25.7536 13.4656 26.1888 15.0555Q26.6238 16.6454 26.6238 18.3299Q26.6238 20.0143 26.1888 21.6042Q25.7536 23.1942 24.8978 24.6439Z" fill="#000000"/>
 </g>
</svg>
