<?xml version="1.0" encoding="utf-8"?>
<!-- Generator: Adobe Illustrator 21.1.0, SVG Export Plug-In . SVG Version: 6.00 Build 0)  -->
<svg version="1.1" id="Layer_1" xmlns="http://www.w3.org/2000/svg" xmlns:xlink="http://www.w3.org/1999/xlink" x="0px" y="0px"
	 viewBox="0 0 24 24" style="enable-background:new 0 0 24 24;" xml:space="preserve">
<style type="text/css">
	.st0{clip-path:url(#SVGID_2_);}
	.st1{clip-path:url(#SVGID_4_);}
	.st2{clip-path:url(#SVGID_6_);}
	.st3{clip-path:url(#SVGID_8_);}
	.st4{clip-path:url(#SVGID_10_);}
	.st5{clip-path:url(#SVGID_12_);}
	.st6{clip-path:url(#SVGID_14_);}
	.st7{clip-path:url(#SVGID_16_);}
	.st8{clip-path:url(#SVGID_18_);}
	.st9{clip-path:url(#SVGID_20_);}
	.st10{clip-path:url(#SVGID_22_);}
	.st11{clip-path:url(#SVGID_24_);}
	.st12{clip-path:url(#SVGID_26_);}
	.st13{clip-path:url(#SVGID_28_);}
	.st14{clip-path:url(#SVGID_30_);fill:none;stroke:#000000;stroke-miterlimit:10;}
</style>
<g>
	<defs>
		<path id="SVGID_1_" d="M1.1,11.9c0-0.3,0.2-0.5,0.5-0.5h19.2c0.3,0,0.5,0.2,0.5,0.5v0c0,0.3-0.2,0.5-0.5,0.5H1.6
			C1.3,12.5,1.1,12.3,1.1,11.9L1.1,11.9z"/>
	</defs>
	<clipPath id="SVGID_2_">
		<use xlink:href="#SVGID_1_"  style="overflow:visible;"/>
	</clipPath>
	<g class="st0">
		<defs>
			<rect id="SVGID_3_" width="24" height="24"/>
		</defs>
		<clipPath id="SVGID_4_">
			<use xlink:href="#SVGID_3_"  style="overflow:visible;"/>
		</clipPath>
		<rect x="-3.9" y="6.4" class="st1" width="30.2" height="11"/>
	</g>
</g>
<g>
	<defs>
		<path id="SVGID_5_" d="M19.5,9.8c0.2-0.2,0.5-0.2,0.7,0l2.1,1.8c0.2,0.2,0.2,0.5,0.1,0.7l0,0c-0.2,0.2-0.5,0.2-0.7,0l-2.1-1.8
			C19.3,10.3,19.3,10,19.5,9.8L19.5,9.8z"/>
	</defs>
	<clipPath id="SVGID_6_">
		<use xlink:href="#SVGID_5_"  style="overflow:visible;"/>
	</clipPath>
	<g class="st2">
		<defs>
			<rect id="SVGID_7_" width="24" height="24"/>
		</defs>
		<clipPath id="SVGID_8_">
			<use xlink:href="#SVGID_7_"  style="overflow:visible;"/>
		</clipPath>
		<rect x="15.4" y="4.1" transform="matrix(0.6561 -0.7547 0.7547 0.6561 -1.1328 19.5684)" class="st3" width="11" height="13.8"/>
	</g>
</g>
<g>
	<defs>
		<path id="SVGID_9_" d="M22.2,11.7c0.2,0.2,0.2,0.5,0,0.7l-2,2c-0.2,0.2-0.5,0.2-0.7,0l0,0c-0.2-0.2-0.2-0.5,0-0.7l2-2
			C21.7,11.5,22,11.5,22.2,11.7L22.2,11.7z"/>
	</defs>
	<clipPath id="SVGID_10_">
		<use xlink:href="#SVGID_9_"  style="overflow:visible;"/>
	</clipPath>
	<g class="st4">
		<defs>
			<rect id="SVGID_11_" width="24" height="24"/>
		</defs>
		<clipPath id="SVGID_12_">
			<use xlink:href="#SVGID_11_"  style="overflow:visible;"/>
		</clipPath>
		<rect x="13.9" y="7.5" transform="matrix(0.7071 -0.7071 0.7071 0.7071 -3.1176 18.555)" class="st5" width="13.8" height="11"/>
	</g>
</g>
<g>
	<defs>
		<path id="SVGID_13_" d="M14.5,3.8c0.2-0.2,0.5-0.2,0.7,0l2.1,1.8c0.2,0.2,0.2,0.5,0.1,0.7l0,0c-0.2,0.2-0.5,0.2-0.7,0l-2.1-1.8
			C14.3,4.3,14.3,4,14.5,3.8L14.5,3.8z"/>
	</defs>
	<clipPath id="SVGID_14_">
		<use xlink:href="#SVGID_13_"  style="overflow:visible;"/>
	</clipPath>
	<g class="st6">
		<defs>
			<rect id="SVGID_15_" width="24" height="24"/>
		</defs>
		<clipPath id="SVGID_16_">
			<use xlink:href="#SVGID_15_"  style="overflow:visible;"/>
		</clipPath>
		<rect x="10.4" y="-1.9" transform="matrix(0.6561 -0.7547 0.7547 0.6561 1.6823 13.7458)" class="st7" width="11" height="13.8"/>
	</g>
</g>
<g>
	<defs>
		<path id="SVGID_17_" d="M12,15.6c0.2-0.2,0.5-0.2,0.7,0l2.1,1.8c0.2,0.2,0.2,0.5,0.1,0.7l0,0c-0.2,0.2-0.5,0.2-0.7,0L12,16.3
			C11.8,16.1,11.8,15.8,12,15.6L12,15.6z"/>
	</defs>
	<clipPath id="SVGID_18_">
		<use xlink:href="#SVGID_17_"  style="overflow:visible;"/>
	</clipPath>
	<g class="st8">
		<defs>
			<rect id="SVGID_19_" width="24" height="24"/>
		</defs>
		<clipPath id="SVGID_20_">
			<use xlink:href="#SVGID_19_"  style="overflow:visible;"/>
		</clipPath>
		<rect x="7.9" y="10" transform="matrix(0.6561 -0.7547 0.7547 0.6561 -8.0954 15.9378)" class="st9" width="11" height="13.8"/>
	</g>
</g>
<g>
	<defs>
		<path id="SVGID_21_" d="M17.2,5.7c0.2,0.2,0.2,0.5,0,0.7l-2,2c-0.2,0.2-0.5,0.2-0.7,0l0,0c-0.2-0.2-0.2-0.5,0-0.7l2-2
			C16.7,5.5,17,5.5,17.2,5.7L17.2,5.7z"/>
	</defs>
	<clipPath id="SVGID_22_">
		<use xlink:href="#SVGID_21_"  style="overflow:visible;"/>
	</clipPath>
	<g class="st10">
		<defs>
			<rect id="SVGID_23_" width="24" height="24"/>
		</defs>
		<clipPath id="SVGID_24_">
			<use xlink:href="#SVGID_23_"  style="overflow:visible;"/>
		</clipPath>
		<rect x="9" y="1.5" transform="matrix(0.7071 -0.7071 0.7071 0.7071 -0.3338 13.2757)" class="st11" width="13.8" height="11"/>
	</g>
</g>
<g>
	<defs>
		<path id="SVGID_25_" d="M14.7,17.5c0.2,0.2,0.2,0.5,0,0.7l-2,2c-0.2,0.2-0.5,0.2-0.7,0l0,0c-0.2-0.2-0.2-0.5,0-0.7l2-2
			C14.2,17.3,14.5,17.3,14.7,17.5L14.7,17.5z"/>
	</defs>
	<clipPath id="SVGID_26_">
		<use xlink:href="#SVGID_25_"  style="overflow:visible;"/>
	</clipPath>
	<g class="st12">
		<defs>
			<rect id="SVGID_27_" width="24" height="24"/>
		</defs>
		<clipPath id="SVGID_28_">
			<use xlink:href="#SVGID_27_"  style="overflow:visible;"/>
		</clipPath>
		
			<rect x="6.5" y="13.3" transform="matrix(0.7071 -0.7071 0.7071 0.7071 -9.4219 14.9824)" class="st13" width="13.8" height="11"/>
	</g>
</g>
<g>
	<defs>
		<rect id="SVGID_29_" width="24" height="24"/>
	</defs>
	<clipPath id="SVGID_30_">
		<use xlink:href="#SVGID_29_"  style="overflow:visible;"/>
	</clipPath>
	<polyline class="st14" points="3.7,12 7.5,17.8 13.8,17.8 	"/>
	<polyline class="st14" points="6.7,11.8 10.5,5.9 16.8,5.9 	"/>
</g>
</svg>
