<?xml version="1.0" encoding="UTF-8"?>
<svg width="168px" height="128px" viewBox="0 0 168 128" version="1.1" xmlns="http://www.w3.org/2000/svg" xmlns:xlink="http://www.w3.org/1999/xlink">
    <!-- Generator: Sketch 54.1 (76490) - https://sketchapp.com -->
    <title>macbookair</title>
    <desc>Created with Sketch.</desc>
    <g id="macbookair" stroke="none" stroke-width="1" fill="none" fill-rule="evenodd">
        <path d="M145.384615,93.1481481 L145.384615,24.3888889 C145.384615,21.5858519 143.858769,20 141,20 L27,20 C24.1412308,20 22.6153846,21.4746667 22.6153846,24.3888889 L22.6153846,93.1481481 L8,93.1481481 C8.15492308,93.4173333 8.37123077,94.0932222 8.61676923,94.0932222 C8.61676923,94.0932222 14.6704615,97.7447778 22.1769231,98.2538889 C29.6775385,98.763 44.3630769,99.0263333 44.3806154,98.9912222 C44.3864615,98.9824444 82.1467692,99 82.1467692,99 L120.056154,98.9912222 C120.056154,98.9912222 137.661846,98.7542222 145.165385,98.2538889 C152.671846,97.7535556 158.725538,94.0932222 158.725538,94.0932222 C158.971077,94.0932222 159.845077,93.4173333 160,93.1481481 L145.384615,93.1481481 Z M29,26 L140,26 L140,93 L29,93 L29,26 Z" id="MacBook_Air" fill="#333333" fill-rule="nonzero"></path>
    </g>
</svg>