<?xml version="1.0" encoding="UTF-8"?>
<svg width="24px" height="17px" viewBox="0 0 24 17" version="1.1" xmlns="http://www.w3.org/2000/svg" xmlns:xlink="http://www.w3.org/1999/xlink">
    <!-- Generator: Sketch 62 (91390) - https://sketch.com -->
    <title>Combined-Shapeportal</title>
    <desc>Created with Sketch.</desc>
    <g id="Page-1" stroke="none" stroke-width="1" fill="none" fill-rule="evenodd">
        <g id="Xcode_-FamilyControls" fill="#000000" fill-rule="nonzero">
            <path d="M12.0041504,9.5436523 C13.1109212,9.5436523 14.1056315,9.7124349 14.9882812,10.05 C15.870931,10.3875651 16.6235352,10.8247396 17.2460937,11.3615234 C17.8686523,11.8983073 18.3445638,12.4710612 18.6738281,13.0797852 C19.0030924,13.6885091 19.1677246,14.2640299 19.1677246,14.8063477 C19.1677246,15.5903103 18.6222898,16.0040684 17.5314203,16.0476219 L17.333252,16.0514648 L6.67504883,16.0514648 C5.4465332,16.0514648 4.83227539,15.6364258 4.83227539,14.8063477 C4.83227539,14.2640299 4.99690755,13.6885091 5.32617187,13.0797852 C5.6554362,12.4710612 6.12996419,11.8983073 6.74975586,11.3615234 C7.36954753,10.8247396 8.12076823,10.3875651 9.00341797,10.05 C9.88606771,9.7124349 10.8863118,9.5436523 12.0041504,9.5436523 Z M5.32911314,10.343924 C5.67742708,10.343924 6.01039767,10.3670337 6.32802493,10.4132531 L6.09508231,10.6056117 C5.82047424,10.8434419 5.5693454,11.0892725 5.34207044,11.3431596 L5.32911314,11.343924 L5.32911314,11.343924 C4.63783985,11.343924 4.03485106,11.4456731 3.51569304,11.6442226 C2.98233869,11.8482013 2.53983619,12.1057166 2.18292778,12.4148248 C1.82226374,12.7271856 1.5561067,13.0484364 1.37805054,13.3776158 C1.26907246,13.5790879 1.20013644,13.7602432 1.16628777,13.9221737 L1.149,14.029 L1.20052091,14.036827 C1.24715456,14.0425387 1.3032499,14.0471405 1.36879948,14.0495738 L1.47421359,14.0514648 L3.90755818,14.0513545 C3.85760254,14.3047456 3.83227539,14.5564614 3.83227539,14.8063477 C3.83227539,14.8907384 3.83591543,14.9727905 3.84309713,15.0524971 L1.47421359,15.0514648 C0.585545154,15.0514648 0.141210937,14.751239 0.141210937,14.1507874 C0.141210937,13.7584923 0.260300513,13.3421792 0.498479665,12.901848 C0.736658817,12.4615168 1.07991701,12.0472051 1.52825423,11.6589131 C1.97659146,11.270621 2.5200002,10.9543831 3.15848044,10.7101995 C3.79696069,10.4660158 4.52050492,10.343924 5.32911314,10.343924 Z M18.8291132,10.343924 C19.6297154,10.343924 20.3492566,10.4660158 20.9877369,10.7101995 C21.6262171,10.9543831 22.1706266,11.270621 22.6209653,11.6589131 C23.0713041,12.0472051 23.415563,12.4615168 23.6537422,12.901848 C23.8919213,13.3421792 24.0110109,13.7584923 24.0110109,14.1507874 C24.0110109,14.7112089 23.6256899,15.0101004 22.8550481,15.0474618 L22.6840127,15.0514648 L20.1569152,15.0525069 C20.1640887,14.9727932 20.1677246,14.8907376 20.1677246,14.8063477 C20.1677246,14.5564614 20.1423975,14.3047456 20.0924418,14.0513545 L22.6840127,14.0514648 C22.7953751,14.0514648 22.8855528,14.0454599 22.9545565,14.0370314 L23.0020001,14.029 L22.985934,13.9221737 C22.9605475,13.8007259 22.9154244,13.668464 22.8484744,13.5249276 L22.7741713,13.3776158 C22.5965279,13.0491995 22.3299679,12.7283976 21.9679591,12.4162656 C21.6085762,12.1063977 21.1644866,11.8484339 20.6305243,11.6442226 C20.1110354,11.4455466 19.5121283,11.343924 18.8291132,11.343924 L18.6598983,11.3470596 C18.4305651,11.0912495 18.1768358,10.8436409 17.8991,10.6041709 L17.6920102,10.4334786 C18.0502463,10.3737755 18.4292807,10.343924 18.8291132,10.343924 Z M12.0041504,10.5646484 C11.0301921,10.5646484 10.1655273,10.7057617 9.41015625,10.9879883 C8.65478516,11.2702148 8.01839193,11.625765 7.50097656,12.0546387 C6.9835612,12.4835124 6.58927409,12.9345215 6.31811523,13.407666 C6.04695638,13.8808105 5.91137695,14.3083008 5.91137695,14.6901367 C5.91137695,14.8174154 5.94596354,14.9045736 6.01513672,14.9516113 C6.07047526,14.9892415 6.16034505,15.0118197 6.28474609,15.0193457 L6.38452148,15.022168 L17.6154785,15.022168 C17.787028,15.022168 17.9087728,14.9986491 17.9807129,14.9516113 C18.052653,14.9045736 18.088623,14.8174154 18.088623,14.6901367 C18.088623,14.3083008 17.9544271,13.8808105 17.6860352,13.407666 C17.4176432,12.9345215 17.0233561,12.4835124 16.5031738,12.0546387 C15.9829915,11.625765 15.3452148,11.2702148 14.5898437,10.9879883 C13.8344727,10.7057617 12.9725749,10.5646484 12.0041504,10.5646484 Z M5.32911314,4.00315461 C5.79746542,4.00315461 6.22378608,4.12324494 6.60807514,4.36342559 C6.99236419,4.60360625 7.29859453,4.92785014 7.52676615,5.33615726 C7.75493777,5.74446437 7.86902359,6.20080762 7.86902359,6.705187 C7.86902359,7.2175724 7.75493777,7.6829224 7.52676615,8.1012371 C7.29859453,8.5195517 6.99236419,8.8538031 6.60807514,9.1039913 C6.22378608,9.3541795 5.79746542,9.4792736 5.32911314,9.4792736 C4.86076085,9.4792736 4.43544094,9.3551803 4.05315339,9.1069936 C3.67086585,8.8588069 3.36663701,8.5245555 3.1404669,8.1042393 C2.91429678,7.6839232 2.79921021,7.2195739 2.7952072,6.71119152 C2.7952072,6.21481816 2.90929301,5.76147717 3.13746464,5.35116855 C3.36563626,4.94085992 3.6718666,4.61361378 4.05615565,4.36943011 C4.4404447,4.12524644 4.86476386,4.00315461 5.32911314,4.00315461 Z M18.8291132,4.00315461 C19.2974655,4.00315461 19.7237861,4.12324494 20.1080752,4.36342559 C20.4923642,4.60360625 20.7985946,4.92785014 21.0267662,5.33615726 C21.2549378,5.74446437 21.3690236,6.20080762 21.3690236,6.705187 C21.3690236,7.2175724 21.2549378,7.6829224 21.0267662,8.1012371 C20.7985946,8.5195517 20.4923642,8.8538031 20.1080752,9.1039913 C19.7237861,9.3541795 19.2974655,9.4792736 18.8291132,9.4792736 C18.3607609,9.4792736 17.935441,9.3551803 17.5531535,9.1069936 C17.1708659,8.8588069 16.8666371,8.5245555 16.640467,8.1042393 C16.4142968,7.6839232 16.2992103,7.2195739 16.2952073,6.71119152 C16.2952073,6.21481816 16.4092931,5.76147717 16.6374647,5.35116855 C16.8656363,4.94085992 17.1718667,4.61361378 17.5561557,4.36943011 C17.9404448,4.12524644 18.3647639,4.00315461 18.8291132,4.00315461 Z M5.32911314,5.00315461 C5.05373645,5.00315461 4.81557959,5.07168087 4.59246213,5.21345343 C4.34993527,5.36755904 4.15926308,5.57131657 4.01142074,5.83717341 C3.86715151,6.09660493 3.7952072,6.38248888 3.7951762,6.70331775 C3.79791836,7.0515721 3.87332174,7.3558083 4.02107261,7.6303896 C4.1685822,7.9045225 4.35802988,8.1126656 4.5976786,8.2682491 C4.81666638,8.4104192 5.05265936,8.4792736 5.32911314,8.4792736 C5.60482878,8.4792736 5.8414491,8.4098427 6.06247325,8.2659468 C6.30654066,8.1070488 6.49922768,7.8967303 6.64887058,7.6223849 C6.79534408,7.3538502 6.86902359,7.0533154 6.86902359,6.705187 C6.86902359,6.36834924 6.79697095,6.0801387 6.65382267,5.82397861 C6.50714068,5.56149505 6.31834075,5.36158924 6.0780762,5.2114239 C5.85412948,5.0714572 5.61165528,5.00315461 5.32911314,5.00315461 Z M18.8291132,5.00315461 C18.5537365,5.00315461 18.3155797,5.07168087 18.0924622,5.21345343 C17.8499353,5.36755904 17.6592631,5.57131657 17.5114208,5.83717341 C17.3671516,6.09660493 17.2952073,6.38248888 17.2951763,6.70331775 C17.2979184,7.0515721 17.3733218,7.3558083 17.5210727,7.6303896 C17.6685823,7.9045225 17.8580299,8.1126656 18.0976787,8.2682491 C18.3166664,8.4104192 18.5526594,8.4792736 18.8291132,8.4792736 C19.1048288,8.4792736 19.3414492,8.4098427 19.5624733,8.2659468 C19.8065407,8.1070488 19.9992277,7.8967303 20.1488706,7.6223849 C20.2953441,7.3538502 20.3690236,7.0533154 20.3690236,6.705187 C20.3690236,6.36834924 20.296971,6.0801387 20.1538227,5.82397861 C20.0071407,5.56149505 19.8183408,5.36158924 19.5780763,5.2114239 C19.3541295,5.0714572 19.1116553,5.00315461 18.8291132,5.00315461 Z M12.0041504,0.77802734 C12.6516113,0.77802734 13.2409668,0.94404297 13.7722168,1.27607422 C14.3034668,1.60810547 14.7268066,2.05634766 15.0422363,2.62080078 C15.357666,3.18525391 15.5153809,3.81611328 15.5153809,4.51337891 C15.5153809,5.22171224 15.357666,5.86502279 15.0422363,6.44331055 C14.7268066,7.0215983 14.3034668,7.4836751 13.7722168,7.829541 C13.2409668,8.1754069 12.6516113,8.3483398 12.0041504,8.3483398 C11.3566895,8.3483398 10.7687174,8.1767904 10.2402344,7.8336914 C9.7117513,7.4905924 9.29117839,7.0285156 8.97851562,6.44746094 C8.66585286,5.86640625 8.50675456,5.22447917 8.5012207,4.52167969 C8.5012207,3.83548177 8.65893555,3.20877279 8.97436523,2.64155273 C9.28979492,2.07433268 9.71313477,1.6219401 10.2443848,1.284375 C10.7756348,0.9468099 11.3622233,0.77802734 12.0041504,0.77802734 Z M12.0041504,1.79902344 C11.5614421,1.79902344 11.1574707,1.92076823 10.7922363,2.16425781 C10.427002,2.4077474 10.1337077,2.73562826 9.91235352,3.14790039 C9.69099935,3.56017253 9.58308919,4.01809896 9.58862305,4.52167969 C9.58862305,5.04739583 9.69791667,5.52192383 9.91650391,5.94526367 C10.1350911,6.36860352 10.4283854,6.70340169 10.7963867,6.9496582 C11.164388,7.1959147 11.5669759,7.319043 12.0041504,7.319043 C12.4523926,7.319043 12.8591309,7.1945312 13.2243652,6.94550781 C13.5895996,6.69648437 13.8815104,6.35891927 14.1000977,5.9328125 C14.3186849,5.50670573 14.4279785,5.0335612 14.4279785,4.51337891 C14.4279785,4.00426432 14.3186849,3.54357096 14.1000977,3.13129883 C13.8815104,2.71902669 13.5895996,2.39391276 13.2243652,2.15595703 C12.8591309,1.9180013 12.4523926,1.79902344 12.0041504,1.79902344 Z" id="Combined-Shape"></path>
        </g>
    </g>
</svg>