<?xml version="1.0" encoding="utf-8"?>
<!-- Generator: Adobe Illustrator 21.1.0, SVG Export Plug-In . SVG Version: 6.00 Build 0)  -->
<svg version="1.1" id="Layer_1" xmlns="http://www.w3.org/2000/svg" xmlns:xlink="http://www.w3.org/1999/xlink" x="0px" y="0px"
	 viewBox="0 0 24 24" style="enable-background:new 0 0 24 24;" xml:space="preserve">
<style type="text/css">
	.st0{clip-path:url(#SVGID_2_);fill:none;stroke:#000000;stroke-linecap:round;stroke-linejoin:round;stroke-miterlimit:10;}
	.st1{clip-path:url(#SVGID_4_);fill:none;stroke:#000000;stroke-width:0.5;stroke-miterlimit:10;}
	.st2{clip-path:url(#SVGID_4_);fill:none;stroke:#000000;stroke-width:0.25;stroke-miterlimit:10;}
	.st3{clip-path:url(#SVGID_6_);}
</style>
<g>
	<defs>
		<rect id="SVGID_1_" width="24" height="24"/>
	</defs>
	<clipPath id="SVGID_2_">
		<use xlink:href="#SVGID_1_"  style="overflow:visible;"/>
	</clipPath>
	<path class="st0" d="M22,9.3c-0.3,0-0.7,0.2-0.9,0.5v0c0,0.1-0.1,0.1-0.1,0.1c0,0,0,0,0,0c-0.6,1-1.4,0.3-1.4,0.3V5.9
		c0-1.9-1.5-3.4-3.4-3.4H3.9c-1.9,0-3.4,1.5-3.4,3.4v4.4c0,0,0.9,0.7,1.4-0.3c0,0,0,0,0,0c0,0,0.1-0.1,0.1-0.1v0
		C2.3,9.4,2.7,9.3,3,9.3c0.6,0,1.5,1,1.5,2.2c0,1.2-0.9,2.2-1.5,2.2c-0.3,0-0.7-0.2-0.9-0.5v0c0-0.1-0.1-0.1-0.1-0.1c0,0,0,0,0,0
		c-0.6-1-1.4-0.3-1.4-0.3v5.5c0,1.9,1.5,3.4,3.4,3.4h12.3c1.9,0,3.4-1.5,3.4-3.4v-5.5c0,0,0.9-0.7,1.4,0.3c0,0,0,0,0,0
		c0,0,0.1,0.1,0.1,0.1v0c0.2,0.3,0.6,0.5,0.9,0.5c0.6,0,1.5-1,1.5-2.2C23.5,10.3,22.6,9.3,22,9.3z"/>
</g>
<g>
	<defs>
		<rect id="SVGID_3_" width="24" height="24"/>
	</defs>
	<clipPath id="SVGID_4_">
		<use xlink:href="#SVGID_3_"  style="overflow:visible;"/>
	</clipPath>
	<path class="st1" d="M19.6,16.9c-0.5,0.1-1,0.1-1.6,0.1c-4.7,0-8.5-3.8-8.5-8.5c0-2.3,0.9-4.4,2.4-6"/>
	<path class="st2" d="M10.7,21.6c-0.7-1.4-1.2-2.9-1.2-4.6c0-5.2,4.3-9.5,9.5-9.5c0.2,0,0.4,0,0.6,0"/>
	<path class="st2" d="M3.6,9.3C4,6.7,4.9,4.4,6.1,2.5"/>
	<path class="st2" d="M7,21.6c-1.8-2.1-3-4.9-3.4-8.1"/>
	<path class="st1" d="M17.4,2.7C14.8,5.7,11.1,7.5,7,7.5c-2.3,0-4.5-0.6-6.4-1.6"/>
	<path class="st1" d="M19.6,14.8c-3.4,2.2-8.7,3.7-14.6,3.7c-1.6,0-3.1-0.1-4.5-0.3"/>
</g>
<g>
	<defs>
		<rect id="SVGID_5_" width="24" height="24"/>
	</defs>
	<clipPath id="SVGID_6_">
		<use xlink:href="#SVGID_5_"  style="overflow:visible;"/>
	</clipPath>
	<path class="st3" d="M5.4,7.2c0,0.7-0.6,1.3-1.3,1.3c-0.7,0-1.3-0.6-1.3-1.3c0-0.7,0.6-1.3,1.3-1.3C4.8,5.8,5.4,6.4,5.4,7.2"/>
	<path class="st3" d="M11.1,7.3c0,0.8-0.7,1.5-1.5,1.5c-0.8,0-1.5-0.7-1.5-1.5c0-0.8,0.7-1.5,1.5-1.5C10.4,5.8,11.1,6.4,11.1,7.3"/>
	<path class="st3" d="M11.8,12.6c0,0.7-0.6,1.3-1.3,1.3c-0.7,0-1.3-0.6-1.3-1.3c0-0.7,0.6-1.3,1.3-1.3
		C11.3,11.3,11.8,11.9,11.8,12.6"/>
	<path class="st3" d="M17.2,16.7c0,0.8-0.6,1.4-1.4,1.4c-0.8,0-1.4-0.6-1.4-1.4s0.6-1.4,1.4-1.4C16.6,15.3,17.2,15.9,17.2,16.7"/>
	<path class="st3" d="M10.8,18.2c0,0.7-0.6,1.2-1.2,1.2c-0.7,0-1.2-0.6-1.2-1.2S8.9,17,9.6,17C10.3,17,10.8,17.5,10.8,18.2"/>
	<path class="st3" d="M6.6,18.5c0,0.9-0.7,1.6-1.6,1.6c-0.9,0-1.6-0.7-1.6-1.6c0-0.9,0.7-1.6,1.6-1.6C5.9,16.9,6.6,17.6,6.6,18.5"/>
</g>
</svg>
