<?xml version="1.0" encoding="UTF-8"?>
<svg width="24px" height="24px" viewBox="0 0 24 24" version="1.1" xmlns="http://www.w3.org/2000/svg" xmlns:xlink="http://www.w3.org/1999/xlink">
    <!-- Generator: Sketch 62 (91390) - https://sketch.com -->
    <title>Time_Sensitive_Notification</title>
    <desc>Created with Sketch.</desc>
    <g id="Page-1" stroke="none" stroke-width="1" fill="none" fill-rule="evenodd">
        <g id="Time_Sensitive_Notification" fill="#000000" fill-rule="nonzero">
            <path d="M13.237,2.0002 C13.1125,2.23945 13.0015,2.486575 12.9065312,2.74199688 L12.817,3.0002 L5.25,3.0002 C2.97591176,3.0002 1.11255363,4.79667318 1.00491154,7.04463362 L1,7.2502 L1,18.7502 C1,21.0252588 2.79647318,22.8877035 5.04443362,22.995291 L5.25,23.0002 L16.75,23.0002 C19.0250588,23.0002 20.8875035,21.2046689 20.995091,18.9558495 L21,18.7502 L21,11.1832 C21.26025,11.0992 21.5131875,10.998325 21.7579687,10.8831063 L22,10.7632 L22,18.7502 C22,21.57185 19.7612781,23.8820638 16.9660841,23.9958109 L16.75,24.0002 L5.25,24.0002 C2.427375,24.0002 0.1180875,21.7605275 0.00438726562,18.9662128 L0,18.7502 L0,7.2502 C0,4.427575 2.23872187,2.1182875 5.03391586,2.00458727 L5.25,2.0002 L13.237,2.0002 Z M19,4.54747351e-13 C21.761,4.54747351e-13 24,2.239 24,5 C24,7.761 21.761,10 19,10 C16.239,10 14,7.761 14,5 C14,2.239 16.239,4.54747351e-13 19,4.54747351e-13 Z M19,2.5 C18.7238576,2.5 18.5,2.72385763 18.5,3 L18.5,3 L18.5,4.5 L17,4.5 C16.7238576,4.5 16.5,4.72385763 16.5,5 C16.5,5.27614237 16.7238576,5.5 17,5.5 L17,5.5 L19,5.5 L19.0898756,5.49194433 C19.3231248,5.44960837 19.5,5.24545989 19.5,5 L19.5,5 L19.5,3 C19.5,2.72385763 19.2761424,2.5 19,2.5 Z" id="Combined-Shape"></path>
        </g>
    </g>
</svg>