<?xml version="1.0" encoding="iso-8859-1"?>
<!-- Generator: Adobe Illustrator 15.0.0, SVG Export Plug-In . SVG Version: 6.00 Build 0)  -->
<!DOCTYPE svg PUBLIC "-//W3C//DTD SVG 1.1//EN" "http://www.w3.org/Graphics/SVG/1.1/DTD/svg11.dtd">
<svg version="1.1" id="Layer_1" xmlns="http://www.w3.org/2000/svg" xmlns:xlink="http://www.w3.org/1999/xlink" x="0px" y="0px"
	 width="48px" height="48px" viewBox="0 0 48 48" style="enable-background:new 0 0 48 48;" xml:space="preserve">
<g>
	<defs>
		<rect id="SVGID_1_" width="48" height="48"/>
	</defs>
	<clipPath id="SVGID_2_">
		<use xlink:href="#SVGID_1_"  style="overflow:visible;"/>
	</clipPath>
	<g style="clip-path:url(#SVGID_2_);">
		<defs>
			<rect id="SVGID_3_" width="48" height="48"/>
		</defs>
		<clipPath id="SVGID_4_">
			<use xlink:href="#SVGID_3_"  style="overflow:visible;"/>
		</clipPath>
		<path style="clip-path:url(#SVGID_4_);fill:none;stroke:#000000;stroke-width:2;stroke-miterlimit:10;" d="M47,29.5
			c0-4.738-3.471-8.653-8.007-9.371C38.994,20.085,39,20.043,39,20c0-6.075-4.925-11-11-11c-4.503,0-8.369,2.709-10.071,6.584
			C16.846,14.024,15.043,13,13,13c-3.313,0-6,2.687-6,6c0,0.553,0.081,1.085,0.221,1.593C3.592,21.93,1,25.407,1,29.5
			c0,5.247,4.253,9.5,9.5,9.5c0.169,0,0.333-0.017,0.5-0.025V39h27v-0.025C43.013,38.713,47,34.578,47,29.5z"/>
	</g>
</g>
</svg>
