<?xml version="1.0" encoding="iso-8859-1"?>
<!-- Generator: Adobe Illustrator 24.0.0, SVG Export Plug-In . SVG Version: 6.00 Build 0)  -->
<svg version="1.1" id="Layer_1" xmlns="http://www.w3.org/2000/svg" xmlns:xlink="http://www.w3.org/1999/xlink" x="0px" y="0px"
	 viewBox="0 0 24 24" style="enable-background:new 0 0 24 24;" xml:space="preserve">
<g>
	<defs>
		<path id="SVGID_1_" d="M8.978,1.421L8.943,1.43C5.932,2.3,3.451,4.423,2.102,7.197C3.48,5.464,5.535,4.135,7.915,3.467
			C8.073,2.577,8.427,1.895,8.978,1.421z M7.825,4.347L7.708,4.384c-2.027,0.652-3.762,1.82-4.947,3.304
			c0.885,0.646,1.736,1.255,2.557,1.83c0.977-0.345,2.086-0.431,3.325-0.259C8.05,7.285,7.777,5.647,7.825,4.347z M13.099,4.969
			c-0.738-1.029-2.501-1.332-4.626-0.803C8.342,4.199,8.213,4.233,8.084,4.27C8.017,5.571,8.3,7.247,8.934,9.304
			c1.033,0.174,2.151,0.522,3.356,1.044l-0.093-0.039C13.615,7.824,13.849,6.015,13.099,4.969z M12,1
			c-0.736,0-1.455,0.072-2.151,0.21c-0.875,0.384-1.426,1.11-1.654,2.183l0.08-0.021c2.415-0.601,4.513-0.24,5.489,1.121
			c0.964,1.344,0.714,3.431-0.809,6.138c0.179,0.076,0.356,0.149,0.531,0.221c0.788-0.327,1.517-0.57,2.186-0.731
			c0.985-0.237,1.844-0.294,2.576-0.173c0.791-0.6,1.437-1.206,1.905-1.802c0.666-0.848,0.967-1.661,0.875-2.43
			c-1.072-1.536-2.525-2.786-4.223-3.612c-0.124-0.048-0.252-0.096-0.383-0.144l-0.55-0.195c-0.849-0.291-1.629-0.51-2.34-0.656
			C13.033,1.036,12.52,1,12,1z M17.937,10.179c-0.635-0.063-1.369,0.006-2.201,0.206c-0.582,0.14-1.21,0.344-1.886,0.612
			c0.608,0.244,1.19,0.463,1.747,0.658c0.758-0.422,1.455-0.854,2.08-1.29L17.937,10.179z M8.823,9.835
			C7.734,9.652,6.754,9.677,5.883,9.91c1.469,1.019,2.832,1.922,4.089,2.709l-0.185-0.116c-0.366-0.922-0.681-1.792-0.945-2.607
			L8.823,9.835z M9.121,9.889l0.048,0.145c0.262,0.787,0.572,1.624,0.929,2.514c0.367-0.211,0.723-0.408,1.071-0.593
			c0.106-0.168,0.217-0.34,0.331-0.513l0.197-0.304c0.076-0.12,0.15-0.238,0.222-0.355L11.77,10.72
			C10.826,10.329,9.943,10.052,9.121,9.889z M18.32,10.236l-0.181,0.135c-0.651,0.475-1.389,0.945-2.196,1.404
			c1.966,0.667,3.593,1.023,4.879,1.075C20.433,11.358,19.604,10.489,18.32,10.236z M21.316,6.148L21.31,6.225
			c-0.061,0.671-0.378,1.37-0.942,2.088c-0.445,0.567-1.043,1.14-1.768,1.708c1.28,0.333,2.119,1.28,2.505,2.834
			c0.757,0.003,1.385-0.108,1.883-0.332C22.996,12.35,23,12.176,23,12C23,9.849,22.383,7.843,21.316,6.148z M10.875,12.424
			l-0.215,0.118l-0.426,0.241l0.312,0.193C10.651,12.794,10.761,12.61,10.875,12.424z M13.137,11.298l-0.097,0.041
			c-0.233,0.104-0.471,0.215-0.715,0.333l-0.143,0.22l-0.203,0.311c-0.267,0.414-0.513,0.812-0.737,1.195
			c0.106,0.063,0.209,0.124,0.312,0.184c1.213-0.498,2.356-1.029,3.401-1.579C14.374,11.793,13.768,11.558,13.137,11.298z
			 M2.594,7.904c-1.284,1.719-1.843,3.833-1.3,6.054c0.841-2.198,2.084-3.64,3.715-4.324C4.201,9.066,3.362,8.465,2.491,7.83
			L2.594,7.904z M9.962,12.94l-0.448,0.265c-1.065,0.637-2.202,1.374-3.413,2.21c1.169-0.299,2.457-0.702,3.762-1.178
			c0.11-0.221,0.228-0.448,0.354-0.678l0.029,0.068C10.149,13.395,10.054,13.166,9.962,12.94z M5.552,10.013l-0.15,0.051
			c-1.761,0.661-3.038,2.258-3.848,4.798c0.103-0.024,0.22-0.032,0.353-0.022c0.526,0.037,1.318,0.334,2.387,0.889l0.121,0.063
			l0.044-0.007c0.291-0.054,0.595-0.118,0.91-0.19c1.561-1.099,3.007-2.039,4.337-2.82C8.428,11.971,7.043,11.051,5.552,10.013z
			 M1.495,15.173L1.47,15.192c0.076,0.25,0.16,0.496,0.253,0.738c0.423,0.12,1.196,0.107,2.248-0.06l-0.25-0.124
			c-0.813-0.394-1.426-0.605-1.834-0.634C1.713,15.099,1.583,15.118,1.495,15.173z M15.301,12.13l-0.082,0.042
			c-1.035,0.552-2.168,1.083-3.37,1.583c1.992,1.16,3.665,1.971,5.018,2.434c3.211,1.099,4.531,0.249,4.103-2.605
			c-0.009-0.063-0.02-0.125-0.03-0.186C19.461,13.363,17.583,12.938,15.301,12.13z M4.37,16.077l-0.145,0.027L3.741,16.18
			c-0.802,0.114-1.443,0.136-1.895,0.056c0.205,0.489,0.443,0.961,0.714,1.411c0.684-0.518,1.349-1.009,1.994-1.474
			C4.491,16.141,4.43,16.109,4.37,16.077z M9.691,14.589l-0.338,0.12c-1.362,0.476-2.69,0.866-3.87,1.139
			c-0.137,0.096-0.278,0.195-0.419,0.296c0.981,0.554,2.158,1.286,3.526,2.196C8.637,17.3,8.996,16.049,9.691,14.589z M9.462,19.257
			l0.014,0.057c0.272,1.046,1.108,1.678,2.418,1.954c0.177,0.037,0.366,0.067,0.563,0.089C11.381,20.585,10.383,19.885,9.462,19.257
			z M22.943,13.127l-0.088,0.032c-0.471,0.154-1.017,0.235-1.639,0.241l0.023,0.143c0.462,3.076-1.072,4.063-4.461,2.904
			c-1.411-0.483-3.16-1.336-5.247-2.561c-0.239,0.096-0.481,0.192-0.725,0.287c-0.007,0.01-0.012,0.02-0.018,0.031l0.286,0.645
			c0.88,1.97,1.953,4.148,3.221,6.531c2.14-0.134,4.459-0.755,5.057-1.314l0.058,0.063C21.356,18.355,22.661,15.893,22.943,13.127z
			 M10.627,14.511c-0.958,1.855-1.343,3.297-1.228,4.373c1.085,0.736,2.279,1.574,3.583,2.512c0.326,0.017,0.666,0.016,1.015,0.002
			c-1.243-2.343-2.298-4.486-3.166-6.429L10.627,14.511z M16.939,21.832l-0.112,0.023c-0.673,0.143-1.394,0.254-2.107,0.316
			c0.026,0.048,0.053,0.098,0.08,0.148l0.153,0.28C15.644,22.407,16.309,22.149,16.939,21.832z M4.816,16.32l-0.455,0.33
			c-0.682,0.496-1.384,1.02-2.107,1.572l0.449-0.341C4.653,20.958,8.088,23,12,23c0.814,0,1.607-0.088,2.37-0.256l-0.711-0.518
			c-0.7,0.01-1.364-0.037-1.935-0.158c-2.009-0.424-3.105-1.555-3.14-3.402C7.108,17.679,5.852,16.897,4.816,16.32z M12,0
			c6.627,0,12,5.373,12,12c0,5.431-3.608,10.02-8.558,11.499l0.031,0.055l-0.063-0.046C14.329,23.828,13.185,24,12,24
			C5.373,24,0,18.627,0,12C0,5.374,5.374,0,12,0z"/>
	</defs>
	<use xlink:href="#SVGID_1_"  style="overflow:visible;fill-rule:evenodd;clip-rule:evenodd;"/>
	<clipPath id="SVGID_2_">
		<use xlink:href="#SVGID_1_"  style="overflow:visible;"/>
	</clipPath>
	<rect x="-5" y="-5" style="clip-path:url(#SVGID_2_);" width="34" height="34"/>
</g>
</svg>
