<?xml version="1.0" encoding="utf-8"?>
<!-- Generator: Adobe Illustrator 21.1.0, SVG Export Plug-In . SVG Version: 6.00 Build 0)  -->
<svg version="1.1" id="Layer_1" xmlns="http://www.w3.org/2000/svg" xmlns:xlink="http://www.w3.org/1999/xlink" x="0px" y="0px"
	 viewBox="0 0 24 24" style="enable-background:new 0 0 24 24;" xml:space="preserve">
<style type="text/css">
	.st0{clip-path:url(#SVGID_2_);fill:none;stroke:#000000;stroke-width:1.25;stroke-linecap:round;stroke-miterlimit:10;}
	.st1{clip-path:url(#SVGID_4_);}
	.st2{clip-path:url(#SVGID_6_);}
</style>
<g>
	<defs>
		<rect id="SVGID_1_" width="24" height="24"/>
	</defs>
	<clipPath id="SVGID_2_">
		<use xlink:href="#SVGID_1_"  style="overflow:visible;"/>
	</clipPath>
	<path class="st0" d="M17.9,4.1C19.2,6.3,20,9,20,11.8c0,2.8-0.8,5.5-2.2,7.7"/>
	<path class="st0" d="M14.8,6.2c1,1.6,1.5,3.6,1.5,5.6s-0.6,4-1.5,5.6"/>
	<path class="st0" d="M11.7,8.3c0.6,1,0.9,2.2,0.9,3.5c0,1.3-0.3,2.4-0.9,3.5"/>
	<path class="st0" d="M4.7,8.3c-0.6,1-0.9,2.2-0.9,3.5c0,1.3,0.3,2.4,0.9,3.5"/>
</g>
<g>
	<defs>
		<path id="SVGID_3_" d="M4.4,8.1c0.2-0.2,0.6-0.2,0.9,0l6.8,7c0.2,0.2,0.2,0.6,0,0.9c-0.2,0.2-0.6,0.2-0.9,0L4.4,9
			C4.1,8.7,4.1,8.3,4.4,8.1z"/>
	</defs>
	<clipPath id="SVGID_4_">
		<use xlink:href="#SVGID_3_"  style="overflow:visible;"/>
	</clipPath>
	<g class="st1">
		<defs>
			<rect id="SVGID_5_" width="24" height="24"/>
		</defs>
		<clipPath id="SVGID_6_">
			<use xlink:href="#SVGID_5_"  style="overflow:visible;"/>
		</clipPath>
		<rect x="2.6" y="1.5" transform="matrix(0.7193 -0.6947 0.6947 0.7193 -6.0549 9.078)" class="st2" width="11.3" height="21"/>
	</g>
</g>
</svg>
