<?xml version="1.0" encoding="UTF-8"?>
<!--Generator: Apple Native CoreSVG 175.5-->
<!DOCTYPE svg
PUBLIC "-//W3C//DTD SVG 1.1//EN"
       "http://www.w3.org/Graphics/SVG/1.1/DTD/svg11.dtd">
<svg version="1.1" xmlns="http://www.w3.org/2000/svg" xmlns:xlink="http://www.w3.org/1999/xlink" width="12.6356" height="17.0278">
 <g>
  <rect height="17.0278" opacity="0" width="12.6356" x="0" y="0"/>
  <path d="M6.30863 12.4723C9.73989 12.4723 12.5559 9.66331 12.5559 6.23908C12.5559 2.82188 9.73716 0.00585794 6.30589 0.00585794C2.88167 0.00585794 0.0754046 2.82188 0.0754046 6.23908C0.0754046 9.66331 2.8844 12.4723 6.30863 12.4723ZM6.30863 11.8496C3.20941 11.8496 0.695353 9.33283 0.695353 6.23908C0.695353 3.14963 3.20941 0.618775 6.30589 0.618775C9.40941 0.618775 11.9332 3.14963 11.9332 6.23908C11.9332 9.33283 9.41214 11.8496 6.30863 11.8496ZM0.874257 3.72658C2.61175 5.18245 4.85159 6.01683 7.2758 5.9887C8.99768 5.97464 10.6301 5.49612 12.0321 4.65353L11.8356 4.17187C10.4903 4.99376 8.92698 5.45002 7.26877 5.48517C4.91956 5.51603 2.75198 4.67188 1.07934 3.22461ZM0.399246 7.0344C3.62854 9.73441 8.14144 10.2379 11.8477 8.4469L11.8914 7.84571C8.21527 9.77463 3.6305 9.26838 0.441051 6.3922ZM3.31019 11.286L3.93912 11.4938C3.70395 10.8969 3.55121 10.2933 3.47817 9.64097C2.87663 6.10428 4.23131 2.64493 6.80709 0.40432L6.21372 0.24689C3.68286 2.59609 2.39692 6.10506 2.9844 9.69996C3.02659 10.2308 3.14729 10.7633 3.31019 11.286ZM7.43676 11.9942L7.94653 11.8129C6.8438 10.1879 6.22739 8.24611 6.22739 6.1715C6.22739 4.14768 6.82192 2.25276 7.88364 0.648072L7.4094 0.446506C6.32112 2.11213 5.71956 4.08635 5.71956 6.1715C5.71956 8.30275 6.33714 10.3012 7.43676 11.9942ZM11.186 9.6305L11.4907 9.21525C9.4602 8.07189 8.12622 5.97345 7.99692 3.5336C7.95903 2.57306 8.12232 1.63478 8.4602 0.787518L7.97738 0.640249C7.62152 1.54454 7.45121 2.53009 7.49613 3.54766C7.60159 6.14181 9.05276 8.40979 11.186 9.6305ZM3.52621 5.95433C3.99145 5.95433 4.38715 5.57268 4.38715 5.09494C4.38715 4.62267 3.99145 4.22697 3.52621 4.22697C3.04144 4.22697 2.66253 4.62267 2.66253 5.09494C2.66253 5.57268 3.04144 5.95433 3.52621 5.95433ZM8.27035 6.53948C8.7145 6.53948 9.07505 6.17619 9.07505 5.72228C9.07505 5.28946 8.7145 4.91759 8.27035 4.91759C7.82074 4.91759 7.46019 5.28946 7.46019 5.72228C7.46019 6.17619 7.82074 6.53948 8.27035 6.53948ZM6.5391 10.095C7.02113 10.095 7.40278 9.73713 7.40278 9.25236C7.40278 8.77033 7.02113 8.39572 6.5391 8.39572C6.06136 8.39572 5.69378 8.77033 5.69378 9.25236C5.69378 9.73713 6.06136 10.095 6.5391 10.095ZM5.96135 15.2727L6.67427 15.2727L6.67427 12.0496L5.96135 12.0496ZM6.31293 17.0278C7.12309 17.0278 7.78716 16.361 7.78716 15.5606C7.78716 14.7504 7.12309 14.0864 6.31293 14.0864C5.51253 14.0864 4.84572 14.7504 4.84572 15.5606C4.84572 16.361 5.51253 17.0278 6.31293 17.0278ZM0.330484 15.8489L12.3051 15.8489C12.4821 15.8489 12.6356 15.7024 12.6356 15.5227C12.6356 15.3387 12.4821 15.1922 12.3051 15.1922L0.330484 15.1922C0.153522 15.1922 0 15.3387 0 15.5227C0 15.7024 0.153522 15.8489 0.330484 15.8489Z" fill="#000000"/>
 </g>
</svg>
