<?xml version="1.0" encoding="UTF-8"?>
<svg width="89px" height="88px" viewBox="0 0 89 88" version="1.1" xmlns="http://www.w3.org/2000/svg" xmlns:xlink="http://www.w3.org/1999/xlink">
    <title>Group</title>
    <g id="Page-1" stroke="none" stroke-width="1" fill="none" fill-rule="evenodd">
        <g id="Group" transform="translate(0.8297, 0.1377)" fill="#000000" fill-rule="nonzero">
            <path d="M20.904271,77.56325 L28.863271,77.56325 C29.596271,77.56325 30.133271,77.75825 30.670271,78.29625 L36.334271,83.91125 C41.461271,89.08725 46.295271,89.03825 51.422271,83.91125 L57.086271,78.29625 C57.623271,77.75825 58.160271,77.56325 58.942271,77.56325 L66.852271,77.56325 C74.078271,77.56325 77.545271,74.14525 77.545271,66.87025 L77.545271,58.91125 C77.545271,58.17825 77.789271,57.64125 78.326271,57.10425 L83.893271,51.44025 C89.068271,46.31325 89.020271,41.47925 83.893271,36.30325 L78.326271,30.68825 C77.789271,30.15125 77.545271,29.56525 77.545271,28.83325 L77.545271,20.92325 C77.545271,13.69625 74.127271,10.18025 66.852271,10.18025 L58.942271,10.18025 C58.160271,10.18025 57.623271,9.98525 57.086271,9.44825 L51.422271,3.88125 C46.295271,-1.29375 41.461271,-1.29375 36.334271,3.88125 L30.670271,9.44825 C30.133271,9.98525 29.596271,10.18025 28.863271,10.18025 L20.904271,10.18025 C13.629271,10.18025 10.211271,13.59825 10.211271,20.92325 L10.211271,28.83325 C10.211271,29.56525 10.016271,30.15125 9.47927097,30.68825 L3.86327097,36.30325 C-1.31172903,41.47925 -1.26372903,46.31325 3.86327097,51.44025 L9.47927097,57.10425 C10.016271,57.64125 10.211271,58.17825 10.211271,58.91125 L10.211271,66.87025 C10.211271,74.09625 13.629271,77.56325 20.904271,77.56325 Z M20.904271,70.63025 C17.584271,70.63025 17.145271,70.19025 17.145271,66.87025 L17.145271,56.66525 C17.145271,55.44425 16.754271,54.51625 15.924271,53.68625 L8.74627097,46.55725 C6.40227097,44.16525 6.40227097,43.62825 8.74627097,41.18625 L15.924271,34.10625 C16.754271,33.22725 17.145271,32.29925 17.145271,31.12825 L17.145271,20.92325 C17.145271,17.50525 17.535271,17.16325 20.904271,17.16325 L31.110271,17.16325 C32.330271,17.16325 33.258271,16.82125 34.088271,15.89325 L41.217271,8.76425 C43.610271,6.37225 44.147271,6.37225 46.539271,8.76425 L53.668271,15.89325 C54.547271,16.82125 55.475271,17.16325 56.647271,17.16325 L66.852271,17.16325 C70.172271,17.16325 70.611271,17.55325 70.611271,20.92325 L70.611271,31.12825 C70.611271,32.29925 71.002271,33.22725 71.881271,34.10625 L79.010271,41.18625 C81.402271,43.62825 81.402271,44.16525 79.010271,46.55725 L71.881271,53.68625 C71.002271,54.51625 70.611271,55.44425 70.611271,56.66525 L70.611271,66.87025 C70.611271,70.19025 70.172271,70.63025 66.852271,70.63025 L56.647271,70.63025 C55.475271,70.63025 54.547271,70.97125 53.668271,71.85025 L46.539271,79.02825 C44.147271,81.37225 43.610271,81.37225 41.217271,79.02825 L34.088271,71.85025 C33.258271,70.97125 32.330271,70.63025 31.110271,70.63025 L20.904271,70.63025 Z" id="Shape"></path>
            <path d="M39.703271,62.03625 C41.168271,62.03625 42.389271,61.35225 43.219271,59.98525 L60.065271,33.42325 C60.553271,32.54425 61.139271,31.56725 61.139271,30.59025 C61.139271,28.63725 59.381271,27.41725 57.574271,27.41725 C56.451271,27.41725 55.328271,28.05125 54.547271,29.37025 L39.508271,53.68625 L32.770271,44.60425 C31.744271,43.18825 30.768271,42.84625 29.596271,42.84625 C27.643271,42.84625 26.227271,44.36025 26.227271,46.31325 C26.227271,47.24125 26.568271,48.16925 27.203271,48.99925 L35.943271,59.98525 C37.067271,61.45025 38.238271,62.03625 39.703271,62.03625 L39.703271,62.03625 Z" id="Path"></path>
        </g>
    </g>
</svg>