<?xml version="1.0" encoding="UTF-8"?>
<svg width="45px" height="45px" viewBox="0 0 45 45" version="1.1" xmlns="http://www.w3.org/2000/svg" xmlns:xlink="http://www.w3.org/1999/xlink">
    <!-- Generator: Sketch 62 (91390) - https://sketch.com -->
    <title>Dashed-Square-Thin</title>
    <desc>Created with Sketch.</desc>
    <g id="Dashed-Square-Thin" stroke="none" stroke-width="1" fill="none" fill-rule="evenodd">
        <g id="dashed-square-thin" transform="translate(2.000000, 2.000000)" fill="#000000" fill-rule="nonzero">
            <path d="M25.8333333,38.3333333 C26.2935667,38.3333333 26.6666667,38.7064293 26.6666667,39.1666667 C26.6666667,39.626904 26.2935667,40 25.8333333,40 L14.1666667,40 C13.70643,40 13.3333333,39.626904 13.3333333,39.1666667 C13.3333333,38.7064293 13.70643,38.3333333 14.1666667,38.3333333 L25.8333333,38.3333333 Z M1.08009884,29.9134834 C1.53650933,29.8542567 1.954515,30.1762383 2.01374166,30.63265 C2.040605,30.8396667 2.12562333,31.2370667 2.29608,31.759685 C2.58359834,32.6412133 3.00993333,33.5233916 3.59967,34.3436716 C4.87325833,36.1151333 6.72621166,37.3579884 9.30363333,37.8541133 C9.75557502,37.9411067 10.0514233,38.3779983 9.96442996,38.8299392 C9.87743662,39.28188 9.44054329,39.5777285 8.98860329,39.4907352 C5.979465,38.9115115 3.76138833,37.4237516 2.24643834,35.316575 C1.5496355,34.3473767 1.0493885,33.3122567 0.711563167,32.2764884 C0.565313,31.8280884 0.469242834,31.4462284 0.411895667,31.153745 L0.411895667,31.153745 L0.360932834,30.8471267 C0.301706667,30.3907167 0.623688167,29.97271 1.08009884,29.9134834 Z M38.5858167,29.9075217 L38.7361,29.9134834 C39.1925,29.97271 39.5144834,30.3907167 39.4552667,30.8471267 L39.4552667,30.8471267 L39.4043,31.153745 L39.36515,31.3397783 C39.3065167,31.601635 39.2216333,31.9177684 39.1046333,32.2764884 C38.7668,33.3122567 38.26655,34.3473767 37.56975,35.316575 C36.0548,37.4237516 33.8367333,38.9115115 30.8275834,39.4907352 L30.8275834,39.4907352 L30.6779667,39.5058647 L30.5322,39.4945017 C30.19875,39.438532 29.9194166,39.1814486 29.8517667,38.8299392 C29.7647667,38.3779983 30.0606166,37.9411067 30.51255,37.8541133 C33.0899834,37.3579884 34.9429333,36.1151333 36.2165166,34.3436716 C36.8062667,33.5233916 37.2326,32.6412133 37.5201167,31.759685 C37.6905667,31.2370667 37.7755834,30.8396667 37.80245,30.63265 C37.8616834,30.1762383 38.2796834,29.8542567 38.7361,29.9134834 L38.5858167,29.9075217 Z M26.5423167,5.1023 C29.4476667,5.1023 30.5012167,5.40481667 31.5633667,5.97285 C32.6255166,6.5409 33.4591,7.37448333 34.02715,8.43663333 L34.21655,8.81418333 L34.3650667,9.16121671 C34.69105,9.99655004 34.8725166,11.0448833 34.89525,13.02 L34.8977,26.542325 C34.8977,29.4476684 34.5951834,30.5012166 34.02715,31.5633667 C33.4591,32.6255183 32.6255166,33.4591 31.5633667,34.027145 L31.1858166,34.216545 L30.8387833,34.3650617 C30.00345,34.69105 28.9551166,34.87251 26.98,34.895255 L13.457675,34.897695 C10.5523316,34.897695 9.49878338,34.5951884 8.43663333,34.027145 C7.37448167,33.4591 6.5409,32.6255183 5.972855,31.5633667 L5.783455,31.1858183 C5.36753,30.2915684 5.13464,29.2547133 5.10543834,27.0361884 L5.102305,13.4576833 C5.102305,10.5523333 5.40481167,9.49878329 5.972855,8.43663333 C6.5409,7.37448333 7.37448167,6.5409 8.43663333,5.97285 L8.81418167,5.78345 C9.70843164,5.36753333 10.7452867,5.13463333 12.9638116,5.10543333 L26.5423167,5.1023 Z M26.5427,6.71955 L12.9850983,6.72253333 C11.2644017,6.74518333 10.3732366,6.88173333 9.69289164,7.1618 L9.53934996,7.229 L9.19932169,7.39896667 C8.419005,7.81628333 7.81627833,8.419 7.39896166,9.19931662 C6.95502,10.0294166 6.76554833,10.8377833 6.72711166,12.6681667 L6.71954667,13.4573 L6.72254,27.0149017 C6.74519,28.7355983 6.88173667,29.6267633 7.16180833,30.3071084 L7.22900166,30.46065 L7.39896166,30.8006783 C7.81627833,31.580995 8.419005,32.1837217 9.19932169,32.6010383 C10.02942,33.04498 10.8377817,33.2344516 12.6684233,33.2728884 L13.457675,33.2804533 L26.5423167,33.2804533 C28.5667333,33.2804533 29.56505,33.1431833 30.3056166,32.8387933 L30.46065,32.7709983 L30.8006834,32.6010383 C31.581,32.1837217 32.1837166,31.580995 32.6010333,30.8006783 C33.0449834,29.97058 33.23445,29.1622183 33.2728833,27.3315767 L33.28045,26.542325 L33.28045,13.4576833 C33.28045,11.4332667 33.1431834,10.43495 32.8388,9.69438329 L32.771,9.53934996 L32.6010333,9.19931662 C32.1837166,8.419 31.581,7.81628333 30.8006834,7.39896667 C29.9705833,6.95501667 29.1622166,6.76555 27.3315833,6.72711667 L26.5427,6.71955 Z M0.833333333,13.3333333 C1.29357067,13.3333333 1.66666667,13.7064333 1.66666667,14.1666667 L1.66666667,25.8333333 C1.66666667,26.29357 1.29357067,26.6666667 0.833333333,26.6666667 C0.373096,26.6666667 0,26.29357 0,25.8333333 L0,14.1666667 C0,13.7064333 0.373096,13.3333333 0.833333333,13.3333333 Z M39.1666667,13.3333333 C39.6269,13.3333333 40,13.7064333 40,14.1666667 L40,25.8333333 C40,26.29357 39.6269,26.6666667 39.1666667,26.6666667 C38.7064333,26.6666667 38.3333333,26.29357 38.3333333,25.8333333 L38.3333333,14.1666667 C38.3333333,13.7064333 38.7064333,13.3333333 39.1666667,13.3333333 Z M9.96442996,0.97855 C10.0514233,1.4305 9.75557502,1.86738333 9.30363333,1.95438333 C6.72621166,2.4505 4.87325833,3.69335 3.59967,5.46481667 C3.00993333,6.2851 2.58359834,7.16728333 2.29608,8.0488 C2.12562333,8.57141667 2.040605,8.96881662 2.01374166,9.17584996 C1.954515,9.63224996 1.53650933,9.95423333 1.08009884,9.895 C0.623688167,9.83578329 0.301706667,9.41778329 0.360932834,8.96136667 L0.411895667,8.65475 C0.469242834,8.36226667 0.565313,7.9804 0.711563167,7.532 C1.0493885,6.49623333 1.5496355,5.46111667 2.24643834,4.49191667 C3.76138833,2.38473333 5.979465,0.896983333 8.98860329,0.31775 C9.44054329,0.230766667 9.87743662,0.526616667 9.96442996,0.97855 Z M30.6779667,0.302633333 L30.8275834,0.31775 C33.8367333,0.896983333 36.0548,2.38473333 37.56975,4.49191667 C38.26655,5.46111667 38.7668,6.49623333 39.1046333,7.532 C39.2216333,7.89071667 39.3065167,8.20685 39.36515,8.46871667 L39.4043,8.65475 L39.4552667,8.96136667 C39.5144834,9.41778329 39.1925,9.83578329 38.7361,9.895 C38.2796834,9.95423333 37.8616834,9.63224996 37.80245,9.17584996 C37.7755834,8.96881662 37.6905667,8.57141667 37.5201167,8.0488 C37.2326,7.16728333 36.8062667,6.2851 36.2165166,5.46481667 C34.9429333,3.69335 33.0899834,2.4505 30.51255,1.95438333 C30.0606166,1.86738333 29.7647667,1.4305 29.8517667,0.97855 C29.9194166,0.62705 30.19875,0.369966667 30.5322,0.313983333 L30.6779667,0.302633333 Z M25.8333333,0 C26.2935667,0 26.6666667,0.3731 26.6666667,0.833333333 C26.6666667,1.29356667 26.2935667,1.66666667 25.8333333,1.66666667 L14.1666667,1.66666667 C13.70643,1.66666667 13.3333333,1.29356667 13.3333333,0.833333333 C13.3333333,0.3731 13.70643,0 14.1666667,0 L25.8333333,0 Z" id="path-1"></path>
        </g>
    </g>
</svg>