<?xml version="1.0" encoding="UTF-8"?>
<svg width="81px" height="66px" viewBox="0 0 81 66" version="1.1" xmlns="http://www.w3.org/2000/svg" xmlns:xlink="http://www.w3.org/1999/xlink">
    <title>Light-S</title>
    <g id="Page-1" stroke="none" stroke-width="1" fill="none" fill-rule="evenodd">
        <g id="water.waves.and.arrow.down" transform="translate(-1113.000000, -630.000000)" fill="#000000" fill-rule="nonzero">
            <g id="Symbols" transform="translate(496.616000, 629.447300)">
                <g id="Light-S" transform="translate(616.619620, 1.407700)">
                    <path d="M39.91018,12.5503 C50.10398,12.5503 51.75248,4.7866 58.07418,4.7866 C64.54248,4.7866 65.54928,12.5503 77.21488,12.5503 L77.41018,12.5503 C78.72218,12.5503 79.78668,11.4858 79.78668,10.1738 C79.78668,8.8432 78.72218,7.7636 77.41018,7.7636 L77.21488,7.7636 C72.99908,7.7636 70.60158,6.0161 67.72068,3.9804 C65.23048,2.1738 62.22318,0 58.07418,0 C53.76028,0 50.71928,2.3051 48.22898,4.1606 C45.59228,6.1626 43.40868,7.7636 39.91018,7.7636 C36.37798,7.7636 34.19438,6.1626 31.55768,4.1606 C29.06738,2.3051 26.02638,0 21.74608,0 C17.56348,0 14.57128,2.1738 12.08108,3.9804 C9.20018,6.0161 6.78758,7.7636 2.60548,7.7636 L2.41018,7.7636 C1.07958,7.7636 0,8.8432 0,10.1738 C0,11.4858 1.07958,12.5503 2.41018,12.5503 L2.60548,12.5503 C14.27098,12.5503 15.27788,4.7866 21.74608,4.7866 C28.06788,4.7866 29.68258,12.5503 39.91018,12.5503 Z M21.74608,28.3613 C26.17338,28.3613 28.17188,32.0932 32.44438,34.1543 L32.44438,31.5151 C32.44438,30.4287 32.44438,29.2446 32.44438,28.1245 C31.48678,27.6801 30.65378,27.0659 29.80228,26.4702 C27.60008,24.9365 25.04928,23.541 21.74608,23.541 C17.56348,23.541 14.57128,25.7148 12.08108,27.5215 C9.20018,29.5571 6.78758,31.3047 2.60548,31.3047 L2.41018,31.3047 C1.07958,31.3047 0,32.3843 0,33.7148 C0,35.0454 1.07958,36.125 2.41018,36.125 L2.60548,36.125 C14.27098,36.125 15.27788,28.3613 21.74608,28.3613 Z M58.07418,28.3613 C64.54248,28.3613 65.54928,36.125 77.21488,36.125 L77.41018,36.125 C78.72218,36.125 79.78668,35.0454 79.78668,33.7148 C79.78668,32.3843 78.72218,31.3047 77.41018,31.3047 L77.21488,31.3047 C72.99908,31.3047 70.60158,29.5571 67.72068,27.5215 C65.23048,25.7148 62.22318,23.541 58.07418,23.541 C54.73728,23.541 52.22018,24.9365 49.98438,26.4702 C49.13278,27.0659 48.31498,27.6801 47.40628,28.1245 C47.40628,29.2446 47.40628,30.395 47.40628,31.5151 L47.40628,34.1391 C51.62988,32.0781 53.64698,28.3613 58.07418,28.3613 Z M29.84478,46.7163 C27.55278,46.7163 26.64848,48.8686 27.97708,50.6064 L37.79838,63.64988 C39.08498,65.327131 40.69828,65.293439 41.99998,63.64988 L51.77248,50.5727 C53.10108,48.8686 52.16308,46.7163 49.93848,46.7163 L29.84478,46.7163 Z M37.21188,49.9639 L42.57128,49.9639 L42.57128,22.7744 C42.57128,21.3428 41.32328,20.1435 39.89158,20.1435 C38.42628,20.1435 37.21188,21.3428 37.21188,22.7744 L37.21188,49.9639 Z" id="Shape"></path>
                </g>
            </g>
        </g>
    </g>
</svg>