<?xml version="1.0" encoding="UTF-8"?>
<svg width="113px" height="74px" viewBox="0 0 113 74" version="1.1" xmlns="http://www.w3.org/2000/svg" xmlns:xlink="http://www.w3.org/1999/xlink">
    <title>Light-S</title>
    <g id="ExportsFromSFSymbolsPasteBoard" stroke="none" stroke-width="1" fill="none" fill-rule="evenodd">
        <g id="puzzlepiece" transform="translate(-1097.000000, -624.000000)" fill="#000000" fill-rule="nonzero">
            <g id="Symbols" transform="translate(470.422000, 620.707000)">
                <g id="Light-S" transform="translate(626.733620, 3.390200)">
                    <path d="M34.41508,73.20017 L47.20608,73.20017 C50.16998,73.20017 52.09128,71.25339 52.09128,68.78805 C52.09128,67.41891 51.54738,66.04635 50.24558,64.65035 C48.52838,62.69577 47.39698,60.5659 47.39698,58.0947 C47.39698,53.376 50.70018,49.7627 55.96288,49.7627 C61.22558,49.7627 64.52878,53.376 64.52878,58.0947 C64.52878,60.5659 63.43118,62.69577 61.68018,64.65035 C60.41208,66.04635 59.86818,67.41891 59.86818,68.78805 C59.86818,71.25339 61.78958,73.20017 64.75338,73.20017 L77.54448,73.20017 C84.74858,73.20017 88.65678,69.37448 88.65678,62.28317 L88.65678,48.2119 C88.65678,47.542 89.16508,47.1465 89.93608,47.707 C92.30138,49.3706 95.06538,50.8047 98.57138,50.8047 C105.77138,50.8047 111.95938,45.1621 111.95938,36.8457 C111.95938,28.5107 105.77138,22.8867 98.57138,22.8867 C95.06538,22.8867 92.30138,24.3022 89.93608,25.9995 C89.16508,26.5112 88.65678,26.1645 88.65678,25.4609 L88.65678,10.917 C88.65678,3.8256 84.74858,0 77.54448,0 L64.75338,0 C61.78958,0 59.86818,1.9467 59.86818,4.4121 C59.86818,5.7812 60.41208,7.1538 61.68018,8.5498 C63.43118,10.5044 64.52878,12.6342 64.52878,15.1054 C64.52878,19.7334 61.13478,23.4375 55.96288,23.4375 C50.82468,23.4375 47.39698,19.7334 47.39698,15.1054 C47.39698,12.6342 48.52838,10.5044 50.24558,8.5498 C51.54738,7.1538 52.09128,5.7812 52.09128,4.4121 C52.09128,1.9467 50.16998,0 47.20608,0 L34.41508,0 C27.17728,0 23.26908,3.8256 23.26908,10.917 L23.26908,25.4609 C23.26908,26.1645 22.79448,26.5112 22.02348,25.9995 C19.62398,24.3022 16.89458,22.8867 13.35448,22.8867 C6.18848,22.8867 1.77635684e-15,28.5107 1.77635684e-15,36.8457 C1.77635684e-15,45.1621 6.18848,50.8047 13.35448,50.8047 C16.89458,50.8047 19.62398,49.3706 22.02348,47.707 C22.79448,47.1465 23.26908,47.542 23.26908,48.2119 L23.26908,62.28317 C23.26908,69.37448 27.17728,73.20017 34.41508,73.20017 Z M34.51268,67.7734 C30.89458,67.7734 28.69578,65.67233 28.69578,61.9985 L28.69578,45.6176 C28.69578,42.6386 26.78268,40.7324 24.28368,40.7324 C22.94828,40.7324 21.56058,41.2949 20.14598,42.563 C18.20998,44.2802 16.09518,45.4116 13.62408,45.4116 C8.99608,45.4116 5.25828,41.9838 5.25828,36.8457 C5.25828,31.6889 8.99608,28.2798 13.62408,28.2798 C16.09518,28.2798 18.20998,29.3774 20.14598,31.1284 C21.56058,32.3965 22.94828,32.9741 24.28368,32.9741 C26.78268,32.9741 28.69578,31.019 28.69578,28.0551 L28.69578,11.2016 C28.69578,7.5278 30.89458,5.4267 34.51268,5.4267 L44.07278,5.4267 C45.73828,5.4267 45.35888,6.3393 44.84718,7.144 C43.35208,9.4087 42.00388,11.9697 42.00388,15.3413 C42.00388,22.541 47.66158,28.6958 55.96288,28.6958 C64.29788,28.6958 69.95558,22.541 69.95558,15.3413 C69.95558,11.9697 68.60748,9.4087 67.11228,7.144 C66.56688,6.3393 66.22118,5.4267 67.88678,5.4267 L77.44678,5.4267 C81.06498,5.4267 83.22998,7.5278 83.22998,11.2016 L83.22998,28.0551 C83.22998,31.019 85.17678,32.9741 87.67578,32.9741 C89.01128,32.9741 90.38338,32.3965 91.77938,31.1284 C93.73438,29.3774 95.84938,28.2798 98.33538,28.2798 C102.96338,28.2798 106.66738,31.6889 106.66738,36.8457 C106.66738,41.9838 102.96338,45.4116 98.33538,45.4116 C95.84938,45.4116 93.73438,44.2802 91.77938,42.563 C90.38338,41.2949 89.01128,40.7324 87.67578,40.7324 C85.17678,40.7324 83.22998,42.6386 83.22998,45.6176 L83.22998,61.9985 C83.22998,65.67233 81.06498,67.7734 77.44678,67.7734 L67.88678,67.7734 C66.22118,67.7734 66.56688,66.8608 67.11228,66.05611 C68.60748,63.79147 69.95558,61.2304 69.95558,57.8589 C69.95558,50.5532 64.40378,44.5044 55.96288,44.5044 C47.54058,44.5044 42.00388,50.5532 42.00388,57.8589 C42.00388,61.2304 43.35208,63.79147 44.84718,66.05611 C45.35888,66.8608 45.73828,67.7734 44.07278,67.7734 L34.51268,67.7734 Z" id="Shape"></path>
                </g>
            </g>
        </g>
    </g>
</svg>