<?xml version="1.0" encoding="UTF-8"?>
<!--Generator: Apple Native CoreSVG 175.5-->
<!DOCTYPE svg
PUBLIC "-//W3C//DTD SVG 1.1//EN"
       "http://www.w3.org/Graphics/SVG/1.1/DTD/svg11.dtd">
<svg version="1.1" xmlns="http://www.w3.org/2000/svg" xmlns:xlink="http://www.w3.org/1999/xlink" width="25.2064" height="20.3622">
 <g>
  <rect height="20.3622" opacity="0" width="25.2064" x="0" y="0"/>
  <path d="M3.72034 15.7942L4.5547 15.7942L4.5547 18.5539C4.5547 18.9192 4.75979 19.1446 5.07074 19.1446C5.30317 19.1446 5.48052 19.0172 5.71765 18.816L9.22741 15.7942L17.0508 15.7942C19.3563 15.7942 20.7711 14.3543 20.7711 12.0766L20.7711 3.72855C20.7711 1.45079 19.3563 0.0152349 17.0508 0.0152349L3.72034 0.0152349C1.40782 0.0152349 0 1.43673 0 3.72855L0 12.0766C0 14.3754 1.40782 15.7942 3.72034 15.7942ZM3.73441 15.0656C1.86721 15.0656 0.72855 13.9148 0.72855 12.0527L0.72855 3.75237C0.72855 1.89729 1.86721 0.736754 3.73441 0.736754L17.0297 0.736754C18.859 0.736754 20.0426 1.89729 20.0426 3.75237L20.0426 12.0527C20.0426 13.9148 18.859 15.0656 17.0297 15.0656L9.3024 15.0656C8.99458 15.0656 8.83364 15.1254 8.58207 15.3656L5.23911 18.3348L5.23911 15.4211C5.23911 15.1652 5.13247 15.0656 4.88636 15.0656Z" fill="#000000"/>
  <path d="M12.2267 17.4868L17.4367 17.4868L20.4383 20.0618C20.6543 20.2532 20.829 20.3622 21.0235 20.3622C21.3177 20.3622 21.5016 20.1438 21.5016 19.8235L21.5016 17.4868L22.2059 17.4868C24.1466 17.4868 25.2064 16.4301 25.2064 14.5031L25.2064 8.09497C25.2064 6.16525 24.1466 5.09453 22.2059 5.09453L12.2267 5.09453C10.279 5.09453 9.21919 6.16525 9.21919 8.09497L9.21919 14.5172C9.21919 16.4539 10.279 17.4868 12.2267 17.4868Z" fill="#ffffff"/>
  <path d="M12.2267 17.4868L17.4367 17.4868L20.4383 20.0618C20.6543 20.2532 20.829 20.3622 21.0235 20.3622C21.3177 20.3622 21.5016 20.1438 21.5016 19.8235L21.5016 17.4868L22.2059 17.4868C24.1466 17.4868 25.2064 16.4301 25.2064 14.5031L25.2064 8.09497C25.2064 6.16525 24.1466 5.09453 22.2059 5.09453L12.2267 5.09453C10.279 5.09453 9.21919 6.16525 9.21919 8.09497L9.21919 14.5172C9.21919 16.4539 10.279 17.4868 12.2267 17.4868ZM12.3122 16.7653C10.7145 16.7653 9.9575 16.0004 9.9575 14.4273L9.96454 8.17778C9.96454 6.61175 10.7145 5.82308 12.3122 5.82308L22.1161 5.82308C23.711 5.82308 24.4708 6.61175 24.4708 8.17778L24.4708 14.4035C24.4708 15.9863 23.704 16.7653 22.1161 16.7653L21.1684 16.7653C20.9665 16.7653 20.8102 16.8785 20.8102 17.1161L20.8102 19.4778L18.0157 17.0137C17.7918 16.8164 17.6379 16.7653 17.3852 16.7653Z" fill="#000000"/>
  <path d="M17.2204 12.6012C17.4489 12.6012 17.5903 12.4387 17.5958 12.1711L17.6735 7.99379C17.672 7.718 17.488 7.52815 17.2177 7.52815C16.9446 7.52815 16.7633 7.71526 16.7688 7.99379L16.8395 12.1711C16.845 12.436 16.9907 12.6012 17.2204 12.6012ZM17.2177 15.1059C17.5931 15.1059 17.9001 14.7914 17.9001 14.4274C17.9001 14.066 17.5958 13.7586 17.2177 13.7586C16.8395 13.7586 16.5423 14.0688 16.5423 14.4274C16.5423 14.7887 16.8423 15.1059 17.2177 15.1059Z" fill="#000000"/>
 </g>
</svg>
