<?xml version="1.0" encoding="UTF-8"?>
<svg width="76px" height="94px" viewBox="0 0 76 94" version="1.1" xmlns="http://www.w3.org/2000/svg" xmlns:xlink="http://www.w3.org/1999/xlink">
    <title>Thin-S</title>
    <g id="Page-1" stroke="none" stroke-width="1" fill="none" fill-rule="evenodd">
        <g id="arrow.down.app.2.stack.3d" transform="translate(-818.000000, -613.000000)" fill="#000000" fill-rule="nonzero">
            <g id="Symbols" transform="translate(499.386868, 607.084000)">
                <g id="Thin-S" transform="translate(319.509534, 6.839800)">
                    <path d="M37.7186985,45.336 C38.1542985,45.336 38.5213985,45.2051 38.9217985,44.8321 L52.8553985,31.1016 C53.2010985,30.7969 53.3534985,30.4375 53.3534985,30.002 C53.3534985,29.1934 52.6678985,28.5215 51.8670985,28.5215 C51.4588985,28.5215 51.0370985,28.7227 50.7186985,29.0547 L43.5194985,36.2539 L39.2538985,40.5605 L39.3573985,35.207 L39.3573985,1.6113 C39.3573985,0.7188 38.6385985,0 37.7186985,0 C36.8475985,0 36.1151985,0.7188 36.1151985,1.6113 L36.1151985,35.207 L36.1971985,40.5957 L31.9178985,36.2539 L24.7323985,29.0547 C24.4003985,28.7227 23.9432985,28.5215 23.5702985,28.5215 C22.6991985,28.5215 22.0838985,29.1934 22.0838985,30.002 C22.0838985,30.4375 22.2499985,30.7969 22.5467985,31.1016 L36.5506985,44.8321 C36.9647985,45.2051 37.3319985,45.336 37.7186985,45.336 Z M27.3436985,57.7832 C34.2772985,62.4825 41.2440985,62.4473 48.1425985,57.7832 L70.6717985,42.3926 C76.9100985,38.1524 76.1932985,30.5723 70.6717985,26.8379 L48.1425985,11.4473 C46.6757985,10.4551 45.2362985,9.7012 43.7479985,9.1641 L43.7479985,12.9981 C44.7831985,13.4376 45.8046985,13.9688 46.7772985,14.6407 L68.7264985,29.3946 C72.6600985,32.045 72.7655985,37.0801 68.7264985,39.8008 L45.9920985,55.1016 C40.5096985,58.791 34.9413985,58.791 29.4452985,55.1016 L6.71089851,39.8008 C2.67179851,37.0801 2.77729851,32.045 6.71089851,29.3946 L28.7088985,14.6407 C29.6815985,13.9688 30.7166985,13.4239 31.6893985,12.9981 L31.6893985,9.1641 C30.2498985,9.7012 28.7967985,10.4551 27.3436985,11.4473 L4.76559851,26.8379 C-0.742251494,30.5723 -1.45904149,38.1524 4.76559851,42.3926 L27.3436985,57.7832 Z M26.9784985,88.94536 C33.8905985,93.6446 40.8788985,93.6094 47.7772985,88.94536 L70.3202985,73.55474 C76.5448985,69.3282 75.7929985,61.6992 70.3202985,57.9649 L57.8651985,49.5235 L54.9276985,51.5332 L68.3397985,60.5352 C72.2733985,63.1719 72.3788985,68.2422 68.3397985,70.9629 L45.6405985,86.26369 C40.1444985,89.95314 34.5897985,89.95314 29.0936985,86.26369 L6.35939851,70.9629 C2.32029851,68.2422 2.42579851,63.1719 6.35939851,60.5352 L20.2401985,51.2325 L17.3241985,49.2227 L4.41399851,57.9649 C-1.10748149,61.6992 -1.82428149,69.3282 4.41399851,73.55474 L26.9784985,88.94536 Z" id="Shape"></path>
                </g>
            </g>
        </g>
    </g>
</svg>