<?xml version="1.0" encoding="UTF-8"?>
<svg width="45px" height="45px" viewBox="0 0 45 45" version="1.1" xmlns="http://www.w3.org/2000/svg" xmlns:xlink="http://www.w3.org/1999/xlink">
    <title>MDM</title>
    <defs>
        <path d="M45,0.25 L45,45.25 L0,45.25 L0,0.25 L45,0.25 Z M38.6495787,16.75 L6.35042126,16.75 L6.35042126,28.8033694 L38.6495787,28.8033694 L38.6495787,16.75 Z" id="path-1"></path>
    </defs>
    <g id="MDM" stroke="none" stroke-width="1" fill="none" fill-rule="evenodd">
        <mask id="mask-2" fill="white">
            <use xlink:href="#path-1"></use>
        </mask>
        <g id="Combined-Shape"></g>
        <g id="portal-associated-domains" mask="url(#mask-2)">
            <g transform="translate(3.333333, 3.583333)">
                <circle id="Oval" stroke="#000000" stroke-width="2" cx="19.1666667" cy="19.1666667" r="19.1666667"></circle>
                <g id="Group" stroke="none" stroke-width="1" fill-rule="evenodd" transform="translate(5.000000, 5.833333)">
                    <path d="M0.288333333,26.5508333 C3.77916667,23.0291667 8.70583333,20.8333333 14.1666667,20.8333333 C19.6241667,20.8333333 24.5491667,23.0266667 28.0391667,26.5458333" id="Path" stroke="#000000" stroke-width="1.961"></path>
                    <path d="M28.0458333,0.115833333 C24.5533333,3.6375 19.6275,5.83333333 14.1666667,5.83333333 C8.70583333,5.83333333 3.77833333,3.6375 0.2875,0.115" id="Path" stroke="#000000" stroke-width="1.961"></path>
                </g>
                <g id="Group" stroke="none" stroke-width="1" fill-rule="evenodd">
                    <path d="M29.0808333,19.1666667 C29.0808333,29.7525 24.6383333,38.3333333 19.1658333,38.3333333 C13.6975,38.3333333 9.2525,29.7525 9.2525,19.1666667 C9.2525,8.58333333 13.6975,0 19.1658333,0 C24.6383333,0 29.0808333,8.58333333 29.0808333,19.1666667 Z" id="Path" stroke="#000000" stroke-width="2"></path>
                    <line x1="38.3333333" y1="19.1666667" x2="0" y2="19.1666667" id="Path" stroke="#000000" stroke-width="2"></line>
                    <line x1="19.1658333" y1="38.3333333" x2="19.1658333" y2="0" id="Path" stroke="#000000" stroke-width="2"></line>
                </g>
            </g>
        </g>
        <path d="M10.1632031,27 L10.1632031,21 L10.2042188,21 L12.6475781,27 L13.6788281,27 L16.1221875,21 L16.1632031,21 L16.1632031,27 L17.5225781,27 L17.5225781,18.5449219 L15.7764844,18.5449219 L13.1866406,24.9960937 L13.1397656,24.9960937 L10.5499219,18.5449219 L8.79796875,18.5449219 L8.79796875,27 L10.1632031,27 Z M22.1533594,27 C24.6846094,27 26.1728906,25.4296875 26.1728906,22.7519531 C26.1728906,20.0742187 24.67875,18.5449219 22.1533594,18.5449219 L19.0654688,18.5449219 L19.0654688,27 L22.1533594,27 Z M21.9951563,25.7226562 L20.5771875,25.7226562 L20.5771875,19.8222656 L21.9951563,19.8222656 C23.6826563,19.8222656 24.631875,20.8652344 24.631875,22.7578125 C24.631875,24.6855469 23.694375,25.7226562 21.9951563,25.7226562 Z M28.7880469,27 L28.7880469,21 L28.8290625,21 L31.2724219,27 L32.3036719,27 L34.7470312,21 L34.7880469,21 L34.7880469,27 L36.1474219,27 L36.1474219,18.5449219 L34.4013281,18.5449219 L31.8114844,24.9960937 L31.7646094,24.9960937 L29.1747656,18.5449219 L27.4228125,18.5449219 L27.4228125,27 L28.7880469,27 Z" fill="#000000" fill-rule="nonzero"></path>
    </g>
</svg>