<?xml version="1.0" encoding="UTF-8"?>
<svg width="24px" height="24px" viewBox="0 0 24 24" version="1.1" xmlns="http://www.w3.org/2000/svg" xmlns:xlink="http://www.w3.org/1999/xlink">
    <!-- Generator: Sketch 62 (91390) - https://sketch.com -->
    <title>Communication_Notification</title>
    <desc>Created with Sketch.</desc>
    <g id="Page-1" stroke="none" stroke-width="1" fill="none" fill-rule="evenodd">
        <g id="Communication_Notification" fill="#000000" fill-rule="nonzero">
            <path d="M13.237,2.0002 C13.1125,2.23945 13.0015,2.486575 12.9065312,2.74199688 L12.817,3.0002 L5.25,3.0002 C2.97591176,3.0002 1.11255363,4.79667318 1.00491154,7.04463362 L1,7.2502 L1,18.7502 C1,21.0252588 2.79647318,22.8877035 5.04443362,22.995291 L5.25,23.0002 L16.75,23.0002 C19.0250588,23.0002 20.8875035,21.2046689 20.995091,18.9558495 L21,18.7502 L21,11.1832 C21.26025,11.0992 21.5131875,10.998325 21.7579687,10.8831063 L22,10.7632 L22,18.7502 C22,21.57185 19.7612781,23.8820638 16.9660841,23.9958109 L16.75,24.0002 L5.25,24.0002 C2.427375,24.0002 0.1180875,21.7605275 0.00438726562,18.9662128 L0,18.7502 L0,7.2502 C0,4.427575 2.23872187,2.1182875 5.03391586,2.00458727 L5.25,2.0002 L13.237,2.0002 Z M19,4.54747351e-13 C21.761,4.54747351e-13 24,2.239 24,5 C24,7.761 21.761,10 19,10 C16.239,10 14,7.761 14,5 C14,2.239 16.239,4.54747351e-13 19,4.54747351e-13 Z M18.9414062,6.625 C18.5019531,6.625 18.0885417,6.67708333 17.7011719,6.78125 C17.3138021,6.88541667 16.9703776,7.03597005 16.6708984,7.23291016 C16.3714193,7.42985026 16.1305339,7.66829427 15.9482422,7.94824219 C16.195638,8.21191406 16.4820964,8.43652344 16.8076172,8.62207031 C17.133138,8.80761719 17.4781901,8.94921875 17.8427734,9.046875 C18.2073568,9.14453125 18.5735677,9.19335938 18.9414062,9.19335938 C19.3059896,9.19335938 19.6713867,9.14453125 20.0375977,9.046875 C20.4038086,8.94921875 20.7488607,8.80761719 21.0727539,8.62207031 C21.3966471,8.43652344 21.6822917,8.21191406 21.9296875,7.94824219 C21.7473958,7.66503906 21.5048828,7.42496745 21.2021484,7.22802734 C20.8994141,7.03108724 20.5551758,6.88134766 20.1694336,6.77880859 C19.7836914,6.67626953 19.374349,6.625 18.9414062,6.625 Z M18.9414063,2.09863281 C18.625651,2.09863281 18.3391927,2.18245443 18.0820313,2.35009766 C17.8248698,2.51774089 17.6206055,2.73909505 17.4692383,3.01416016 C17.3178711,3.28922526 17.2438151,3.59277344 17.2470703,3.92480469 C17.2470703,4.27636719 17.3219401,4.59130859 17.4716797,4.86962891 C17.6214193,5.14794922 17.824056,5.36930339 18.0795898,5.53369141 C18.3351237,5.69807943 18.6223958,5.78190104 18.9414063,5.78515625 C19.2571615,5.78515625 19.542806,5.70377604 19.7983398,5.54101563 C20.0538737,5.37825521 20.2573242,5.15608724 20.4086914,4.87451172 C20.5600586,4.5929362 20.6357422,4.27636719 20.6357422,3.92480469 C20.6357422,3.59277344 20.5600586,3.28922526 20.4086914,3.01416016 C20.2573242,2.73909505 20.0530599,2.51774089 19.7958984,2.35009766 C19.538737,2.18245443 19.2539063,2.09863281 18.9414063,2.09863281 Z" id="Combined-Shape"></path>
        </g>
    </g>
</svg>