<?xml version="1.0" encoding="UTF-8"?>
<svg width="90px" height="66px" viewBox="0 0 90 66" version="1.1" xmlns="http://www.w3.org/2000/svg" xmlns:xlink="http://www.w3.org/1999/xlink">
    <title>Light-S</title>
    <g id="ExportsFromSFSymbolsPasteBoard" stroke="none" stroke-width="1" fill="none" fill-rule="evenodd">
        <g id="externaldrive" transform="translate(-1108.000000, -628.000000)" fill="#000000" fill-rule="nonzero">
            <g id="Symbols" transform="translate(489.828000, 623.832000)">
                <g id="Light-S" transform="translate(618.577620, 4.728500)">
                    <path d="M1.77635684e-15,47.7598 C1.77635684e-15,57.1407 7.30958,64.49908 17.46538,64.49908 L71.98488,64.49908 C82.14068,64.49908 89.45018,57.1407 89.45018,47.7598 C89.45018,44.9629 88.60158,42.4473 87.64018,40.0933 L74.34138,8.8726 C71.90478,3.0328 66.97758,0 60.47758,0 L29.00638,0 C22.47268,0 17.54538,3.0328 15.10888,8.8726 L1.79488,40.0933 C0.83348,42.4322 1.77635684e-15,44.9629 1.77635684e-15,47.7598 Z M5.42678,47.7598 C5.42678,41.3584 10.32278,36.4625 17.46538,36.4625 L71.98488,36.4625 C79.12748,36.4625 84.03858,41.3584 84.03858,47.7598 C84.03858,54.7676 79.12748,59.03862 71.98488,59.03862 L17.46538,59.03862 C10.32278,59.03862 5.42678,54.1426 5.42678,47.7598 Z M11.26178,32.2945 L20.33688,10.316 C21.84378,6.6573 24.92678,4.7901 29.20708,4.7901 L60.29198,4.7901 C64.52348,4.7901 67.64018,6.6573 69.11328,10.316 L78.18848,32.2793 C76.29788,31.4917 74.22218,31.0357 71.98488,31.0357 L17.46538,31.0357 C15.21288,31.0357 13.13718,31.4917 11.26178,32.2945 Z M67.18948,47.7598 C67.18948,50.4185 69.35988,52.4273 71.93948,52.4273 C74.42138,52.4273 76.59178,50.3394 76.59178,47.7598 C76.59178,45.2593 74.42138,43.1075 71.93948,43.1075 C69.35988,43.1075 67.18948,45.2593 67.18948,47.7598 Z" id="Shape"></path>
                </g>
            </g>
        </g>
    </g>
</svg>