<?xml version="1.0" encoding="UTF-8"?>
<svg width="96px" height="64px" viewBox="0 0 96 64" version="1.1" xmlns="http://www.w3.org/2000/svg" xmlns:xlink="http://www.w3.org/1999/xlink">
    <title>Light-S</title>
    <g id="ExportsFromSFSymbolsPasteBoard" stroke="none" stroke-width="1" fill="none" fill-rule="evenodd">
        <g id="video" transform="translate(-1108.000000, -629.000000)" fill="#000000" fill-rule="nonzero">
            <g id="Symbols" transform="translate(486.584600, 626.224600)">
                <g id="Light-S" transform="translate(622.348300, 3.202200)">
                    <path d="M14.4912,62.63863 L54.9971,62.63863 C64.0981,62.63863 69.4697,57.36812 69.4697,48.2822 L69.4697,14.3564 C69.4697,5.2705 64.0981,0 54.9971,0 L14.4912,0 C5.7271,0 0,5.2705 0,14.3564 L0,48.2822 C0,57.36812 5.3564,62.63863 14.4912,62.63863 Z M15.4512,57.54536 C8.9912,57.54536 5.4116,54.2236 5.4116,47.457 L5.4116,15.1816 C5.4116,8.415 8.9912,5.0932 15.4512,5.0932 L54.0371,5.0932 C60.4634,5.0932 64.043,8.415 64.043,15.1816 L64.043,47.457 C64.043,54.2236 60.4634,57.54536 54.0371,57.54536 L15.4512,57.54536 Z M68.6631,21.0156 L68.6631,27.4091 L86.9028,12.4843 C87.3555,12.1074 87.729,11.8769 88.1396,11.8769 C88.6748,11.8769 88.9691,12.3027 88.9691,13.0229 L88.9691,49.6157 C88.9691,50.3359 88.6748,50.7617 88.1396,50.7617 C87.729,50.7617 87.3555,50.4975 86.9028,50.1542 L68.6631,35.2294 L68.6631,41.623 L84.3008,54.7221 C85.8027,55.9648 87.4126,56.78317 88.9781,56.78317 C92.1221,56.78317 94.2121,54.4946 94.2121,51.083 L94.2121,11.5556 C94.2121,8.144 92.1221,5.8554 88.9781,5.8554 C87.4126,5.8554 85.8027,6.6738 84.3008,7.9165 L68.6631,21.0156 Z" id="Shape"></path>
                </g>
            </g>
        </g>
    </g>
</svg>