<?xml version="1.0" encoding="UTF-8"?>
<svg width="24px" height="24px" viewBox="0 0 24 24" version="1.1" xmlns="http://www.w3.org/2000/svg" xmlns:xlink="http://www.w3.org/1999/xlink">
    <!-- Generator: Sketch 54.1 (76490) - https://sketchapp.com -->
    <title>Xcode_AppleSignIn</title>
    <desc>Created with Sketch.</desc>
    <defs>
        <path d="M11.98853,22.499994 C14.73148,22.496951 17.30033,21.402633 19.21084,19.498196 C19.00893,19.404401 18.83304,19.322515 18.4637,19.150456 L18.45365,19.145776 C17.24843,18.584308 16.71103,18.335731 16.03889,18.031445 C15.49651,17.785953 15.05383,17.418093 14.56832,16.866207 C14.39555,16.669783 14.21802,16.482649 13.9382,16.197742 C13.59392,15.847128 13.52141,15.33138 13.86927,14.95349 C14.0934,14.710188 14.17313,14.419132 14.20526,13.83183 C14.22485,13.47499 14.36744,13.18966 14.66519,12.97396 C14.76272,12.90331 14.84806,12.79344 14.86336,12.73433 C14.98002,12.28365 15.06676,11.79487 15.13553,11.23159 C15.12943,11.28139 15.12269,11.26268 15.08469,11.18853 C15.05575,11.13213 15.03994,11.10027 15.02214,11.06077 C14.96098,10.92502 14.92585,10.80019 14.92558,10.65749 C14.9253,10.53568 14.94147,10.41625 14.97142,10.28644 C14.98896,10.21046 15.00476,10.15394 15.04111,10.03106 C15.09258,9.85708 15.10952,9.78654 15.1145,9.71843 C15.17896,8.83788 15.13568,8.1553 14.94697,7.53111 C14.71971,6.77937 14.18795,6.26746 13.29822,5.86523 C13.11201,5.78101 12.95176,5.72185 12.5829,5.59556 L12.58122,5.59498 C12.4543,5.55152 12.37736,5.52496 12.30718,5.5 L11.54851,5.5 C11.48428,5.52286 11.41307,5.54772 11.3,5.58697 C10.91479,5.72067 10.74912,5.78177 10.55316,5.86723 C10.49072,5.89447 10.42873,5.93394 10.29116,6.03227 L10.27994,6.04029 C10.16722,6.12088 10.11182,6.15893 10.03701,6.20442 C10.01655,6.21693 10.01655,6.21693 9.994895,6.23047 C9.961542,6.25153 9.961542,6.25153 9.925589,6.27447 C9.690825,6.42414 9.566182,6.49128 9.38218,6.54265 C9.146913,6.60838 9.014931,6.74693 8.939305,7.00719 C8.839766,7.34943 8.788629,7.59445 8.777166,7.82075 C8.738951,8.5784 8.789197,9.19007 8.949853,10.00838 C8.990949,10.21794 8.987307,10.44416 8.955843,10.71418 C8.943645,10.81893 8.915737,10.91404 8.873062,11.02037 C8.84764,11.08165 8.84764,11.08165 8.825118,11.13254 C8.784611,11.22409 8.777312,11.24852 8.771188,11.21126 C8.807134,11.43009 8.862737,11.69305 8.938028,12.00817 C8.962318,12.10984 8.988532,12.21644 9.017631,12.33226 C9.053678,12.47574 9.088345,12.61076 9.153602,12.86364 C9.146791,12.84986 9.140577,12.84615 9.125334,12.83959 C9.486738,12.99804 9.639086,13.27424 9.696521,13.66876 C9.71997,13.83069 9.73933,13.96117 9.78292,14.25262 C9.794606,14.330751 9.794612,14.330789 9.80629,14.408986 C9.825548,14.537482 9.893735,14.646783 10.04304,14.782087 C10.5506,15.242553 10.44958,16.000489 9.84648,16.31999 C9.57763,16.462578 9.4582,16.572562 9.404014,16.727236 C9.162086,17.417065 8.776164,17.705975 7.895321,18.097515 C7.873003,18.107434 7.873003,18.107434 7.850889,18.117268 C7.753642,18.160634 7.714437,18.178351 7.661196,18.203233 C6.758679,18.625072 5.825452,19.075385 4.819239,19.573116 C6.409786,21.126667 8.443327,22.125838 10.64836,22.413809 C11.08718,22.470203 11.53448,22.499508 11.98853,22.499994 Z M20.00993,18.789368 C21.56313,16.958768 22.5,14.588793 22.5,12 C22.5,6.20101 17.79899,1.5 12,1.5 C6.20101,1.5 1.5,6.20101 1.5,12 C1.5,14.614937 2.455892,17.006613 4.037311,18.844663 C5.180108,18.276598 6.227516,17.769498 7.237783,17.297297 C7.297977,17.269165 7.342873,17.248876 7.444375,17.203624 C7.466865,17.193622 7.466865,17.193622 7.489136,17.183724 C8.133819,16.897158 8.338425,16.743986 8.460308,16.396451 C8.607631,15.975923 8.881641,15.710662 9.315246,15.470518 C9.041274,15.206508 8.871119,14.916609 8.817252,14.55665 C8.805605,14.478657 8.805602,14.478637 8.793921,14.40054 C8.750102,14.107561 8.730589,13.97605 8.706898,13.81245 C8.697019,13.74459 8.703084,13.74335 8.710055,13.74811 C8.463632,13.64385 8.256121,13.38839 8.189559,13.12992 C8.121532,12.86635 8.085372,12.72559 8.047771,12.57592 C8.017783,12.45656 7.990662,12.34627 7.965405,12.24056 C7.885031,11.90417 7.824871,11.61965 7.784422,11.37341 C7.746432,11.14229 7.786225,11.00909 7.910637,10.72791 C7.93056,10.68278 7.93056,10.68278 7.945018,10.6479 C7.957508,10.61678 7.96235,10.60028 7.962559,10.59848 C7.983038,10.42273 7.98524,10.28596 7.968565,10.20093 C7.792826,9.30579 7.735928,8.61314 7.778441,7.77027 C7.79466,7.45008 7.859717,7.13837 7.97906,6.72803 C8.148264,6.14575 8.53332,5.74151 9.113189,5.57951 C9.170161,5.5636 9.236298,5.52798 9.388006,5.43126 C9.424345,5.40807 9.424345,5.40807 9.463175,5.38355 C9.489969,5.36679 9.489969,5.36679 9.517736,5.34981 C9.564164,5.32158 9.60563,5.2931 9.698336,5.22682 L9.70965,5.21873 C9.903218,5.08037 10.00608,5.01488 10.15336,4.95063 C10.38083,4.85143 10.5626,4.78438 10.96757,4.64383 C11.13045,4.58729 11.20356,4.56163 11.29112,4.52991 L11.46145,4.5 L12.39446,4.5 L12.56561,4.53021 C12.6579,4.56383 12.73353,4.59014 12.90516,4.6489 C13.30559,4.78601 13.48568,4.85249 13.71023,4.95405 C14.8412,5.46535 15.58306,6.1795 15.90419,7.24173 C16.13389,8.00155 16.18447,8.79915 16.11183,9.79141 C16.09982,9.95569 16.07211,10.07111 16.00003,10.31475 C15.96947,10.41804 15.95725,10.46176 15.94582,10.51128 C15.93287,10.56741 15.92652,10.61122 15.92568,10.64663 C15.94256,10.66926 15.94978,10.68382 15.97462,10.73244 C16.11077,10.9981 16.15615,11.12399 16.12814,11.3529 C16.05444,11.95663 15.96025,12.48732 15.83145,12.98491 C15.75161,13.29341 15.52362,13.58694 15.25182,13.78381 C15.20957,13.81442 15.20749,13.81857 15.20376,13.88655 C15.16306,14.630526 15.04476,15.103824 14.68876,15.534858 C14.95951,15.811106 15.13954,16.001518 15.31916,16.20572 C15.71908,16.660312 16.05927,16.943005 16.45127,17.120435 C17.12784,17.426726 17.66743,17.676317 18.87594,18.239314 L18.88598,18.243994 C19.27833,18.42677 19.45195,18.50759 19.67045,18.60907 C19.79049,18.66482 19.90362,18.724712 20.00993,18.789368 Z M11.98853,23.4999942 C11.98471,23.4999981 11.98088,23.5 11.97706,23.5 C11.5004,23.5 11.02847,23.46997 10.56341,23.4111407 C4.890145,22.704152 0.5,17.864763 0.5,12 C0.5,5.64873 5.648725,0.5 12,0.5 C18.35127,0.5 23.5,5.64873 23.5,12 C23.5,18.351275 18.35127,23.5 12,23.5 C11.99618,23.5 11.99235,23.4999981 11.98853,23.4999944 L11.98853,23.4999942 Z" id="path-1"></path>
    </defs>
    <g id="Xcode_AppleSignIn" stroke="none" stroke-width="1" fill="none" fill-rule="evenodd">
        <mask id="mask-2" fill="white">
            <use xlink:href="#path-1"></use>
        </mask>
        <use id="Clip-2" fill="#000000" xlink:href="#path-1"></use>
    </g>
</svg>