<?xml version="1.0" encoding="UTF-8"?>
<svg width="99px" height="71px" viewBox="0 0 99 71" version="1.1" xmlns="http://www.w3.org/2000/svg" xmlns:xlink="http://www.w3.org/1999/xlink">
    <title>Light-S</title>
    <g id="ExportsFromSFSymbolsPasteBoard" stroke="none" stroke-width="1" fill="none" fill-rule="evenodd">
        <g id="memorychip" transform="translate(-1702.000000, -627.000000)" fill="#000000" fill-rule="nonzero">
            <g id="Symbols" transform="translate(529.244000, 0.000000)">
                <g id="person.and.arrow.left.and.arrow.right" transform="translate(55.756000, 0.000000)">
                    <g id="Symbols" transform="translate(502.759277, 625.539100)">
                        <g id="Light-S" transform="translate(614.349114, 2.055100)">
                            <path d="M1.01605917,19.2828 L10.9306092,26.6748 C12.8959092,28.1602 15.2705092,27.2862 15.2705092,24.8897 L15.2705092,19.9585 L25.1875092,19.9585 C26.7016092,19.9585 27.8335092,18.793 27.8335092,17.3125 C27.8335092,15.8472 26.7016092,14.7002 25.1875092,14.7002 L15.2705092,14.7002 L15.2705092,9.8516 C15.2705092,7.354 12.8286092,6.5811 10.9306092,7.9839 L1.01605917,15.4585 C-0.331110829,16.4117 -0.346240829,18.2657 1.01605917,19.2828 Z M70.2124092,17.3125 C70.2124092,18.793 71.3442092,19.9585 72.8584092,19.9585 L82.7754092,19.9585 L82.7754092,24.8897 C82.7754092,27.2862 85.1499092,28.1602 87.1152092,26.6748 L97.0296092,19.2828 C98.3916092,18.2657 98.3616092,16.4117 97.0296092,15.4585 L87.1152092,7.9839 C85.2173092,6.5811 82.7754092,7.354 82.7754092,9.8516 L82.7754092,14.7002 L72.8584092,14.7002 C71.3442092,14.7002 70.2124092,15.8472 70.2124092,17.3125 Z M24.6728092,70.3188905 L73.3881092,70.3188905 C79.3764092,70.3188905 82.2241092,68.48344 82.2241092,64.45219 C82.2241092,54.4541 69.6010092,40.0747 49.0473092,40.0747 C28.4448092,40.0747 15.8706092,54.4541 15.8706092,64.45219 C15.8706092,68.48344 18.6845092,70.3188905 24.6728092,70.3188905 Z M23.1718092,65.19534 C21.8022092,65.19534 21.2822092,64.86722 21.2822092,63.84574 C21.2822092,57.0582 31.2627092,45.1983 49.0473092,45.1983 C66.8320092,45.1983 76.7973092,57.0582 76.7973092,63.84574 C76.7973092,64.86722 76.2924092,65.19534 74.9228092,65.19534 L23.1718092,65.19534 Z M49.0776092,35.083 C58.0756092,35.083 65.3598092,27.1187 65.3598092,17.3125 C65.3598092,7.6729 58.0859092,0 49.0776092,0 C40.1064092,0 32.7954092,7.7891 32.7954092,17.3799 C32.7954092,27.1524 40.0795092,35.083 49.0776092,35.083 Z M49.0776092,29.9932 C43.1416092,29.9932 38.2070092,24.4424 38.2070092,17.3799 C38.2070092,10.4991 43.1196092,5.1236 49.0776092,5.1236 C55.0542092,5.1236 59.9331092,10.4165 59.9331092,17.3125 C59.9331092,24.375 55.0136092,29.9932 49.0776092,29.9932 Z" id="Shape"></path>
                        </g>
                    </g>
                </g>
            </g>
        </g>
    </g>
</svg>