<?xml version="1.0" encoding="UTF-8"?>
<svg width="78px" height="78px" viewBox="0 0 78 78" version="1.1" xmlns="http://www.w3.org/2000/svg" xmlns:xlink="http://www.w3.org/1999/xlink">
    <title>Light-S</title>
    <g id="Page-1" stroke="none" stroke-width="1" fill="none" fill-rule="evenodd">
        <g id="gauge.with.dots.needle.67percent" transform="translate(-1114.000000, -622.000000)" fill="#000000" fill-rule="nonzero">
            <g id="Symbols" transform="translate(498.889800, 618.802700)">
                <g id="Light-S" transform="translate(615.546140, 3.265700)">
                    <path d="M32.78566,44.166 C35.15336,46.5337 38.58006,46.5337 40.96286,44.166 C41.37896,43.7348 42.02396,42.8237 42.43656,42.2612 L55.57566,23.6259 C56.17186,22.7788 56.01856,21.9838 55.49316,21.4248 C54.96776,20.9145 54.12406,20.7797 53.32566,21.3422 L34.64156,34.4814 C34.11276,34.8789 33.18306,35.5576 32.78566,35.9702 C30.41796,38.3379 30.41796,41.7983 32.78566,44.166 Z M22.68506,57.6005 C24.35056,57.6005 25.73486,56.2163 25.73486,54.5356 C25.73486,52.8701 24.35056,51.4858 22.68506,51.4858 C21.00436,51.4858 19.62016,52.8701 19.62016,54.5356 C19.62016,56.2163 21.00436,57.6005 22.68506,57.6005 Z M16.07516,41.7275 C17.75586,41.7275 19.12506,40.3584 19.12506,38.6777 C19.12506,36.997 17.75586,35.6279 16.07516,35.6279 C14.39456,35.6279 12.99166,36.997 12.99166,38.6777 C12.99166,40.3584 14.39456,41.7275 16.07516,41.7275 Z M22.68506,25.8696 C24.35056,25.8696 25.73486,24.4853 25.73486,22.8198 C25.73486,21.1391 24.35056,19.7548 22.68506,19.7548 C21.00436,19.7548 19.62016,21.1391 19.62016,22.8198 C19.62016,24.4853 21.00436,25.8696 22.68506,25.8696 Z M38.64406,19.1587 C40.32476,19.1587 41.72756,17.7895 41.72756,16.1089 C41.72756,14.4282 40.32476,13.059 38.64406,13.059 C36.96336,13.059 35.59426,14.4282 35.59426,16.1089 C35.59426,17.7895 36.96336,19.1587 38.64406,19.1587 Z M61.17916,41.7275 C62.85986,41.7275 64.26266,40.3584 64.26266,38.6777 C64.26266,36.997 62.85986,35.6279 61.17916,35.6279 C59.49856,35.6279 58.12936,36.997 58.12936,38.6777 C58.12936,40.3584 59.49856,41.7275 61.17916,41.7275 Z M54.56936,57.6005 C56.24996,57.6005 57.63426,56.2163 57.63426,54.5356 C57.63426,52.8701 56.24996,51.4858 54.56936,51.4858 C52.90376,51.4858 51.51956,52.8701 51.51956,54.5356 C51.51956,56.2163 52.90376,57.6005 54.56936,57.6005 Z M38.67776,77.35543 C59.84766,77.35543 77.38916,59.8476 77.38916,38.6777 C77.38916,17.5078 59.81396,0 38.64406,0 C17.49266,0 -8.8817842e-16,17.5078 -8.8817842e-16,38.6777 C-8.8817842e-16,59.8476 17.52636,77.35543 38.67776,77.35543 Z M38.67776,71.65913 C20.42336,71.65913 5.74856,56.9658 5.74856,38.6777 C5.74856,20.3896 20.38966,5.6963 38.64406,5.6963 C56.93216,5.6963 71.65916,20.3896 71.65916,38.6777 C71.65916,56.9658 56.96586,71.65913 38.67776,71.65913 Z" id="Shape"></path>
                </g>
            </g>
        </g>
    </g>
</svg>