<?xml version="1.0" encoding="UTF-8"?>
<svg width="128px" height="81px" viewBox="0 0 128 81" version="1.1" xmlns="http://www.w3.org/2000/svg" xmlns:xlink="http://www.w3.org/1999/xlink">
    <title>Thin-S</title>
    <g id="Page-2" stroke="none" stroke-width="1" fill="none" fill-rule="evenodd">
        <g id="Desktop-HD" transform="translate(-678.000000, -82.000000)" fill="#000000" fill-rule="nonzero">
            <g id="Thin-S" transform="translate(678.000000, 82.000000)">
                <path d="M75.06206,77.39235 C76.97446,77.39235 78.6630267,77.1258423 80.12776,76.592827 C81.59256,76.059809 82.86206,75.2684167 83.93626,74.21865 C84.97786,73.13633 85.76516,71.8485367 86.29816,70.35527 C86.8312267,68.8619967 87.09776,67.15104 87.09776,65.2224 L87.09776,21.6556 C87.09776,19.7350667 86.8312267,18.0220667 86.29816,16.5166 C85.76516,15.0111333 84.97786,13.7335 83.93626,12.6837 C82.8701933,11.6258333 81.6047933,10.8303667 80.14006,10.2973 C78.67526,9.7643 76.9825933,9.4978 75.06206,9.4978 L48.74356,9.4978 C46.83116,9.4978 45.14256,9.7643 43.67776,10.2973 C42.2130267,10.8303667 40.9476267,11.6258333 39.88156,12.6837 C38.8074267,13.7335 38.0099267,15.0050333 37.48906,16.4983 C36.96826,17.9915667 36.70786,19.7106667 36.70786,21.6556 L36.70786,65.2224 C36.70786,67.15104 36.96826,68.8619967 37.48906,70.35527 C38.0099267,71.8485367 38.8074267,73.13633 39.88156,74.21865 C40.95576,75.2684167 42.22526,76.059809 43.69006,76.592827 C45.1547933,77.1258423 46.8392933,77.39235 48.74356,77.39235 L75.06206,77.39235 Z M48.82896,80.78641 C45.6632933,80.78641 42.8882267,80.16385 40.50376,78.91873 C38.1600267,77.65733 36.3737267,75.8588167 35.14486,73.52319 C33.8915933,71.17943 33.26496,68.384 33.26496,65.1369 L33.26496,21.68 C33.26496,18.4817333 33.8915933,15.6781667 35.14486,13.2693 C36.3411267,10.9987667 38.1274267,9.20433333 40.50376,7.886 C42.89636,6.63273333 45.6714267,6.0061 48.82896,6.0061 L74.97656,6.0061 C78.1666933,6.0061 80.93366,6.63273333 83.27746,7.886 C85.6537267,9.17993333 87.4400267,10.9743667 88.63636,13.2693 C89.9058933,15.6374333 90.54066,18.441 90.54066,21.68 L90.54066,65.1369 C90.54066,68.39214 89.9058933,71.18757 88.63636,73.52319 C87.4074933,75.8832233 85.6211933,77.6817367 83.27746,78.91873 C80.9499267,80.16385 78.18296,80.78641 74.97656,80.78641 L48.82896,80.78641 Z M46.86356,2.0144 C46.86356,1.4528 47.0588933,0.976666667 47.44956,0.586 C47.8320933,0.195333333 48.3204267,0 48.91456,0 C49.4680267,0 49.94416,0.195333333 50.34296,0.586 C50.7336267,0.968533333 50.92896,1.44466667 50.92896,2.0144 L50.92896,7.7887 L46.86356,7.7887 L46.86356,2.0144 Z M61.87836,53.3328 C59.15216,53.3328 56.8246933,52.3684333 54.89596,50.4397 C52.9510267,48.5028333 51.97856,46.1509333 51.97856,43.384 C51.97856,40.6984667 52.9510267,38.3832333 54.89596,36.4383 C56.8084267,34.5258333 59.1358933,33.5696 61.87836,33.5696 C64.6696933,33.5696 67.00936,34.5258333 68.89736,36.4383 C70.8098267,38.3507 71.76606,40.6659333 71.76606,43.384 C71.76606,46.1916667 70.8098267,48.5435667 68.89736,50.4397 C67.0174933,52.3684333 64.6778267,53.3328 61.87836,53.3328 Z M61.87836,59.131 C64.7266933,59.131 67.3715267,58.4352 69.81286,57.0436 C72.1485267,55.652 74.0284267,53.7436667 75.45256,51.3186 C76.8360267,48.9911333 77.52776,46.3544333 77.52776,43.4085 C77.52776,40.4951 76.8360267,37.8909333 75.45256,35.596 C74.0120933,33.1627333 72.1077933,31.2584333 69.73966,29.8831 C67.3715267,28.4671 64.7510933,27.7591 61.87836,27.7591 C59.07076,27.7591 56.4381267,28.4671 53.98046,29.8831 C51.6285933,31.2665667 49.7365267,33.1586667 48.30426,35.5594 C46.88826,38.0089333 46.18026,40.6253 46.18026,43.4085 C46.18026,46.2161 46.88826,48.865 48.30426,51.3552 C49.72026,53.7396 51.6123267,55.6357333 53.98046,57.0436 C56.4625267,58.4352 59.09516,59.131 61.87836,59.131 Z M61.87836,61.9755 C58.43596,61.9755 55.33536,61.1332 52.57656,59.4486 C49.76076,57.7884667 47.5227933,55.5505 45.86266,52.7347 C44.1699267,49.9596333 43.32356,46.8386667 43.32356,43.3718 C43.32356,39.962 44.16586,36.8654667 45.85046,34.0822 C47.5105933,31.2908667 49.74856,29.0529 52.56436,27.3683 C55.3150267,25.7325667 58.4196933,24.9147 61.87836,24.9147 C65.29636,24.9147 68.41326,25.7325667 71.22906,27.3683 C74.01226,29.0529 76.2502267,31.2908667 77.94296,34.0822 C79.59496,36.8735333 80.42096,39.9700667 80.42096,43.3718 C80.42096,46.8712 79.60716,49.9921667 77.97956,52.7347 C76.2380267,55.5993 74.00006,57.8372667 71.26566,59.4486 C68.44986,61.1332 65.32076,61.9755 61.87836,61.9755 Z M104.50506,57.8985 C104.163727,57.5322333 104.041727,57.1212 104.13906,56.6654 C104.23706,56.1608 104.46906,55.7131333 104.83506,55.3224 C106.26706,53.9064 107.353393,52.1730333 108.09406,50.1223 C108.81006,48.1203667 109.16806,45.9801 109.16806,43.7015 C109.16806,41.4066333 108.81006,39.2663667 108.09406,37.2807 C107.37806,35.2625667 106.291727,33.5292 104.83506,32.0806 C104.444393,31.6654667 104.212393,31.2218667 104.13906,30.7498 C104.041727,30.294 104.163727,29.8789 104.50506,29.5045 C104.84706,29.1301 105.286727,28.9469667 105.82406,28.9548406 C106.353393,28.9548406 106.80906,29.1789333 107.19106,29.6266 C108.965727,31.5798 110.300393,33.7242 111.19506,36.0598 C112.155727,38.4524 112.63606,40.9996333 112.63606,43.7015 C112.63606,46.3952333 112.155727,48.9465333 111.19506,51.3554 C110.291727,53.7317333 108.95706,55.8598667 107.19106,57.7398 C106.865727,58.1548667 106.41006,58.3949667 105.82406,58.4601 C105.270727,58.4601 104.83106,58.2729 104.50506,57.8985 Z M114.79606,68.48203 C114.503393,68.09135 114.401727,67.6681133 114.49106,67.21232 C114.572393,66.7321133 114.78806,66.3007267 115.13806,65.91816 C117.97806,62.9966533 120.16306,59.6478667 121.69306,55.8718 C123.24706,52.1609333 124.02406,48.1041667 124.02406,43.7015 C124.02406,39.2744333 123.24706,35.2176667 121.69306,31.5312 C120.17106,27.7796 117.98606,24.4308333 115.13806,21.4849 C114.79606,21.1185667 114.580393,20.6912333 114.49106,20.2029 C114.401727,19.7389667 114.503393,19.3116667 114.79606,18.921 C115.16206,18.5466 115.605727,18.3634667 116.12706,18.3713406 C116.688393,18.4204 117.14806,18.6360667 117.50606,19.0186 C120.639393,22.2250667 123.08506,25.9523333 124.84306,30.2004 C126.60906,34.3752667 127.49206,38.8756333 127.49206,43.7015 C127.49206,48.5355 126.60906,53.0358667 124.84306,57.2026 C123.09306,61.4181333 120.647393,65.13318 117.50606,68.34774 C117.14006,68.7465733 116.680393,68.9785433 116.12706,69.04365 C115.589727,69.04365 115.14606,68.8564433 114.79606,68.48203 Z M22.98626,57.8985 C22.6607267,58.2729 22.2212267,58.4601 21.66776,58.4601 C21.08176,58.3949667 20.6218933,58.1548667 20.28816,57.7398 C18.6198267,55.9494 17.28926,53.8212667 16.29646,51.3554 C15.3605933,48.8895333 14.89266,46.3382333 14.89266,43.7015 C14.89266,41.0566333 15.3605933,38.5094 16.29646,36.0598 C17.2567267,33.6346667 18.5872933,31.4902667 20.28816,29.6266 C20.68696,29.1789333 21.1468267,28.9548406 21.66776,28.9548406 C22.20496,28.9469667 22.64446,29.1301 22.98626,29.5045 C23.3281267,29.8789 23.4502267,30.294 23.35256,30.7498 C23.2304933,31.1974667 23.0107267,31.6410667 22.69326,32.0806 C21.1959267,33.5536 20.09736,35.2869667 19.39756,37.2807 C18.6570267,39.2907667 18.28676,41.4310333 18.28676,43.7015 C18.28676,45.9882333 18.6570267,48.1285 19.39756,50.1223 C20.1218267,52.1486333 21.2203933,53.882 22.69326,55.3224 C23.0107267,55.7131333 23.2304933,56.1608 23.35256,56.6654 C23.4502267,57.1212 23.3281267,57.5322333 22.98626,57.8985 Z M12.65906,68.48203 C12.34166,68.8564433 11.9102933,69.04365 11.36496,69.04365 C10.85216,68.9785433 10.3922933,68.7465733 9.98536,68.34774 C6.89289333,65.1250467 4.45148,61.41 2.66112,57.2026 C0.88704,52.9464 6.21724894e-15,48.4460333 6.21724894e-15,43.7015 C6.21724894e-15,38.9733 0.88704,34.4729333 2.66112,30.2004 C4.43521333,25.9604667 6.87662667,22.2332 9.98536,19.0186 C10.3516267,18.6360667 10.8114933,18.4204 11.36496,18.3713406 C11.90216,18.3634667 12.3335267,18.5466 12.65906,18.921 C12.98466,19.3198 13.1108267,19.7471 13.03756,20.2029 C12.9236267,20.6912333 12.6957267,21.1185667 12.35386,21.4849 C9.57072667,24.3820333 7.38569333,27.7308 5.79876,31.5312 C4.24442667,35.3234667 3.46726,39.3802333 3.46726,43.7015 C3.46726,47.9739 4.24442667,52.0306667 5.79876,55.8718 C7.39382667,59.6966667 9.57886,63.0454533 12.35386,65.91816 C12.70386,66.2763133 12.93176,66.7077 13.03756,67.21232 C13.1108267,67.6599733 12.98466,68.08321 12.65906,68.48203 Z" id="Shape"></path>
            </g>
        </g>
    </g>
</svg>